<?xml version='1.0' encoding='UTF-8' standalone='no'?>
<!-- Created with Fritzing (https://fritzing.org/) -->
<svg xmlns="http://www.w3.org/2000/svg" baseProfile="tiny" height="3.04855in" version="1.2" viewBox="0 0 261.214 219.495" width="3.62797in" x="0in"  xmlns:svg="http://www.w3.org/2000/svg" y="0in">
 <g id="watermark" >
  <g >
   <g >
    <path d="M236.482,213.295c-0.604,0,-1.131,0.325,-1.422,0.809l-2.796,0l3.96,-4.071c0.146,-0.146,0.289,-0.322,0.428,-0.521c0.149,-0.222,0.228,-0.479,0.228,-0.768c0,-0.279,-0.097,-0.518,-0.287,-0.71c-0.19,-0.188,-0.444,-0.287,-0.754,-0.287l-4.636,0c-0.305,0,-0.555,0.06,-0.742,0.17c-0.219,0.13,-0.33,0.368,-0.33,0.707c0,0.329,0.111,0.562,0.33,0.692c0.188,0.111,0.438,0.168,0.742,0.168l3.148,0l-3.974,4.086c-0.146,0.147,-0.289,0.315,-0.425,0.504c-0.153,0.212,-0.23,0.472,-0.23,0.771c0,0.28,0.096,0.521,0.288,0.711c0.188,0.188,0.442,0.285,0.754,0.285l4.315,0c0.293,0.467,0.812,0.776,1.4,0.776c0.916,0,1.66,-0.744,1.66,-1.661C238.141,214.04,237.396,213.295,236.482,213.295zM236.482,215.558c-0.334,0,-0.604,-0.271,-0.604,-0.604c0,-0.333,0.27,-0.604,0.604,-0.604c0.332,0,0.604,0.271,0.604,0.604C237.085,215.289,236.814,215.558,236.482,215.558z" fill="#8C8C8C" />
    <path d="M219.539,203.253c-0.914,0,-1.659,0.745,-1.659,1.66c0,0.916,0.745,1.66,1.659,1.66s1.658,-0.744,1.658,-1.66C221.199,203.998,220.455,203.253,219.539,203.253zM219.54,205.516c-0.333,0,-0.604,-0.27,-0.604,-0.603s0.271,-0.603,0.604,-0.603c0.331,0,0.604,0.27,0.604,0.603S219.871,205.516,219.54,205.516z" fill="#8C8C8C" />
    <path d="M228.06,207.915c-0.193,-0.111,-0.439,-0.169,-0.732,-0.169l-1.465,0L225.863,205.224c0,-0.292,-0.057,-0.538,-0.166,-0.729C225.607,204.338,225.414,204.153,225.004,204.153c-0.34,0,-0.578,0.116,-0.709,0.342c-0.109,0.193,-0.167,0.438,-0.167,0.729l0,2.521l-0.481,0c-0.295,0,-0.539,0.06,-0.731,0.169c-0.228,0.129,-0.341,0.368,-0.341,0.708c0,0.412,0.185,0.603,0.341,0.692c0.192,0.111,0.438,0.168,0.731,0.168l0.481,0l0,4.362c0,0.277,0.026,0.533,0.081,0.768c0.056,0.246,0.154,0.464,0.298,0.645c0.146,0.186,0.345,0.332,0.595,0.436c0.241,0.098,0.555,0.146,0.93,0.146l0.896,0c0.292,0,0.539,-0.054,0.731,-0.166c0.154,-0.089,0.341,-0.281,0.341,-0.693c0,-0.338,-0.114,-0.578,-0.341,-0.709c-0.192,-0.109,-0.439,-0.168,-0.731,-0.168l-0.821,0c-0.138,0,-0.19,-0.019,-0.207,-0.024c-0.014,-0.034,-0.035,-0.103,-0.035,-0.231L225.865,209.483l1.465,0c0.295,0,0.541,-0.057,0.734,-0.168c0.152,-0.09,0.34,-0.28,0.34,-0.692C228.4,208.283,228.287,208.044,228.06,207.915z" fill="#8C8C8C" />
    <path d="M219.605,207.745l-1.191,0c-0.292,0,-0.538,0.059,-0.731,0.169c-0.226,0.129,-0.341,0.368,-0.341,0.708c0,0.412,0.188,0.604,0.341,0.691c0.193,0.113,0.439,0.168,0.731,0.168l0.544,0l0,5.362c0,0.293,0.057,0.539,0.167,0.73c0.131,0.227,0.367,0.341,0.708,0.341c0.411,0,0.604,-0.187,0.692,-0.341c0.111,-0.191,0.168,-0.438,0.168,-0.73L220.693,208.833c0,-0.386,-0.084,-0.656,-0.256,-0.83C220.262,207.831,219.992,207.745,219.605,207.745z" fill="#8C8C8C" />
    <path d="M215.77,207.915c-0.193,-0.111,-0.44,-0.169,-0.732,-0.169l-0.604,0c-0.25,0,-0.498,0.063,-0.734,0.187c-0.226,0.119,-0.433,0.271,-0.616,0.453l-0.644,0.604l0,-0.247c0,-0.291,-0.055,-0.538,-0.168,-0.729c-0.128,-0.228,-0.368,-0.34,-0.707,-0.34c-0.41,0,-0.604,0.184,-0.693,0.34c-0.11,0.191,-0.167,0.438,-0.167,0.729l0,4.801c-0.475,0.293,-0.791,0.816,-0.791,1.412c0,0.917,0.745,1.661,1.658,1.661c0.916,0,1.66,-0.744,1.66,-1.661c0,-0.596,-0.317,-1.119,-0.792,-1.412l0,-2.21l1.738,-1.564c0.1,-0.09,0.199,-0.164,0.297,-0.217c0.084,-0.045,0.174,-0.067,0.274,-0.067l0.288,0c0.292,0,0.539,-0.056,0.732,-0.169c0.155,-0.088,0.339,-0.279,0.339,-0.691C216.11,208.283,215.995,208.044,215.77,207.915zM211.571,215.558c-0.332,0,-0.603,-0.271,-0.603,-0.604c0,-0.333,0.271,-0.604,0.603,-0.604c0.333,0,0.604,0.271,0.604,0.604C212.175,215.289,211.904,215.558,211.571,215.558z" fill="#8C8C8C" />
    <path d="M209.054,204.396c-0.193,-0.111,-0.44,-0.167,-0.731,-0.167l-0.59,0c-0.2,0,-0.389,0.004,-0.562,0.016c-0.176,0.009,-0.345,0.035,-0.506,0.07c-0.168,0.041,-0.336,0.109,-0.496,0.202c-0.158,0.093,-0.319,0.222,-0.48,0.382c-0.334,0.314,-0.554,0.656,-0.652,1.017c-0.094,0.348,-0.143,0.735,-0.143,1.151l0,0.678l-0.483,0c-0.292,0,-0.539,0.059,-0.73,0.169c-0.227,0.13,-0.342,0.369,-0.342,0.708c0,0.412,0.185,0.604,0.341,0.693c0.191,0.111,0.438,0.166,0.73,0.166l0.483,0l0,5.362c0,0.293,0.057,0.539,0.167,0.73c0.13,0.227,0.367,0.341,0.708,0.341c0.411,0,0.603,-0.187,0.692,-0.341c0.111,-0.191,0.168,-0.438,0.168,-0.73l0,-5.36l0.92,0c0.293,0,0.54,-0.057,0.732,-0.168c0.155,-0.09,0.34,-0.28,0.34,-0.692c0,-0.34,-0.114,-0.579,-0.34,-0.708c-0.189,-0.111,-0.436,-0.17,-0.729,-0.17l-0.92,0l0,-0.678c0,-0.218,0.019,-0.41,0.056,-0.571c0.032,-0.141,0.103,-0.261,0.218,-0.367l0.002,-0.004l0.002,-0.002c0.082,-0.082,0.176,-0.126,0.29,-0.136c0.15,-0.015,0.339,-0.022,0.564,-0.022l0.56,0c0.291,0,0.539,-0.058,0.731,-0.168c0.154,-0.088,0.339,-0.281,0.339,-0.693C209.394,204.765,209.279,204.526,209.054,204.396z" fill="#8C8C8C" />
    <path d="M261.047,208.013c-0.089,-0.156,-0.282,-0.34,-0.693,-0.34c-0.339,0,-0.578,0.113,-0.707,0.34c-0.078,0.133,-0.127,0.293,-0.152,0.477l-0.021,-0.021c-0.216,-0.236,-0.466,-0.42,-0.747,-0.539c-0.277,-0.119,-0.563,-0.183,-0.849,-0.183l-0.709,0c-0.249,0,-0.466,0.015,-0.64,0.041c-0.182,0.026,-0.352,0.074,-0.51,0.14c-0.158,0.066,-0.313,0.15,-0.459,0.254c-0.139,0.097,-0.303,0.226,-0.486,0.377c-0.188,0.156,-0.342,0.302,-0.463,0.434c-0.127,0.141,-0.23,0.293,-0.306,0.455c-0.069,0.16,-0.122,0.337,-0.147,0.523c-0.026,0.178,-0.041,0.391,-0.041,0.631l0,2.386c0,0.24,0.015,0.451,0.041,0.631c0.025,0.188,0.078,0.361,0.147,0.521c0.074,0.164,0.179,0.318,0.306,0.457c0.119,0.129,0.274,0.274,0.463,0.433c0.186,0.153,0.35,0.28,0.486,0.379c0.146,0.103,0.299,0.188,0.459,0.254c0.158,0.065,0.329,0.112,0.51,0.14c0.174,0.026,0.389,0.039,0.64,0.039l0.709,0c0.298,0,0.591,-0.066,0.87,-0.199c0.244,-0.114,0.492,-0.291,0.73,-0.523l0,1.434c0,0.18,-0.025,0.334,-0.072,0.465c-0.043,0.119,-0.159,0.258,-0.344,0.406c-0.154,0.127,-0.309,0.217,-0.457,0.264c-0.15,0.049,-0.341,0.074,-0.563,0.074l-2.203,0c-0.293,0,-0.538,0.055,-0.732,0.166c-0.152,0.088,-0.34,0.282,-0.34,0.692c0,0.341,0.115,0.579,0.34,0.71c0.194,0.109,0.439,0.167,0.732,0.167l2.326,0c0.247,0,0.463,-0.015,0.638,-0.041c0.179,-0.026,0.351,-0.073,0.513,-0.14c0.153,-0.064,0.31,-0.15,0.455,-0.254c0.143,-0.101,0.305,-0.227,0.487,-0.379c0.185,-0.153,0.343,-0.299,0.463,-0.431c0.128,-0.141,0.229,-0.294,0.304,-0.456c0.071,-0.162,0.123,-0.338,0.148,-0.523c0.025,-0.182,0.041,-0.393,0.041,-0.631l0,-7.898C261.214,208.451,261.16,208.204,261.047,208.013zM259.478,212.473c0,0.188,-0.062,0.35,-0.188,0.49c-0.15,0.172,-0.394,0.403,-0.716,0.686l-0.002,0.003l-0.002,0.004c-0.139,0.13,-0.291,0.237,-0.453,0.325c-0.148,0.082,-0.325,0.121,-0.526,0.121L257.29,214.102c-0.222,0,-0.41,-0.021,-0.563,-0.072c-0.148,-0.049,-0.301,-0.137,-0.453,-0.264c-0.231,-0.186,-0.315,-0.322,-0.346,-0.404c-0.049,-0.131,-0.072,-0.285,-0.072,-0.465l0,-2.206c0,-0.18,0.023,-0.336,0.072,-0.467c0.029,-0.082,0.113,-0.217,0.346,-0.403c0.152,-0.127,0.305,-0.216,0.453,-0.265c0.153,-0.049,0.342,-0.072,0.563,-0.072l0.301,0c0.212,0,0.388,0.037,0.526,0.113c0.152,0.082,0.308,0.191,0.457,0.324c0.322,0.293,0.564,0.529,0.716,0.7c0.128,0.146,0.188,0.304,0.188,0.492L259.478,212.473z" fill="#8C8C8C" />
    <path d="M241.068,203.253c-0.914,0,-1.66,0.745,-1.66,1.66c0,0.916,0.746,1.66,1.66,1.66s1.66,-0.744,1.66,-1.66C242.728,203.998,241.982,203.253,241.068,203.253zM241.068,205.516c-0.332,0,-0.604,-0.27,-0.604,-0.603s0.271,-0.603,0.604,-0.603s0.604,0.27,0.604,0.603C241.672,205.246,241.4,205.516,241.068,205.516z" fill="#8C8C8C" />
    <path d="M251.754,213.521l-0.107,-3.419c-0.011,-0.178,-0.021,-0.338,-0.031,-0.489c-0.01,-0.162,-0.037,-0.322,-0.082,-0.476c-0.045,-0.158,-0.11,-0.309,-0.198,-0.453c-0.093,-0.146,-0.216,-0.289,-0.37,-0.42c-0.225,-0.192,-0.443,-0.334,-0.646,-0.416c-0.207,-0.084,-0.461,-0.127,-0.754,-0.127l-1.012,0c-0.259,0,-0.501,0.058,-0.716,0.164c-0.197,0.098,-0.39,0.203,-0.572,0.315l-0.003,0.002l-0.003,0.003l-0.837,0.555l0,-0.041c0,-0.291,-0.057,-0.539,-0.168,-0.733c-0.129,-0.226,-0.367,-0.339,-0.707,-0.339c-0.411,0,-0.604,0.185,-0.693,0.339c-0.109,0.194,-0.168,0.438,-0.168,0.733l0,6.099c0,0.295,0.059,0.539,0.168,0.734c0.09,0.153,0.282,0.338,0.693,0.338c0.34,0,0.578,-0.114,0.707,-0.338c0.111,-0.195,0.168,-0.439,0.168,-0.734L246.423,210.783l1.953,-1.215c0.04,-0.024,0.082,-0.048,0.121,-0.063c0.031,-0.016,0.07,-0.025,0.115,-0.031c0.049,-0.012,0.117,-0.016,0.195,-0.016l0.362,0c0.188,0,0.334,0.021,0.435,0.059c0.082,0.029,0.143,0.076,0.18,0.143c0.05,0.078,0.08,0.18,0.098,0.303c0.02,0.139,0.034,0.309,0.045,0.504l0.096,3.097c-0.457,0.297,-0.762,0.811,-0.762,1.394c0,0.917,0.746,1.661,1.66,1.661c0.916,0,1.66,-0.744,1.66,-1.661C252.58,214.346,252.247,213.808,251.754,213.521zM250.92,215.558c-0.334,0,-0.602,-0.271,-0.602,-0.604c0,-0.333,0.268,-0.604,0.602,-0.604c0.333,0,0.604,0.271,0.604,0.604C251.525,215.289,251.253,215.558,250.92,215.558z" fill="#8C8C8C" />
    <path d="M241.131,207.745l-1.193,0c-0.293,0,-0.539,0.059,-0.731,0.169c-0.226,0.129,-0.341,0.368,-0.341,0.708c0,0.412,0.186,0.604,0.341,0.691c0.192,0.113,0.438,0.168,0.731,0.168l0.545,0l0,5.362c0,0.293,0.055,0.539,0.168,0.73c0.127,0.227,0.365,0.341,0.707,0.341c0.41,0,0.604,-0.187,0.691,-0.341c0.111,-0.191,0.17,-0.438,0.17,-0.73L242.219,208.833c0,-0.386,-0.085,-0.656,-0.259,-0.83C241.788,207.831,241.515,207.745,241.131,207.745z" fill="#8C8C8C" />
   </g>
  </g>
 </g>
 <g partID="855136130">
  <g transform="translate(87.7504,163)">
   <g id="schematic">
    <rect fill="none" height="13.7197" stroke="#000000" stroke-width="0.680315" width="57.6" x="7.2" y="0.340157"/>
    <g transform="matrix(1, 0, 0, 1, 0, 3.25984)">
     <g fill="#555555" stroke="none">
      <rect height="0.680315" id="connector0pin" width="7.2" x="0" y="0"/>
      <rect height="0.680315" id="connector1pin" width="7.2" x="0" y="7.2"/>
      <rect height="0.680315" id="connector2pin" width="7.2" x="64.8" y="0"/>
      <rect height="0.680315" id="connector3pin" width="7.2" x="64.8" y="7.2"/>
     </g>
    </g>
    <g font-family="DroidSans">
     <g transform="matrix(1, 0, 0, 1, 0, 2.83465)">
      <g fill="#555555" font-size="3.49994">
       <text x="3.11439" y="0">1</text>
       <text x="3.0099" y="7.2">2</text>
       <text x="67.7289" y="0">3</text>
       <text x="67.7154" y="7.2">4</text>
      </g>
     </g>
     <g transform="matrix(1, 0, 0, 1, 7.2, 4.8189)">
      <g fill="#555555" font-size="3.49994">
       <text text-anchor="start" x="1.13386" y="0">VIN+</text>
       <text text-anchor="start" x="1.13386" y="7.2">GND-</text>
       <text text-anchor="end" x="56.4661" y="0">VOUT+</text>
       <text text-anchor="end" x="56.4661" y="7.2">GND-</text>
      </g>
     </g>
     <g transform="matrix(1, 0, 0, 1, 36, 6.51969)">
      <g fill="#000000" font-size="4.25197" text-anchor="middle">
       <text x="0" y="0">AMS1117</text>
       <text x="0" y="4.25197">5V regulator</text>
      </g>
     </g>
    </g>
    <g transform="matrix(1, 0, 0, 1, 0, 3.25984)">
     <g fill="none" stroke="none">
      <g height="0.680315" id="connector0terminal" width="0.680315" x="0" y="0"/>
      <g height="0.680315" id="connector1terminal" width="0.680315" x="0" y="7.2"/>
      <g height="0.680315" id="connector2terminal" width="0.680315" x="71.3197" y="0"/>
      <g height="0.680315" id="connector3terminal" width="0.680315" x="71.3197" y="7.2"/>
     </g>
    </g>
   </g>
  </g>
 </g>
 <g partID="855136140">
  <g transform="translate(33.514,181.35)">
   <g transform="matrix(0,-1,1,0,0,0)">
    <g id="schematic" >
     <line class="other" stroke="#000000" stroke-linecap="round" stroke-width="1.152" x1="11.15" x2="11.15"  y1="0.576" y2="22.176"/>
     <line class="other" stroke="#000000" stroke-linecap="round" stroke-width="1.152" x1="14.75" x2="14.75"  y1="7.776" y2="14.976"/>
     <line class="other" stroke="#000000" stroke-linecap="round" stroke-width="1.152" x1="18.3501" x2="18.3501"  y1="0.576" y2="22.176"/>
     <line class="other" stroke="#000000" stroke-linecap="round" stroke-width="1.152" x1="21.9501" x2="21.9501"  y1="7.776" y2="14.976"/>
     <line class="other" stroke="#000000" stroke-linecap="round" stroke-width="0.432002" x1="7.55002" x2="10.43"  y1="11.376" y2="11.376"/>
     <line class="pin" connectorname="-" id="connector0pin" stroke="#787878" stroke-linecap="round" stroke-width="0.700001" x1="29.1502" x2="21.9501"  y1="11.376" y2="11.376"/>
     <g class="terminal" fill="none" height="0.000283465" id="connector0terminal" stroke="none" stroke-width="0" width="0.000283466" x="29.1502"  y="11.376"/>
     <text class="text" fill="#8c8c8c" font-family="'Droid Sans'" font-size="2.50001" stroke="none" stroke-width="0" text-anchor="middle" x="25.5501"  y="10.326">1</text>
     <line class="pin" connectorname="+" id="connector1pin" stroke="#787878" stroke-linecap="round" stroke-width="0.700001" x1="0.350001" x2="7.55002"  y1="11.376" y2="11.376"/>
     <g class="terminal" fill="none" height="0.000283465" id="connector1terminal" stroke="none" stroke-width="0" width="0.000283466" x="0.350001"  y="11.376"/>
     <text class="text" fill="#8c8c8c" font-family="'Droid Sans'" font-size="2.50001" stroke="none" stroke-width="0" text-anchor="middle" x="3.95001"  y="10.326">2</text>
    </g>
   </g>
  </g>
 </g>
 <g partID="855136150">
  <g transform="translate(195.05,159.05)">
   <g id="schematic">
    <line class="other" stroke="#000000" stroke-linecap="round" stroke-width="0.72" x1="0.36" x2="14.76" y1="7.54999" y2="7.54999"/>
    <line class="other" stroke="#000000" stroke-linecap="round" stroke-width="0.432" x1="7.56" x2="7.56" y1="10.43" y2="14.75"/>
    <path class="other" d="M7.56,10.3846A11.4922,11.4922,0,0,1,14.616,12.806" fill="none" stroke="#000000" stroke-width="0.72"/>
    <path class="other" d="M0.567213,12.7952A11.5191,11.5191,0,0,1,7.56,10.4303" fill="none" stroke="#000000" stroke-width="0.72"/>
    <rect class="other" fill="#000000" height="0.36" stroke="none" stroke-linecap="round" stroke-width="0" width="2.52" x="1.17354" y="5.29645"/>
    <rect class="other" fill="#000000" height="2.52" stroke="none" stroke-linecap="round" stroke-width="0" width="0.36" x="2.25354" y="4.21645"/>
    <line class="pin" connectorname="+" id="connector1pin" stroke="#787878" stroke-linecap="round" stroke-width="0.699999" x1="7.56" x2="7.56" y1="0.349999" y2="7.54999"/>
    <g class="terminal" fill="none" height="0.000283465" id="connector1terminal" stroke="none" stroke-width="0" width="0.000283465" x="7.56" y="0.349999"/>
    <g transform="matrix(1, 0, 0, 1, 6.50999, 3.94999)">
     <g>
      <g transform="rotate(270)">
       <g>
        <text class="text" fill="#8c8c8c" font-family="'Droid Sans'" font-size="2.5" stroke="none" stroke-width="0" text-anchor="middle" x="0" y="0">2</text>
       </g>
      </g>
     </g>
    </g>
    <line class="pin" connectorname="-" id="connector0pin" stroke="#787878" stroke-linecap="round" stroke-width="0.699999" x1="7.56" x2="7.56" y1="21.95" y2="14.75"/>
    <g class="terminal" fill="none" height="0.000283465" id="connector0terminal" stroke="none" stroke-width="0" width="0.000283465" x="7.56" y="21.95"/>
    <g transform="matrix(1, 0, 0, 1, 6.50999, 18.35)">
     <g>
      <g transform="rotate(270)">
       <g>
        <text class="text" fill="#8c8c8c" font-family="'Droid Sans'" font-size="2.5" stroke="none" stroke-width="0" text-anchor="middle" x="0" y="0">1</text>
       </g>
      </g>
     </g>
    </g>
   </g>
  </g>
 </g>
 <g partID="855136650">
  <g transform="translate(43.8502,29.4061)">
   <g id="schematic" >
    <rect fill="none" height="57.599" id="part_symbol" stroke="#000000" stroke-width="0.72" width="43.1987" x="0.36"  y="7.5952"/>
    <text fill="#555555" font-family="'Droid Sans'" font-size="2.52" id="text52" x="30.4221"  y="5.46185">1</text>
    <text fill="#555555" font-family="'Droid Sans'" font-size="2.52" id="text56" x="46.4289"  y="20.3656">4</text>
    <text fill="#555555" font-family="'Droid Sans'" font-size="2.52" id="text58" x="23.2767"  y="5.55412">2</text>
    <text fill="#555555" font-family="'Droid Sans'" font-size="2.52" id="text60" x="16.0912"  y="6.19229">3</text>
    <text fill="#555555" font-family="'Droid Sans'" font-size="2.52" id="text62" x="46.3434"  y="27.4905">5</text>
    <text fill="#555555" font-family="'Droid Sans'" font-size="2.52" id="text64" x="46.3659"  y="34.9905">6</text>
    <text fill="#555555" font-family="'Droid Sans'" font-size="2.52" id="text66" x="46.3293"  y="42.116">7</text>
    <text fill="#555555" font-family="'Droid Sans'" font-size="2.52" id="text68" x="46.3717"  y="49.5955">8</text>
    <text fill="#555555" font-family="'Droid Sans'" font-size="2.52" id="text70" x="46.3982"  y="56.8764">9</text>
    <text fill="#000000" font-family="'Droid Sans'" font-size="4.32" id="text103" x="12.6239"  y="37.5593">Digispark</text>
    <text fill="#555555" font-family="'Droid Sans'" font-size="3.528" id="text81" x="18.7176"  y="12.4204">Gnd</text>
    <text fill="#555555" font-family="'Droid Sans'" font-size="3.528" id="text83" x="12.3738"  y="12.3353">Vin</text>
    <text fill="#555555" font-family="'Droid Sans'" font-size="3.528" id="text85" x="26.5826"  y="12.3221">Vcc</text>
    <text fill="#555555" font-family="'Droid Sans'" font-size="3.528" id="text89" x="38.1561"  y="23.2559">P0</text>
    <text fill="#555555" font-family="'Droid Sans'" font-size="3.528" id="text91" x="38.1647"  y="30.5045">P1</text>
    <text fill="#555555" font-family="'Droid Sans'" font-size="3.528" id="text93" x="38.1561"  y="37.6886">P2</text>
    <text fill="#555555" font-family="'Droid Sans'" font-size="3.528" id="text95" x="38.1647"  y="44.9088">P3</text>
    <text fill="#555555" font-family="'Droid Sans'" font-size="3.528" id="text95-9" x="38.1052"  y="52.1428">P4</text>
    <text fill="#555555" font-family="'Droid Sans'" font-size="3.528" id="text95-5" x="38.1645"  y="59.3277">P5</text>
    <line fill="none" id="connector0pin" stroke="#555555" stroke-linecap="round" stroke-width="0.72" x1="29.1547" x2="29.1547"  y1="7.22905" y2="0.399309"/>
    <g fill="none" height="0.72" id="connector0terminal" stroke="none" width="0.72" x="28.8"  y="0.0341818"/>
    <line fill="none" id="connector1pin" stroke="#555555" stroke-linecap="round" stroke-width="0.72" x1="21.96" x2="21.96"  y1="7.22905" y2="0.365127"/>
    <g fill="none" height="0.72" id="connector1terminal" stroke="none" width="0.72" x="21.6"  y="0.0341818"/>
    <line fill="none" id="connector2pin" stroke="#555555" stroke-linecap="round" stroke-width="0.72" x1="14.7548" x2="14.7548"  y1="0.382218" y2="7.24615"/>
    <g fill="none" height="0.72" id="connector2terminal" stroke="none" width="0.72" x="14.4"  y="0.0341813"/>
    <line fill="none" id="connector3pin" stroke="#555555" stroke-linecap="round" stroke-width="0.72" x1="43.9251" x2="50.7881"  y1="21.9941" y2="21.9941"/>
    <g fill="none" height="0.72" id="connector3terminal" stroke="none" width="0.72" x="50.4"  y="21.6342"/>
    <line fill="none" id="connector4pin" stroke="#555555" stroke-linecap="round" stroke-width="0.72" x1="43.9081" x2="50.7719"  y1="29.1941" y2="29.1941"/>
    <g fill="none" height="0.72" id="connector4terminal" stroke="none" width="0.72" x="50.4"  y="28.8342"/>
    <line fill="none" id="connector5pin" stroke="#555555" stroke-linecap="round" stroke-width="0.72" x1="43.9233" x2="50.7567"  y1="36.3772" y2="36.3772"/>
    <g fill="none" height="0.72" id="connector5terminal" stroke="none" width="0.72" x="50.4"  y="36.0172"/>
    <line fill="none" id="connector6pin" stroke="#555555" stroke-linecap="round" stroke-width="0.72" x1="43.9233" x2="50.7567"  y1="43.5772" y2="43.5772"/>
    <g fill="none" height="0.72" id="connector6terminal" stroke="none" width="0.72" x="50.4"  y="43.2172"/>
    <line fill="none" id="connector7pin" stroke="#555555" stroke-linecap="round" stroke-width="0.72" x1="43.9251" x2="50.7561"  y1="50.773" y2="50.7773"/>
    <g fill="none" height="0.72" id="connector7terminal" stroke="none" width="0.72" x="50.4"  y="50.4172"/>
    <line fill="none" id="connector8pin" stroke="#555555" stroke-linecap="round" stroke-width="0.72" x1="43.9251" x2="50.7561"  y1="57.9941" y2="57.9941"/>
    <g fill="none" height="0.72" id="connector8terminal" stroke="none" width="0.72" x="50.4"  y="57.6172"/>
    <text fill="#000000" font-family="'Droid Sans'" font-size="4.32" id="text48" x="17.9056"  y="45.0648">USB</text>
   </g>
  </g>
 </g>
 <g partID="855141930">
  <g transform="translate(163.993,19.5574)">
   <g gorn="0.1.1" id="schematic" >
    <rect fill="white" height="36" stroke="black" stroke-linecap="round" stroke-width="0.9" width="43.2" x="16.6677"  y="17.4331"/>
    <line fill="none" gorn="0.1.1.1" id="connector5pin" stroke="#787878" stroke-linecap="round" stroke-width="0.699874" x1="2.26772" x2="16.6677"  y1="31.8331" y2="31.8331"/>
    <path d="M19.8709,33.0803l-0.283465,-0.765354,-0.935433,0,-0.255118,0.765354,-0.340157,0,0.935433,-2.49449,0.283465,0,0.935433,2.49449,-0.340157,0zm-0.368504,-1.04882l-0.255118,-0.737008c0,0,-0.0283465,-0.0283465,-0.0283465,-0.0566929,0,-0.0283465,-0.0283465,-0.0566929,-0.0283465,-0.113386,0,-0.0283465,-0.0283465,-0.0566929,-0.0283465,-0.0850394,0,-0.0566929,-0.0283465,-0.0850394,-0.0283465,-0.113386,0,0.0283465,-0.0283465,0.0566929,-0.0283465,0.113386,0,0.0283465,-0.0283465,0.0566929,-0.0283465,0.0850394,-0.0283465,0.0566929,-0.0283465,0.0850394,-0.0283465,0.113386,-0.0283465,0.0283465,-0.0283465,0.0566929,-0.0283465,0.0566929l-0.255118,0.737008,0.737008,0z" fill="#555555" fill-rule="nonzero" />
    <path d="M22.3937,33.0803l-0.368504,0,-1.19055,-2.06929,-0.0283465,0c0.0283465,0.0850394,0.0283465,0.170079,0.0283465,0.283465,0,0.0566929,0,0.141732,0,0.226772,0.0283465,0.0850394,0.0283465,0.141732,0.0283465,0.198425l0,1.36063,-0.340157,0,0,-2.49449,0.39685,0,1.19055,2.06929,0,0c0,-0.0850394,0,-0.170079,0,-0.255118,0,-0.0566929,0,-0.0850394,0,-0.113386,0,-0.0566929,-0.0283465,-0.0850394,-0.0283465,-0.113386,0,-0.0566929,0,-0.0850394,0,-0.113386,0,-0.0283465,0,-0.0850394,0,-0.113386l0,-1.36063,0.311811,0,0,2.49449z" fill="#555555" fill-rule="nonzero" gorn="0.1.1.3" id="1" />
    <polygon fill="#555555" fill-rule="nonzero" gorn="0.1.1.4" id="2" points="23.811,33.0803,23.4992,33.0803,23.4992,30.8693,22.7906,30.8693,22.7906,30.5858,24.5197,30.5858,24.5197,30.8693,23.811,30.8693" />
    <g fill="none" gorn="0.1.1.5" height="0.699871" id="connector5terminal" text-anchor="start" width="0.699871" x="1.55906"  y="31.4929"/>
    <line fill="none" gorn="0.1.1.6" id="connector4pin" stroke="#787878" stroke-linecap="round" stroke-width="0.699874" x1="38.2677" x2="38.2677"  y1="3.03307" y2="17.4331"/>
    <path d="M36.9354,19.6724l0.340157,0,-0.850394,2.52283,-0.311811,0,-0.822047,-2.52283,0.340157,0,0.48189,1.5874c0.0566929,0.113386,0.0850394,0.226772,0.0850394,0.311811,0.0283465,0.0850394,0.0566929,0.198425,0.0850394,0.283465,0,-0.0850394,0.0283465,-0.198425,0.0566929,-0.283465,0.0283465,-0.0850394,0.0566929,-0.198425,0.0850394,-0.311811l0.510236,-1.5874z" fill="#555555" fill-rule="nonzero" />
    <path d="M38.5512,19.9276c-0.113386,0,-0.226772,0.0283465,-0.311811,0.0850394,-0.113386,0.0283465,-0.198425,0.113386,-0.255118,0.198425,-0.0850394,0.0850394,-0.141732,0.170079,-0.170079,0.311811,-0.0283465,0.113386,-0.0566929,0.255118,-0.0566929,0.425197,0,0.141732,0,0.283465,0.0566929,0.425197,0.0283465,0.113386,0.0850394,0.226772,0.141732,0.311811,0.0566929,0.0850394,0.141732,0.141732,0.255118,0.198425,0.0850394,0.0283465,0.198425,0.0566929,0.340157,0.0566929,0.113386,0,0.198425,0,0.283465,-0.0283465,0.113386,-0.0283465,0.198425,-0.0566929,0.283465,-0.0566929l0,0.255118c-0.0566929,0.0283465,-0.0850394,0.0283465,-0.141732,0.0566929,-0.0283465,0,-0.0850394,0.0283465,-0.141732,0.0283465,-0.0283465,0,-0.0850394,0.0283465,-0.141732,0.0283465,-0.0566929,0,-0.113386,0,-0.198425,0,-0.170079,0,-0.340157,-0.0283465,-0.48189,-0.0850394,-0.141732,-0.0850394,-0.255118,-0.170079,-0.340157,-0.283465,-0.0850394,-0.113386,-0.141732,-0.226772,-0.198425,-0.39685,-0.0283465,-0.170079,-0.0566929,-0.340157,-0.0566929,-0.538583,0,-0.170079,0.0283465,-0.340157,0.0850394,-0.510236,0.0283465,-0.141732,0.113386,-0.283465,0.198425,-0.39685,0.113386,-0.113386,0.226772,-0.198425,0.368504,-0.255118,0.141732,-0.0850394,0.311811,-0.113386,0.48189,-0.113386,0.141732,0,0.255118,0.0283465,0.368504,0.0566929,0.113386,0,0.198425,0.0566929,0.283465,0.0850394l-0.113386,0.283465c-0.0850394,-0.0283465,-0.170079,-0.0850394,-0.255118,-0.0850394,-0.0850394,-0.0283465,-0.170079,-0.0566929,-0.283465,-0.0566929z" fill="#555555" fill-rule="nonzero" gorn="0.1.1.8" id="1" />
    <path d="M40.5921,19.9276c-0.113386,0,-0.226772,0.0283465,-0.340157,0.0850394,-0.0850394,0.0283465,-0.170079,0.113386,-0.226772,0.198425,-0.0850394,0.0850394,-0.141732,0.170079,-0.170079,0.311811,-0.0566929,0.113386,-0.0566929,0.255118,-0.0566929,0.425197,0,0.141732,0,0.283465,0.0566929,0.425197,0.0283465,0.113386,0.0850394,0.226772,0.141732,0.311811,0.0566929,0.0850394,0.141732,0.141732,0.255118,0.198425,0.0850394,0.0283465,0.198425,0.0566929,0.340157,0.0566929,0.113386,0,0.198425,0,0.283465,-0.0283465,0.113386,-0.0283465,0.198425,-0.0566929,0.283465,-0.0566929l0,0.255118c-0.0566929,0.0283465,-0.0850394,0.0283465,-0.141732,0.0566929,-0.0283465,0,-0.0850394,0.0283465,-0.141732,0.0283465,-0.0283465,0,-0.0850394,0.0283465,-0.141732,0.0283465,-0.0566929,0,-0.113386,0,-0.198425,0,-0.170079,0,-0.340157,-0.0283465,-0.48189,-0.0850394,-0.141732,-0.0850394,-0.255118,-0.170079,-0.340157,-0.283465,-0.0850394,-0.113386,-0.141732,-0.226772,-0.198425,-0.39685,-0.0283465,-0.170079,-0.0566929,-0.340157,-0.0566929,-0.538583,0,-0.170079,0.0283465,-0.340157,0.0850394,-0.510236,0.0283465,-0.141732,0.113386,-0.283465,0.198425,-0.39685,0.113386,-0.113386,0.226772,-0.198425,0.368504,-0.255118,0.141732,-0.0850394,0.311811,-0.113386,0.48189,-0.113386,0.141732,0,0.255118,0.0283465,0.368504,0.0566929,0.113386,0,0.198425,0.0566929,0.283465,0.0850394l-0.113386,0.283465c-0.0850394,-0.0283465,-0.170079,-0.0850394,-0.255118,-0.0850394,-0.0850394,-0.0283465,-0.170079,-0.0566929,-0.283465,-0.0566929z" fill="#555555" fill-rule="nonzero" gorn="0.1.1.9" id="2" />
    <g fill="none" gorn="0.1.1.10" height="0.699871" id="connector4terminal" text-anchor="end" width="0.699871" x="37.9276"  y="2.32441"/>
    <line fill="none" gorn="0.1.1.11" id="connector3pin" stroke="#787878" stroke-linecap="round" stroke-width="0.699874" x1="31.0677" x2="31.0677"  y1="53.4331" y2="67.8331"/>
    <path d="M28.715,50.7118l0.822047,0,0,1.2189c-0.0566929,0.0283465,-0.113386,0.0283465,-0.170079,0.0566929,-0.0566929,0,-0.141732,0.0283465,-0.198425,0.0283465,-0.0566929,0.0283465,-0.141732,0.0283465,-0.226772,0.0283465,-0.0566929,0,-0.141732,0.0283465,-0.226772,0.0283465,-0.170079,0,-0.340157,-0.0566929,-0.48189,-0.113386,-0.141732,-0.0566929,-0.255118,-0.141732,-0.340157,-0.255118,-0.0850394,-0.113386,-0.170079,-0.226772,-0.226772,-0.39685,-0.0283465,-0.170079,-0.0566929,-0.340157,-0.0566929,-0.538583,0,-0.198425,0.0283465,-0.368504,0.0850394,-0.538583,0.0283465,-0.141732,0.113386,-0.283465,0.226772,-0.39685,0.113386,-0.113386,0.226772,-0.198425,0.368504,-0.255118,0.170079,-0.0566929,0.340157,-0.0850394,0.538583,-0.0850394,0.113386,0,0.255118,0,0.368504,0.0283465,0.113386,0.0283465,0.226772,0.0566929,0.311811,0.113386l-0.113386,0.283465c-0.0566929,-0.0283465,-0.0850394,-0.0283465,-0.141732,-0.0566929,-0.0566929,-0.0283465,-0.0850394,-0.0283465,-0.141732,-0.0566929,-0.0566929,0,-0.113386,0,-0.170079,-0.0283465,-0.0283465,0,-0.0850394,0,-0.141732,0,-0.141732,0,-0.255118,0.0283465,-0.368504,0.0566929,-0.113386,0.0566929,-0.198425,0.113386,-0.283465,0.198425,-0.0566929,0.0850394,-0.113386,0.198425,-0.141732,0.311811,-0.0566929,0.141732,-0.0566929,0.283465,-0.0566929,0.425197,0,0.141732,0,0.283465,0.0283465,0.425197,0.0283465,0.113386,0.0850394,0.226772,0.170079,0.311811,0.0566929,0.0850394,0.141732,0.141732,0.255118,0.198425,0.113386,0.0566929,0.226772,0.0850394,0.39685,0.0850394,0.0283465,0,0.0850394,0,0.113386,-0.0283465,0.0566929,0,0.0850394,0,0.141732,0,0.0283465,0,0.0566929,0,0.0850394,0,0.0283465,-0.0283465,0.0566929,-0.0283465,0.0850394,-0.0283465l0,-0.737008,-0.510236,0,0,-0.283465z" fill="#555555" fill-rule="nonzero" />
    <path d="M32.0031,52.0157l-0.368504,0,-1.19055,-2.06929,-0.0283465,0c0.0283465,0.0850394,0.0283465,0.198425,0.0283465,0.283465,0,0.0566929,0,0.141732,0,0.226772,0.0283465,0.0850394,0.0283465,0.141732,0.0283465,0.198425l0,1.36063,-0.340157,0,0,-2.49449,0.39685,0,1.19055,2.06929,0,0c0,-0.0850394,0,-0.170079,0,-0.255118,0,-0.0566929,0,-0.0850394,0,-0.113386,-0.0283465,-0.0566929,-0.0283465,-0.0850394,-0.0283465,-0.113386,0,-0.0566929,0,-0.0850394,0,-0.113386,0,-0.0283465,0,-0.0850394,0,-0.113386l0,-1.36063,0.311811,0,0,2.49449z" fill="#555555" fill-rule="nonzero" gorn="0.1.1.13" id="1" />
    <path d="M34.526,50.7402c0,0.226772,-0.0283465,0.39685,-0.0850394,0.566929,-0.0566929,0.170079,-0.113386,0.283465,-0.226772,0.39685,-0.113386,0.113386,-0.226772,0.198425,-0.368504,0.226772,-0.170079,0.0566929,-0.340157,0.0850394,-0.538583,0.0850394l-0.623622,0,0,-2.49449,0.708661,0c0.170079,0,0.340157,0.0283465,0.48189,0.0850394,0.141732,0.0566929,0.255118,0.141732,0.340157,0.226772,0.113386,0.113386,0.198425,0.226772,0.226772,0.39685,0.0566929,0.141732,0.0850394,0.311811,0.0850394,0.510236zm-0.340157,0.0283465c0,-0.170079,0,-0.311811,-0.0566929,-0.425197,-0.0283465,-0.141732,-0.0850394,-0.226772,-0.141732,-0.311811,-0.0850394,-0.0850394,-0.170079,-0.141732,-0.283465,-0.170079,-0.0850394,-0.0566929,-0.226772,-0.0566929,-0.340157,-0.0566929l-0.340157,0,0,1.95591,0.255118,0c0.311811,0,0.538583,-0.0850394,0.680315,-0.255118,0.170079,-0.170079,0.226772,-0.425197,0.226772,-0.737008z" fill="#555555" fill-rule="nonzero" gorn="0.1.1.14" id="2" />
    <g fill="none" gorn="0.1.1.15" height="0.699871" id="connector3terminal" text-anchor="start" width="0.699871" x="30.7276"  y="67.8331"/>
    <line fill="none" gorn="0.1.1.16" id="connector2pin" stroke="#787878" stroke-linecap="round" stroke-width="0.699874" x1="59.8677" x2="74.2677"  y1="39.0331" y2="39.0331"/>
    <path d="M54.9071,39.2598l0,1.02047,-0.311811,0,0,-2.49449,0.595276,0c0.311811,0,0.538583,0.0566929,0.680315,0.170079,0.141732,0.113386,0.226772,0.311811,0.226772,0.538583,0,0.0850394,-0.0283465,0.170079,-0.0566929,0.255118,-0.0283465,0.0850394,-0.0566929,0.141732,-0.113386,0.198425,-0.0283465,0.0566929,-0.0850394,0.0850394,-0.141732,0.141732,-0.0566929,0.0283465,-0.113386,0.0566929,-0.198425,0.0850394l0.680315,1.10551,-0.368504,0,-0.595276,-1.02047,-0.39685,0zm0,-0.283465l0.283465,0c0.0850394,0,0.198425,0,0.255118,-0.0283465,0.0850394,-0.0283465,0.141732,-0.0566929,0.170079,-0.0850394,0.0566929,-0.0283465,0.0850394,-0.0850394,0.113386,-0.141732,0.0283465,-0.0566929,0.0283465,-0.141732,0.0283465,-0.226772,0,-0.0566929,-0.0283465,-0.141732,-0.0283465,-0.198425,-0.0283465,-0.0566929,-0.0566929,-0.113386,-0.113386,-0.141732,-0.0566929,-0.0283465,-0.113386,-0.0566929,-0.170079,-0.0850394,-0.0850394,0,-0.170079,0,-0.255118,0l-0.283465,0,0,0.907087z" fill="#555555" fill-rule="nonzero" />
    <polygon fill="#555555" fill-rule="nonzero" gorn="0.1.1.18" id="1" points="58.2236,40.2803,57.8835,40.2803,57.2598,39.2031,56.6362,40.2803,56.3244,40.2803,57.0898,38.9764,56.3811,37.7858,56.7213,37.7858,57.2882,38.7496,57.8551,37.7858,58.1669,37.7858,57.4583,38.9764" />
    <g fill="none" gorn="0.1.1.19" height="0.699871" id="connector2terminal" text-anchor="end" width="0.699871" x="74.2677"  y="38.6929"/>
    <line fill="none" gorn="0.1.1.20" id="connector1pin" stroke="#787878" stroke-linecap="round" stroke-width="0.699874" x1="59.8677" x2="74.2677"  y1="31.8331" y2="31.8331"/>
    <polygon fill="#555555" fill-rule="nonzero" points="55.3323,33.0803,54.9921,33.0803,54.9921,30.8693,54.2835,30.8693,54.2835,30.5858,56.0409,30.5858,56.0409,30.8693,55.3323,30.8693" />
    <polygon fill="#555555" fill-rule="nonzero" gorn="0.1.1.22" id="1" points="57.9969,33.0803,57.6283,33.0803,57.0047,32.0031,56.3811,33.0803,56.0693,33.0803,56.8346,31.7764,56.126,30.5858,56.4661,30.5858,57.0331,31.5496,57.6,30.5858,57.9118,30.5858,57.2031,31.7764" />
    <g fill="none" gorn="0.1.1.23" height="0.699871" id="connector1terminal" text-anchor="end" width="0.699871" x="74.2677"  y="31.4929"/>
    <line fill="none" gorn="0.1.1.24" id="connector0pin" stroke="#787878" stroke-linecap="round" stroke-width="0.699874" x1="45.4394" x2="45.4394"  y1="53.4331" y2="67.8331"/>
    <path d="M44.3055,51.3638c0,0.113386,-0.0283465,0.198425,-0.0566929,0.283465,-0.0566929,0.0850394,-0.113386,0.170079,-0.170079,0.226772,-0.0850394,0.0566929,-0.170079,0.113386,-0.283465,0.141732,-0.0850394,0.0283465,-0.226772,0.0566929,-0.340157,0.0566929,-0.141732,0,-0.255118,-0.0283465,-0.368504,-0.0566929,-0.113386,0,-0.198425,-0.0283465,-0.255118,-0.0850394l0,-0.283465c0.0283465,0,0.0566929,0.0283465,0.113386,0.0566929,0.0566929,0,0.113386,0.0283465,0.170079,0.0283465,0.0566929,0.0283465,0.113386,0.0283465,0.170079,0.0283465,0.0566929,0.0283465,0.113386,0.0283465,0.170079,0.0283465,0.170079,0,0.311811,-0.0283465,0.39685,-0.113386,0.0850394,-0.0566929,0.113386,-0.170079,0.113386,-0.283465,0,-0.0566929,0,-0.113386,0,-0.170079,-0.0283465,-0.0283465,-0.0566929,-0.0850394,-0.0850394,-0.113386,-0.0566929,-0.0566929,-0.113386,-0.0850394,-0.170079,-0.113386,-0.0850394,-0.0283465,-0.170079,-0.0850394,-0.283465,-0.113386,-0.0850394,-0.0566929,-0.170079,-0.0850394,-0.255118,-0.141732,-0.0566929,-0.0566929,-0.141732,-0.0850394,-0.170079,-0.170079,-0.0566929,-0.0566929,-0.0850394,-0.113386,-0.113386,-0.198425,-0.0283465,-0.0566929,-0.0283465,-0.141732,-0.0283465,-0.255118,0,-0.0850394,0,-0.170079,0.0566929,-0.255118,0.0283465,-0.0850394,0.0850394,-0.141732,0.141732,-0.198425,0.0566929,-0.0566929,0.141732,-0.113386,0.226772,-0.141732,0.113386,-0.0283465,0.198425,-0.0283465,0.311811,-0.0283465,0.141732,0,0.255118,0,0.368504,0.0283465,0.113386,0.0283465,0.198425,0.0566929,0.283465,0.113386l-0.113386,0.255118c-0.0566929,-0.0283465,-0.141732,-0.0566929,-0.255118,-0.0850394,-0.0850394,-0.0283465,-0.170079,-0.0283465,-0.283465,-0.0283465,-0.141732,0,-0.226772,0.0283465,-0.311811,0.0850394,-0.0850394,0.0566929,-0.113386,0.170079,-0.113386,0.255118,0,0.0850394,0,0.141732,0.0283465,0.170079,0,0.0566929,0.0283465,0.113386,0.0850394,0.141732,0.0283465,0.0283465,0.0850394,0.0566929,0.141732,0.113386,0.0850394,0.0283465,0.141732,0.0566929,0.255118,0.0850394,0.0850394,0.0566929,0.198425,0.0850394,0.255118,0.141732,0.0850394,0.0283465,0.141732,0.0850394,0.198425,0.141732,0.0566929,0.0566929,0.0850394,0.113386,0.113386,0.198425,0.0283465,0.0566929,0.0566929,0.141732,0.0566929,0.255118z" fill="#555555" fill-rule="nonzero" />
    <polygon fill="#555555" fill-rule="nonzero" gorn="0.1.1.26" id="1" points="46.0913,52.0157,44.7874,52.0157,44.7874,49.5213,46.0913,49.5213,46.0913,49.8047,45.1276,49.8047,45.1276,50.5701,46.0346,50.5701,46.0346,50.8535,45.1276,50.8535,45.1276,51.7323,46.0913,51.7323" />
    <polygon fill="#555555" fill-rule="nonzero" gorn="0.1.1.27" id="2" points="47.3669,52.0157,47.0551,52.0157,47.0551,49.8047,46.3465,49.8047,46.3465,49.5213,48.0756,49.5213,48.0756,49.8047,47.3669,49.8047" />
    <g fill="none" gorn="0.1.1.28" height="0.699871" id="connector0terminal" text-anchor="end" width="0.699871" x="45.0992"  y="67.8331"/>
    <polygon fill="black" fill-rule="nonzero" gorn="0.1.1.29" id="label" points="34.9512,36.9638,34.5827,36.9638,34.5827,35.5465,33.1937,35.5465,33.1937,36.9638,32.7969,36.9638,32.7969,33.9024,33.1937,33.9024,33.1937,35.2063,34.5827,35.2063,34.5827,33.9024,34.9512,33.9024" />
    <path d="M37.0205,34.2142c-0.141732,0,-0.283465,0.0283465,-0.39685,0.0850394,-0.141732,0.0566929,-0.226772,0.141732,-0.311811,0.226772,-0.0850394,0.113386,-0.170079,0.255118,-0.198425,0.39685,-0.0566929,0.141732,-0.0850394,0.311811,-0.0850394,0.510236,0,0.198425,0.0283465,0.368504,0.0850394,0.510236,0.0283465,0.170079,0.0850394,0.283465,0.170079,0.39685,0.0850394,0.0850394,0.170079,0.170079,0.311811,0.226772,0.113386,0.0566929,0.255118,0.0850394,0.425197,0.0850394,0.113386,0,0.226772,0,0.340157,-0.0283465,0.113386,-0.0283465,0.226772,-0.0566929,0.340157,-0.0850394l0,0.340157c-0.0566929,0,-0.113386,0.0283465,-0.170079,0.0566929,-0.0566929,0,-0.113386,0.0283465,-0.170079,0.0283465,-0.0566929,0,-0.113386,0.0283465,-0.198425,0.0283465,-0.0566929,0,-0.141732,0,-0.198425,0,-0.226772,0,-0.425197,-0.0283465,-0.595276,-0.113386,-0.170079,-0.0850394,-0.311811,-0.170079,-0.425197,-0.311811,-0.113386,-0.141732,-0.170079,-0.311811,-0.226772,-0.510236,-0.0566929,-0.170079,-0.0850394,-0.39685,-0.0850394,-0.623622,0,-0.226772,0.0283465,-0.453543,0.0850394,-0.623622,0.0566929,-0.198425,0.141732,-0.368504,0.255118,-0.510236,0.141732,-0.141732,0.283465,-0.226772,0.453543,-0.311811,0.170079,-0.0850394,0.368504,-0.113386,0.595276,-0.113386,0.141732,0,0.283465,0.0283465,0.425197,0.0566929,0.141732,0.0283465,0.255118,0.0566929,0.368504,0.113386l-0.170079,0.340157c-0.0850394,-0.0566929,-0.170079,-0.0850394,-0.283465,-0.113386,-0.113386,-0.0283465,-0.226772,-0.0566929,-0.340157,-0.0566929z" fill="black" fill-rule="nonzero" gorn="0.1.1.30" id="1" />
    <polygon fill="black" fill-rule="nonzero" gorn="0.1.1.31" id="2" points="38.0976,35.9717,38.0976,35.6315,39.1181,35.6315,39.1181,35.9717" />
    <path d="M40.7622,36.9638l-0.340157,0,0,-1.89921c0,-0.0566929,0,-0.141732,0,-0.198425,0,-0.0566929,0,-0.141732,0,-0.198425,0,-0.0850394,0,-0.141732,0,-0.198425,0,-0.0566929,0,-0.113386,0,-0.170079,-0.0283465,0.0283465,-0.0283465,0.0566929,-0.0566929,0.0566929,-0.0283465,0.0283465,-0.0283465,0.0566929,-0.0566929,0.0566929,-0.0283465,0.0283465,-0.0283465,0.0566929,-0.0566929,0.0566929,-0.0283465,0.0283465,-0.0566929,0.0566929,-0.0850394,0.0850394l-0.311811,0.226772,-0.198425,-0.255118,0.793701,-0.623622,0.311811,0,0,3.06142z" fill="black" fill-rule="nonzero" gorn="0.1.1.32" id="3" />
    <path d="M43.7386,36.9638l-1.89921,0,0,-0.340157,0.737008,-0.793701c0.0850394,-0.113386,0.198425,-0.198425,0.255118,-0.311811,0.0850394,-0.0850394,0.170079,-0.170079,0.226772,-0.255118,0.0566929,-0.0850394,0.0850394,-0.170079,0.113386,-0.283465,0.0566929,-0.0850394,0.0566929,-0.170079,0.0566929,-0.283465,0,-0.0850394,0,-0.141732,-0.0283465,-0.198425,-0.0283465,-0.0850394,-0.0566929,-0.141732,-0.113386,-0.170079,-0.0283465,-0.0566929,-0.0850394,-0.0850394,-0.141732,-0.113386,-0.0566929,0,-0.141732,-0.0283465,-0.198425,-0.0283465,-0.141732,0,-0.255118,0.0283465,-0.368504,0.0850394,-0.113386,0.0566929,-0.198425,0.113386,-0.283465,0.198425l-0.226772,-0.226772c0.0566929,-0.0566929,0.113386,-0.113386,0.170079,-0.141732,0.0850394,-0.0566929,0.141732,-0.0850394,0.226772,-0.113386,0.0566929,-0.0283465,0.141732,-0.0566929,0.226772,-0.0850394,0.0850394,-0.0283465,0.170079,-0.0283465,0.255118,-0.0283465,0.141732,0,0.255118,0.0283465,0.368504,0.0566929,0.0850394,0.0283465,0.198425,0.0850394,0.255118,0.170079,0.0850394,0.0566929,0.141732,0.141732,0.170079,0.255118,0.0566929,0.0850394,0.0850394,0.198425,0.0850394,0.340157,0,0.113386,-0.0283465,0.226772,-0.0566929,0.311811,-0.0566929,0.113386,-0.0850394,0.226772,-0.170079,0.340157,-0.0566929,0.0850394,-0.141732,0.198425,-0.226772,0.283465,-0.0850394,0.113386,-0.170079,0.226772,-0.283465,0.340157l-0.595276,0.623622,0,0,1.44567,0,0,0.368504z" fill="black" fill-rule="nonzero" gorn="0.1.1.33" id="4" />
   </g>
  </g>
 </g>
 <g partID="855136160">
  <line stroke="#cc1414" stroke-linecap="round" stroke-width="0.699998" x1="80.8784" x2="88.0905" y1="166.619" y2="166.6"/>
 </g>
 <circle cx="80.8784" cy="166.619" fill="black" r="0.72" stroke="none" stroke-width="0"/>
 <g partID="855136170">
  <line stroke="#cc1414" stroke-linecap="round" stroke-width="0.699998" x1="80.8784" x2="80.8784" y1="152.279" y2="166.619"/>
 </g>
 <circle cx="80.8784" cy="152.279" fill="black" r="0.72" stroke="none" stroke-width="0"/>
 <circle cx="80.8784" cy="166.619" fill="black" r="0.72" stroke="none" stroke-width="0"/>
 <g partID="855136180">
  <line stroke="#cc1414" stroke-linecap="round" stroke-width="0.699998" x1="44.8901" x2="80.8784" y1="152.2" y2="152.279"/>
 </g>
 <circle cx="80.8784" cy="152.279" fill="black" r="0.72" stroke="none" stroke-width="0"/>
 <g partID="855136190">
  <line stroke="#404040" stroke-linecap="round" stroke-width="0.699998" x1="80.8784" x2="80.8784" y1="180.958" y2="173.788"/>
 </g>
 <circle cx="80.8784" cy="180.958" fill="black" r="0.72" stroke="none" stroke-width="0"/>
 <circle cx="80.8784" cy="173.788" fill="black" r="0.72" stroke="none" stroke-width="0"/>
 <g partID="855136200">
  <line stroke="#404040" stroke-linecap="round" stroke-width="0.699998" x1="80.8784" x2="88.0905" y1="173.788" y2="173.8"/>
 </g>
 <circle cx="80.8784" cy="173.788" fill="black" r="0.72" stroke="none" stroke-width="0"/>
 <g partID="855136210">
  <line stroke="#404040" stroke-linecap="round" stroke-width="0.699998" x1="44.8901" x2="80.8784" y1="181" y2="180.958"/>
 </g>
 <circle cx="80.8784" cy="180.958" fill="black" r="0.72" stroke="none" stroke-width="0"/>
 <g partID="855136220">
  <line stroke="#404040" stroke-linecap="round" stroke-width="0.699998" x1="202.61" x2="180.989" y1="181" y2="181.096"/>
 </g>
 <circle cx="202.61" cy="181" fill="black" r="1.44" stroke="none" stroke-width="0"/>
 <circle cx="180.989" cy="181.096" fill="black" r="0.72" stroke="none" stroke-width="0"/>
 <g partID="855136230">
  <line stroke="#404040" stroke-linecap="round" stroke-width="0.699998" x1="180.984" x2="159.41" y1="173.827" y2="173.8"/>
 </g>
 <circle cx="180.984" cy="173.827" fill="black" r="0.72" stroke="none" stroke-width="0"/>
 <g partID="855136240">
  <line stroke="#404040" stroke-linecap="round" stroke-width="0.699998" x1="180.989" x2="180.984" y1="181.096" y2="173.827"/>
 </g>
 <circle cx="180.989" cy="181.096" fill="black" r="0.72" stroke="none" stroke-width="0"/>
 <circle cx="180.984" cy="173.827" fill="black" r="0.72" stroke="none" stroke-width="0"/>
 <g partID="855136800">
  <line stroke="#cc1414" stroke-linecap="round" stroke-width="0.699998" x1="73.1003" x2="73.0102" y1="1.05696" y2="29.8003"/>
 </g>
 <circle cx="73.1003" cy="1.05696" fill="black" r="0.72" stroke="none" stroke-width="0"/>
 <g partID="855136870">
  <line stroke="#cc1414" stroke-linecap="round" stroke-width="0.699998" x1="202.523" x2="73.1003" y1="1.05696" y2="1.05696"/>
 </g>
 <circle cx="202.523" cy="1.05696" fill="black" r="0.72" stroke="none" stroke-width="0"/>
 <circle cx="73.1003" cy="1.05696" fill="black" r="0.72" stroke="none" stroke-width="0"/>
 <g partID="855137010">
  <line stroke="#404040" stroke-linecap="round" stroke-width="0.699998" x1="65.8953" x2="65.8102" y1="1.05696" y2="29.8003"/>
 </g>
 <g partID="855137080">
  <line stroke="#404040" stroke-linecap="round" stroke-width="0.699998" x1="1.05023" x2="65.8953" y1="1.05696" y2="1.05696"/>
 </g>
 <g partID="855137150">
  <line stroke="#404040" stroke-linecap="round" stroke-width="0.699998" x1="1.05023" x2="1.05023" y1="109.132" y2="1.05696"/>
 </g>
 <g partID="855141280">
  <line stroke="#cc1414" stroke-linecap="round" stroke-width="0.699998" x1="180.908" x2="202.523" y1="159.3" y2="159.3"/>
 </g>
 <circle cx="180.908" cy="159.3" fill="black" r="0.72" stroke="none" stroke-width="0"/>
 <circle cx="202.523" cy="159.3" fill="black" r="0.72" stroke="none" stroke-width="0"/>
 <g partID="855139200">
  <line stroke="#cc1414" stroke-linecap="round" stroke-width="0.699998" x1="202.523" x2="260.164" y1="159.3" y2="159.3"/>
 </g>
 <circle cx="202.523" cy="159.3" fill="black" r="0.72" stroke="none" stroke-width="0"/>
 <circle cx="260.164" cy="159.3" fill="black" r="0.72" stroke="none" stroke-width="0"/>
 <g partID="855139130">
  <line stroke="#cc1414" stroke-linecap="round" stroke-width="0.699998" x1="181.09" x2="180.908" y1="166.51" y2="159.3"/>
 </g>
 <circle cx="181.09" cy="166.51" fill="black" r="0.72" stroke="none" stroke-width="0"/>
 <circle cx="180.908" cy="159.3" fill="black" r="0.72" stroke="none" stroke-width="0"/>
 <g partID="855139060">
  <line stroke="#cc1414" stroke-linecap="round" stroke-width="0.699998" x1="159.41" x2="181.09" y1="166.6" y2="166.51"/>
 </g>
 <circle cx="181.09" cy="166.51" fill="black" r="0.72" stroke="none" stroke-width="0"/>
 <g partID="855141390">
  <line stroke="#cc1414" stroke-linecap="round" stroke-width="0.699998" x1="260.164" x2="202.523" y1="1.05696" y2="1.05696"/>
 </g>
 <circle cx="260.164" cy="1.05696" fill="black" r="0.72" stroke="none" stroke-width="0"/>
 <circle cx="202.523" cy="1.05696" fill="black" r="1.44" stroke="none" stroke-width="0"/>
 <g partID="855141500">
  <line stroke="#cc1414" stroke-linecap="round" stroke-width="0.699998" x1="260.164" x2="260.164" y1="159.3" y2="1.05696"/>
 </g>
 <circle cx="260.164" cy="159.3" fill="black" r="0.72" stroke="none" stroke-width="0"/>
 <circle cx="260.164" cy="1.05696" fill="black" r="0.72" stroke="none" stroke-width="0"/>
 <g partID="855140630">
  <line stroke="#404040" stroke-linecap="round" stroke-width="0.699998" x1="1.05023" x2="1.05023" y1="109.132" y2="195.325"/>
 </g>
 <circle cx="1.05023" cy="109.132" fill="black" r="0.72" stroke="none" stroke-width="0"/>
 <circle cx="1.05023" cy="195.325" fill="black" r="0.72" stroke="none" stroke-width="0"/>
 <g partID="855140820">
  <line stroke="#404040" stroke-linecap="round" stroke-width="0.699998" x1="1.05023" x2="188.21" y1="195.325" y2="195.4"/>
 </g>
 <circle cx="1.05023" cy="195.325" fill="black" r="0.72" stroke="none" stroke-width="0"/>
 <circle cx="188.21" cy="195.4" fill="black" r="0.72" stroke="none" stroke-width="0"/>
 <g partID="855141010">
  <line stroke="#404040" stroke-linecap="round" stroke-width="0.699998" x1="202.523" x2="202.61" y1="195.325" y2="181"/>
 </g>
 <circle cx="202.523" cy="195.325" fill="black" r="0.72" stroke="none" stroke-width="0"/>
 <circle cx="202.61" cy="181" fill="black" r="1.44" stroke="none" stroke-width="0"/>
 <g partID="855141610">
  <line stroke="#404040" stroke-linecap="round" stroke-width="0.699998" x1="188.21" x2="202.523" y1="195.4" y2="195.325"/>
 </g>
 <circle cx="188.21" cy="195.4" fill="black" r="0.72" stroke="none" stroke-width="0"/>
 <circle cx="202.523" cy="195.325" fill="black" r="0.72" stroke="none" stroke-width="0"/>
 <g partID="855141960">
  <line stroke="#404040" stroke-linecap="round" stroke-width="0.699998" x1="1.05023" x2="195.318" y1="109.132" y2="109.132"/>
 </g>
 <circle cx="1.05023" cy="109.132" fill="black" r="0.72" stroke="none" stroke-width="0"/>
 <circle cx="195.318" cy="109.132" fill="black" r="0.72" stroke="none" stroke-width="0"/>
 <g partID="855142110">
  <line stroke="#404040" stroke-linecap="round" stroke-width="0.699998" x1="195.318" x2="195.07" y1="109.132" y2="87.7404"/>
 </g>
 <circle cx="195.318" cy="109.132" fill="black" r="0.72" stroke="none" stroke-width="0"/>
 <g partID="855142280">
  <line stroke="#cc1414" stroke-linecap="round" stroke-width="0.699998" x1="202.523" x2="202.61" y1="1.05696" y2="8.20025"/>
 </g>
 <circle cx="202.523" cy="1.05696" fill="black" r="0.72" stroke="none" stroke-width="0"/>
 <circle cx="202.61" cy="8.20025" fill="black" r="0.72" stroke="none" stroke-width="0"/>
 <g partID="855143620">
  <line stroke="#404040" stroke-linecap="round" stroke-width="0.699998" x1="202.61" x2="202.27" y1="8.20025" y2="22.2318"/>
 </g>
 <circle cx="202.61" cy="8.20025" fill="black" r="0.72" stroke="none" stroke-width="0"/>
 <g partID="855142390">
  <line stroke="#25cc35" stroke-linecap="round" stroke-width="0.699998" x1="94.6102" x2="101.92" y1="51.4003" y2="51.492"/>
 </g>
 <circle cx="101.92" cy="51.492" fill="black" r="0.72" stroke="none" stroke-width="0"/>
 <g partID="855142460">
  <line stroke="#25cc35" stroke-linecap="round" stroke-width="0.699998" x1="238.548" x2="238.61" y1="29.877" y2="51.4003"/>
 </g>
 <circle cx="238.548" cy="29.877" fill="black" r="0.72" stroke="none" stroke-width="0"/>
 <g partID="855142530">
  <line stroke="#25cc35" stroke-linecap="round" stroke-width="0.699998" x1="101.92" x2="101.92" y1="51.492" y2="29.877"/>
 </g>
 <circle cx="101.92" cy="51.492" fill="black" r="0.72" stroke="none" stroke-width="0"/>
 <circle cx="101.92" cy="29.877" fill="black" r="0.72" stroke="none" stroke-width="0"/>
 <g partID="855142600">
  <line stroke="#25cc35" stroke-linecap="round" stroke-width="0.699998" x1="101.92" x2="238.548" y1="29.877" y2="29.877"/>
 </g>
 <circle cx="101.92" cy="29.877" fill="black" r="0.72" stroke="none" stroke-width="0"/>
 <circle cx="238.548" cy="29.877" fill="black" r="0.72" stroke="none" stroke-width="0"/>
 <g partID="855142670">
  <line stroke="#ff7300" stroke-linecap="round" stroke-width="0.699998" x1="94.6102" x2="101.92" y1="58.6003" y2="58.697"/>
 </g>
 <circle cx="101.92" cy="58.697" fill="black" r="0.72" stroke="none" stroke-width="0"/>
 <g partID="855142740">
  <line stroke="#ff7300" stroke-linecap="round" stroke-width="0.699998" x1="238.548" x2="238.61" y1="101.927" y2="58.6003"/>
 </g>
 <circle cx="238.548" cy="101.927" fill="black" r="0.72" stroke="none" stroke-width="0"/>
 <g partID="855142810">
  <line stroke="#ff7300" stroke-linecap="round" stroke-width="0.699998" x1="101.92" x2="101.92" y1="58.697" y2="101.927"/>
 </g>
 <circle cx="101.92" cy="58.697" fill="black" r="0.72" stroke="none" stroke-width="0"/>
 <circle cx="101.92" cy="101.927" fill="black" r="0.72" stroke="none" stroke-width="0"/>
 <g partID="855142880">
  <line stroke="#ff7300" stroke-linecap="round" stroke-width="0.699998" x1="101.92" x2="238.548" y1="101.927" y2="101.927"/>
 </g>
 <circle cx="101.92" cy="101.927" fill="black" r="0.72" stroke="none" stroke-width="0"/>
 <circle cx="238.548" cy="101.927" fill="black" r="0.72" stroke="none" stroke-width="0"/>
 <g partID="855143170">
  <line stroke="#418dd9" stroke-linecap="round" stroke-width="0.699998" x1="94.6102" x2="137.678" y1="65.7833" y2="65.902"/>
 </g>
 <circle cx="137.678" cy="65.902" fill="black" r="0.72" stroke="none" stroke-width="0"/>
 <g partID="855143240">
  <line stroke="#418dd9" stroke-linecap="round" stroke-width="0.699998" x1="209.728" x2="209.442" y1="94.722" y2="87.7404"/>
 </g>
 <circle cx="209.728" cy="94.722" fill="black" r="0.72" stroke="none" stroke-width="0"/>
 <g partID="855143310">
  <line stroke="#418dd9" stroke-linecap="round" stroke-width="0.699998" x1="137.678" x2="137.678" y1="65.902" y2="94.722"/>
 </g>
 <circle cx="137.678" cy="65.902" fill="black" r="0.72" stroke="none" stroke-width="0"/>
 <circle cx="137.678" cy="94.722" fill="black" r="0.72" stroke="none" stroke-width="0"/>
 <g partID="855143380">
  <line stroke="#418dd9" stroke-linecap="round" stroke-width="0.699998" x1="137.678" x2="209.728" y1="94.722" y2="94.722"/>
 </g>
 <circle cx="137.678" cy="94.722" fill="black" r="0.72" stroke="none" stroke-width="0"/>
 <circle cx="209.728" cy="94.722" fill="black" r="0.72" stroke="none" stroke-width="0"/>
 <g partID="855143480">
  <line stroke="#404040" stroke-linecap="round" stroke-width="0.699998" x1="165.902" x2="166.498" y1="51.4003" y2="87.517"/>
 </g>
 <circle cx="166.498" cy="87.517" fill="black" r="0.72" stroke="none" stroke-width="0"/>
 <g partID="855143550">
  <line stroke="#404040" stroke-linecap="round" stroke-width="0.699998" x1="166.498" x2="152.21" y1="87.517" y2="87.4003"/>
 </g>
 <circle cx="166.498" cy="87.517" fill="black" r="0.72" stroke="none" stroke-width="0"/>
 <g id="partLabel" partID="855136140">
  <g transform="translate(24.4409,163.135)">
   <g fill="#000000" fill-opacity="1" font-family="'DroidSans'" font-size="5.000" font-style="normal" font-weight="normal" id="schematicLabel" stroke="none">
    <text x="0" y="5.000">6V1</text>
   </g>
  </g>
 </g>
 <g id="partLabel" partID="855136150">
  <g transform="translate(214.045,162.216)">
   <g fill="#000000" fill-opacity="1" font-family="'DroidSans'" font-size="5.000" font-style="normal" font-weight="normal" id="schematicLabel" stroke="none">
    <text x="0" y="5.000">C2</text>
    <text x="0" y="10.000">100&#x3bc;F</text>
    <text x="0" y="15.000">35V</text>
   </g>
  </g>
 </g>
</svg>
