<?xml version='1.0' encoding='UTF-8' standalone='no'?>
<!-- Created with Fritzing (https://fritzing.org/) -->
<svg xmlns="http://www.w3.org/2000/svg" baseProfile="tiny" height="3.05024in" version="1.2" viewBox="0 0 208.004 219.617" width="2.88894in" x="0in"  xmlns:svg="http://www.w3.org/2000/svg" y="0in">
 <g id="watermark" >
  <g >
   <g >
    <path d="M183.272,213.417c-0.604,0,-1.131,0.325,-1.422,0.809l-2.796,0l3.96,-4.071c0.146,-0.146,0.289,-0.322,0.428,-0.521c0.149,-0.222,0.228,-0.479,0.228,-0.768c0,-0.279,-0.097,-0.518,-0.287,-0.71c-0.19,-0.188,-0.444,-0.287,-0.754,-0.287l-4.636,0c-0.305,0,-0.555,0.06,-0.742,0.17c-0.219,0.13,-0.33,0.368,-0.33,0.707c0,0.329,0.111,0.562,0.33,0.692c0.188,0.111,0.438,0.168,0.742,0.168l3.148,0l-3.974,4.086c-0.146,0.147,-0.289,0.315,-0.425,0.504c-0.153,0.212,-0.23,0.472,-0.23,0.771c0,0.28,0.096,0.521,0.288,0.711c0.188,0.188,0.442,0.285,0.754,0.285l4.315,0c0.293,0.467,0.812,0.776,1.4,0.776c0.916,0,1.66,-0.744,1.66,-1.661C184.931,214.162,184.186,213.417,183.272,213.417zM183.272,215.68c-0.334,0,-0.604,-0.271,-0.604,-0.604c0,-0.333,0.27,-0.604,0.604,-0.604c0.332,0,0.604,0.271,0.604,0.604C183.875,215.411,183.604,215.68,183.272,215.68z" fill="#8C8C8C" />
    <path d="M166.329,203.375c-0.914,0,-1.659,0.745,-1.659,1.66c0,0.916,0.745,1.66,1.659,1.66s1.658,-0.744,1.658,-1.66C167.989,204.12,167.245,203.375,166.329,203.375zM166.33,205.638c-0.333,0,-0.604,-0.27,-0.604,-0.603s0.271,-0.603,0.604,-0.603c0.331,0,0.604,0.27,0.604,0.603S166.661,205.638,166.33,205.638z" fill="#8C8C8C" />
    <path d="M174.85,208.037c-0.193,-0.111,-0.439,-0.169,-0.732,-0.169l-1.465,0L172.653,205.346c0,-0.292,-0.057,-0.538,-0.166,-0.729C172.397,204.46,172.204,204.275,171.794,204.275c-0.34,0,-0.578,0.116,-0.709,0.342c-0.109,0.193,-0.167,0.438,-0.167,0.729l0,2.521l-0.481,0c-0.295,0,-0.539,0.06,-0.731,0.169c-0.228,0.129,-0.341,0.368,-0.341,0.708c0,0.412,0.185,0.603,0.341,0.692c0.192,0.111,0.438,0.168,0.731,0.168l0.481,0l0,4.362c0,0.277,0.026,0.533,0.081,0.768c0.056,0.246,0.154,0.464,0.298,0.645c0.146,0.186,0.345,0.332,0.595,0.436c0.241,0.098,0.555,0.146,0.93,0.146l0.896,0c0.292,0,0.539,-0.054,0.731,-0.166c0.154,-0.089,0.341,-0.281,0.341,-0.693c0,-0.338,-0.114,-0.578,-0.341,-0.709c-0.192,-0.109,-0.439,-0.168,-0.731,-0.168l-0.821,0c-0.138,0,-0.19,-0.019,-0.207,-0.024c-0.014,-0.034,-0.035,-0.103,-0.035,-0.231L172.655,209.605l1.465,0c0.295,0,0.541,-0.057,0.734,-0.168c0.152,-0.09,0.34,-0.28,0.34,-0.692C175.19,208.405,175.077,208.166,174.85,208.037z" fill="#8C8C8C" />
    <path d="M166.395,207.867l-1.191,0c-0.292,0,-0.538,0.059,-0.731,0.169c-0.226,0.129,-0.341,0.368,-0.341,0.708c0,0.412,0.188,0.604,0.341,0.691c0.193,0.113,0.439,0.168,0.731,0.168l0.544,0l0,5.362c0,0.293,0.057,0.539,0.167,0.73c0.131,0.227,0.367,0.341,0.708,0.341c0.411,0,0.604,-0.187,0.692,-0.341c0.111,-0.191,0.168,-0.438,0.168,-0.73L167.483,208.955c0,-0.386,-0.084,-0.656,-0.256,-0.83C167.052,207.953,166.782,207.867,166.395,207.867z" fill="#8C8C8C" />
    <path d="M162.56,208.037c-0.193,-0.111,-0.44,-0.169,-0.732,-0.169l-0.604,0c-0.25,0,-0.498,0.063,-0.734,0.187c-0.226,0.119,-0.433,0.271,-0.616,0.453l-0.644,0.604l0,-0.247c0,-0.291,-0.055,-0.538,-0.168,-0.729c-0.128,-0.228,-0.368,-0.34,-0.707,-0.34c-0.41,0,-0.604,0.184,-0.693,0.34c-0.11,0.191,-0.167,0.438,-0.167,0.729l0,4.801c-0.475,0.293,-0.791,0.816,-0.791,1.412c0,0.917,0.745,1.661,1.658,1.661c0.916,0,1.66,-0.744,1.66,-1.661c0,-0.596,-0.317,-1.119,-0.792,-1.412l0,-2.21l1.738,-1.564c0.1,-0.09,0.199,-0.164,0.297,-0.217c0.084,-0.045,0.174,-0.067,0.274,-0.067l0.288,0c0.292,0,0.539,-0.056,0.732,-0.169c0.155,-0.088,0.339,-0.279,0.339,-0.691C162.9,208.405,162.785,208.166,162.56,208.037zM158.361,215.68c-0.332,0,-0.603,-0.271,-0.603,-0.604c0,-0.333,0.271,-0.604,0.603,-0.604c0.333,0,0.604,0.271,0.604,0.604C158.965,215.411,158.694,215.68,158.361,215.68z" fill="#8C8C8C" />
    <path d="M155.844,204.518c-0.193,-0.111,-0.44,-0.167,-0.731,-0.167l-0.59,0c-0.2,0,-0.389,0.004,-0.562,0.016c-0.176,0.009,-0.345,0.035,-0.506,0.07c-0.168,0.041,-0.336,0.109,-0.496,0.202c-0.158,0.093,-0.319,0.222,-0.48,0.382c-0.334,0.314,-0.554,0.656,-0.652,1.017c-0.094,0.348,-0.143,0.735,-0.143,1.151l0,0.678l-0.483,0c-0.292,0,-0.539,0.059,-0.73,0.169c-0.227,0.13,-0.342,0.369,-0.342,0.708c0,0.412,0.185,0.604,0.341,0.693c0.191,0.111,0.438,0.166,0.73,0.166l0.483,0l0,5.362c0,0.293,0.057,0.539,0.167,0.73c0.13,0.227,0.367,0.341,0.708,0.341c0.411,0,0.603,-0.187,0.692,-0.341c0.111,-0.191,0.168,-0.438,0.168,-0.73l0,-5.36l0.92,0c0.293,0,0.54,-0.057,0.732,-0.168c0.155,-0.09,0.34,-0.28,0.34,-0.692c0,-0.34,-0.114,-0.579,-0.34,-0.708c-0.189,-0.111,-0.436,-0.17,-0.729,-0.17l-0.92,0l0,-0.678c0,-0.218,0.019,-0.41,0.056,-0.571c0.032,-0.141,0.103,-0.261,0.218,-0.367l0.002,-0.004l0.002,-0.002c0.082,-0.082,0.176,-0.126,0.29,-0.136c0.15,-0.015,0.339,-0.022,0.564,-0.022l0.56,0c0.291,0,0.539,-0.058,0.731,-0.168c0.154,-0.088,0.339,-0.281,0.339,-0.693C156.184,204.887,156.069,204.648,155.844,204.518z" fill="#8C8C8C" />
    <path d="M207.837,208.135c-0.089,-0.156,-0.282,-0.34,-0.693,-0.34c-0.339,0,-0.578,0.113,-0.707,0.34c-0.078,0.133,-0.127,0.293,-0.152,0.477l-0.021,-0.021c-0.216,-0.236,-0.466,-0.42,-0.747,-0.539c-0.277,-0.119,-0.563,-0.183,-0.849,-0.183l-0.709,0c-0.249,0,-0.466,0.015,-0.64,0.041c-0.182,0.026,-0.352,0.074,-0.51,0.14c-0.158,0.066,-0.313,0.15,-0.459,0.254c-0.139,0.097,-0.303,0.226,-0.486,0.377c-0.188,0.156,-0.342,0.302,-0.463,0.434c-0.127,0.141,-0.23,0.293,-0.306,0.455c-0.069,0.16,-0.122,0.337,-0.147,0.523c-0.026,0.178,-0.041,0.391,-0.041,0.631l0,2.386c0,0.24,0.015,0.451,0.041,0.631c0.025,0.188,0.078,0.361,0.147,0.521c0.074,0.164,0.179,0.318,0.306,0.457c0.119,0.129,0.274,0.274,0.463,0.433c0.186,0.153,0.35,0.28,0.486,0.379c0.146,0.103,0.299,0.188,0.459,0.254c0.158,0.065,0.329,0.112,0.51,0.14c0.174,0.026,0.389,0.039,0.64,0.039l0.709,0c0.298,0,0.591,-0.066,0.87,-0.199c0.244,-0.114,0.492,-0.291,0.73,-0.523l0,1.434c0,0.18,-0.025,0.334,-0.072,0.465c-0.043,0.119,-0.159,0.258,-0.344,0.406c-0.154,0.127,-0.309,0.217,-0.457,0.264c-0.15,0.049,-0.341,0.074,-0.563,0.074l-2.203,0c-0.293,0,-0.538,0.055,-0.732,0.166c-0.152,0.088,-0.34,0.282,-0.34,0.692c0,0.341,0.115,0.579,0.34,0.71c0.194,0.109,0.439,0.167,0.732,0.167l2.326,0c0.247,0,0.463,-0.015,0.638,-0.041c0.179,-0.026,0.351,-0.073,0.513,-0.14c0.153,-0.064,0.31,-0.15,0.455,-0.254c0.143,-0.101,0.305,-0.227,0.487,-0.379c0.185,-0.153,0.343,-0.299,0.463,-0.431c0.128,-0.141,0.229,-0.294,0.304,-0.456c0.071,-0.162,0.123,-0.338,0.148,-0.523c0.025,-0.182,0.041,-0.393,0.041,-0.631l0,-7.898C208.004,208.573,207.95,208.326,207.837,208.135zM206.268,212.595c0,0.188,-0.062,0.35,-0.188,0.49c-0.15,0.172,-0.394,0.403,-0.716,0.686l-0.002,0.003l-0.002,0.004c-0.139,0.13,-0.291,0.237,-0.453,0.325c-0.148,0.082,-0.325,0.121,-0.526,0.121L204.08,214.224c-0.222,0,-0.41,-0.021,-0.563,-0.072c-0.148,-0.049,-0.301,-0.137,-0.453,-0.264c-0.231,-0.186,-0.315,-0.322,-0.346,-0.404c-0.049,-0.131,-0.072,-0.285,-0.072,-0.465l0,-2.206c0,-0.18,0.023,-0.336,0.072,-0.467c0.029,-0.082,0.113,-0.217,0.346,-0.403c0.152,-0.127,0.305,-0.216,0.453,-0.265c0.153,-0.049,0.342,-0.072,0.563,-0.072l0.301,0c0.212,0,0.388,0.037,0.526,0.113c0.152,0.082,0.308,0.191,0.457,0.324c0.322,0.293,0.564,0.529,0.716,0.7c0.128,0.146,0.188,0.304,0.188,0.492L206.268,212.595z" fill="#8C8C8C" />
    <path d="M187.858,203.375c-0.914,0,-1.66,0.745,-1.66,1.66c0,0.916,0.746,1.66,1.66,1.66s1.66,-0.744,1.66,-1.66C189.518,204.12,188.772,203.375,187.858,203.375zM187.858,205.638c-0.332,0,-0.604,-0.27,-0.604,-0.603s0.271,-0.603,0.604,-0.603s0.604,0.27,0.604,0.603C188.462,205.368,188.19,205.638,187.858,205.638z" fill="#8C8C8C" />
    <path d="M198.544,213.643l-0.107,-3.419c-0.011,-0.178,-0.021,-0.338,-0.031,-0.489c-0.01,-0.162,-0.037,-0.322,-0.082,-0.476c-0.045,-0.158,-0.11,-0.309,-0.198,-0.453c-0.093,-0.146,-0.216,-0.289,-0.37,-0.42c-0.225,-0.192,-0.443,-0.334,-0.646,-0.416c-0.207,-0.084,-0.461,-0.127,-0.754,-0.127l-1.012,0c-0.259,0,-0.501,0.058,-0.716,0.164c-0.197,0.098,-0.39,0.203,-0.572,0.315l-0.003,0.002l-0.003,0.003l-0.837,0.555l0,-0.041c0,-0.291,-0.057,-0.539,-0.168,-0.733c-0.129,-0.226,-0.367,-0.339,-0.707,-0.339c-0.411,0,-0.604,0.185,-0.693,0.339c-0.109,0.194,-0.168,0.438,-0.168,0.733l0,6.099c0,0.295,0.059,0.539,0.168,0.734c0.09,0.153,0.282,0.338,0.693,0.338c0.34,0,0.578,-0.114,0.707,-0.338c0.111,-0.195,0.168,-0.439,0.168,-0.734L193.213,210.905l1.953,-1.215c0.04,-0.024,0.082,-0.048,0.121,-0.063c0.031,-0.016,0.07,-0.025,0.115,-0.031c0.049,-0.012,0.117,-0.016,0.195,-0.016l0.362,0c0.188,0,0.334,0.021,0.435,0.059c0.082,0.029,0.143,0.076,0.18,0.143c0.05,0.078,0.08,0.18,0.098,0.303c0.02,0.139,0.034,0.309,0.045,0.504l0.096,3.097c-0.457,0.297,-0.762,0.811,-0.762,1.394c0,0.917,0.746,1.661,1.66,1.661c0.916,0,1.66,-0.744,1.66,-1.661C199.37,214.468,199.037,213.93,198.544,213.643zM197.71,215.68c-0.334,0,-0.602,-0.271,-0.602,-0.604c0,-0.333,0.268,-0.604,0.602,-0.604c0.333,0,0.604,0.271,0.604,0.604C198.315,215.411,198.043,215.68,197.71,215.68z" fill="#8C8C8C" />
    <path d="M187.921,207.867l-1.193,0c-0.293,0,-0.539,0.059,-0.731,0.169c-0.226,0.129,-0.341,0.368,-0.341,0.708c0,0.412,0.186,0.604,0.341,0.691c0.192,0.113,0.438,0.168,0.731,0.168l0.545,0l0,5.362c0,0.293,0.055,0.539,0.168,0.73c0.127,0.227,0.365,0.341,0.707,0.341c0.41,0,0.604,-0.187,0.691,-0.341c0.111,-0.191,0.17,-0.438,0.17,-0.73L189.009,208.955c0,-0.386,-0.085,-0.656,-0.259,-0.83C188.578,207.953,188.305,207.867,187.921,207.867z" fill="#8C8C8C" />
   </g>
  </g>
 </g>
 <g partID="855136130">
  <g transform="translate(63.3095,163.029)">
   <g id="schematic">
    <rect fill="none" height="13.7197" stroke="#000000" stroke-width="0.680315" width="57.6" x="7.2" y="0.340157"/>
    <g transform="matrix(1, 0, 0, 1, 0, 3.25984)">
     <g fill="#555555" stroke="none">
      <rect height="0.680315" id="connector0pin" width="7.2" x="0" y="0"/>
      <rect height="0.680315" id="connector1pin" width="7.2" x="0" y="7.2"/>
      <rect height="0.680315" id="connector2pin" width="7.2" x="64.8" y="0"/>
      <rect height="0.680315" id="connector3pin" width="7.2" x="64.8" y="7.2"/>
     </g>
    </g>
    <g font-family="DroidSans">
     <g transform="matrix(1, 0, 0, 1, 0, 2.83465)">
      <g fill="#555555" font-size="3.49994">
       <text x="3.11439" y="0">1</text>
       <text x="3.0099" y="7.2">2</text>
       <text x="67.7289" y="0">3</text>
       <text x="67.7154" y="7.2">4</text>
      </g>
     </g>
     <g transform="matrix(1, 0, 0, 1, 7.2, 4.8189)">
      <g fill="#555555" font-size="3.49994">
       <text text-anchor="start" x="1.13386" y="0">VIN+</text>
       <text text-anchor="start" x="1.13386" y="7.2">GND-</text>
       <text text-anchor="end" x="56.4661" y="0">VOUT+</text>
       <text text-anchor="end" x="56.4661" y="7.2">GND-</text>
      </g>
     </g>
     <g transform="matrix(1, 0, 0, 1, 36, 6.51969)">
      <g fill="#000000" font-size="4.25197" text-anchor="middle">
       <text x="0" y="0">AMS1117</text>
       <text x="0" y="4.25197">5V regulator</text>
      </g>
     </g>
    </g>
    <g transform="matrix(1, 0, 0, 1, 0, 3.25984)">
     <g fill="none" stroke="none">
      <g height="0.680315" id="connector0terminal" width="0.680315" x="0" y="0"/>
      <g height="0.680315" id="connector1terminal" width="0.680315" x="0" y="7.2"/>
      <g height="0.680315" id="connector2terminal" width="0.680315" x="71.3197" y="0"/>
      <g height="0.680315" id="connector3terminal" width="0.680315" x="71.3197" y="7.2"/>
     </g>
    </g>
   </g>
  </g>
 </g>
 <g partID="855136140">
  <g transform="translate(9.07306,181.379)">
   <g transform="matrix(0,-1,1,0,0,0)">
    <g id="schematic" >
     <line class="other" stroke="#000000" stroke-linecap="round" stroke-width="1.152" x1="11.15" x2="11.15"  y1="0.576" y2="22.176"/>
     <line class="other" stroke="#000000" stroke-linecap="round" stroke-width="1.152" x1="14.75" x2="14.75"  y1="7.776" y2="14.976"/>
     <line class="other" stroke="#000000" stroke-linecap="round" stroke-width="1.152" x1="18.3501" x2="18.3501"  y1="0.576" y2="22.176"/>
     <line class="other" stroke="#000000" stroke-linecap="round" stroke-width="1.152" x1="21.9501" x2="21.9501"  y1="7.776" y2="14.976"/>
     <line class="other" stroke="#000000" stroke-linecap="round" stroke-width="0.432002" x1="7.55002" x2="10.43"  y1="11.376" y2="11.376"/>
     <line class="pin" connectorname="-" id="connector0pin" stroke="#787878" stroke-linecap="round" stroke-width="0.700001" x1="29.1502" x2="21.9501"  y1="11.376" y2="11.376"/>
     <g class="terminal" fill="none" height="0.000283465" id="connector0terminal" stroke="none" stroke-width="0" width="0.000283466" x="29.1502"  y="11.376"/>
     <text class="text" fill="#8c8c8c" font-family="'Droid Sans'" font-size="2.50001" stroke="none" stroke-width="0" text-anchor="middle" x="25.5501"  y="10.326">1</text>
     <line class="pin" connectorname="+" id="connector1pin" stroke="#787878" stroke-linecap="round" stroke-width="0.700001" x1="0.350001" x2="7.55002"  y1="11.376" y2="11.376"/>
     <g class="terminal" fill="none" height="0.000283465" id="connector1terminal" stroke="none" stroke-width="0" width="0.000283466" x="0.350001"  y="11.376"/>
     <text class="text" fill="#8c8c8c" font-family="'Droid Sans'" font-size="2.50001" stroke="none" stroke-width="0" text-anchor="middle" x="3.95001"  y="10.326">2</text>
    </g>
   </g>
  </g>
 </g>
 <g partID="855136150">
  <g transform="translate(170.609,159.079)">
   <g id="schematic">
    <line class="other" stroke="#000000" stroke-linecap="round" stroke-width="0.72" x1="0.36" x2="14.76" y1="7.54999" y2="7.54999"/>
    <line class="other" stroke="#000000" stroke-linecap="round" stroke-width="0.432" x1="7.56" x2="7.56" y1="10.43" y2="14.75"/>
    <path class="other" d="M7.56,10.3846A11.4922,11.4922,0,0,1,14.616,12.806" fill="none" stroke="#000000" stroke-width="0.72"/>
    <path class="other" d="M0.567213,12.7952A11.5191,11.5191,0,0,1,7.56,10.4303" fill="none" stroke="#000000" stroke-width="0.72"/>
    <rect class="other" fill="#000000" height="0.36" stroke="none" stroke-linecap="round" stroke-width="0" width="2.52" x="1.17354" y="5.29645"/>
    <rect class="other" fill="#000000" height="2.52" stroke="none" stroke-linecap="round" stroke-width="0" width="0.36" x="2.25354" y="4.21645"/>
    <line class="pin" connectorname="+" id="connector1pin" stroke="#787878" stroke-linecap="round" stroke-width="0.699999" x1="7.56" x2="7.56" y1="0.349999" y2="7.54999"/>
    <g class="terminal" fill="none" height="0.000283465" id="connector1terminal" stroke="none" stroke-width="0" width="0.000283465" x="7.56" y="0.349999"/>
    <g transform="matrix(1, 0, 0, 1, 6.50999, 3.94999)">
     <g>
      <g transform="rotate(270)">
       <g>
        <text class="text" fill="#8c8c8c" font-family="'Droid Sans'" font-size="2.5" stroke="none" stroke-width="0" text-anchor="middle" x="0" y="0">2</text>
       </g>
      </g>
     </g>
    </g>
    <line class="pin" connectorname="-" id="connector0pin" stroke="#787878" stroke-linecap="round" stroke-width="0.699999" x1="7.56" x2="7.56" y1="21.95" y2="14.75"/>
    <g class="terminal" fill="none" height="0.000283465" id="connector0terminal" stroke="none" stroke-width="0" width="0.000283465" x="7.56" y="21.95"/>
    <g transform="matrix(1, 0, 0, 1, 6.50999, 18.35)">
     <g>
      <g transform="rotate(270)">
       <g>
        <text class="text" fill="#8c8c8c" font-family="'Droid Sans'" font-size="2.5" stroke="none" stroke-width="0" text-anchor="middle" x="0" y="0">1</text>
       </g>
      </g>
     </g>
    </g>
   </g>
  </g>
 </g>
 <g partID="855136650">
  <g transform="translate(19.4093,29.4349)">
   <g id="schematic" >
    <rect fill="none" height="57.599" id="part_symbol" stroke="#000000" stroke-width="0.72" width="43.1987" x="0.36"  y="7.5952"/>
    <text fill="#555555" font-family="'Droid Sans'" font-size="2.52" id="text52" x="30.4221"  y="5.46185">1</text>
    <text fill="#555555" font-family="'Droid Sans'" font-size="2.52" id="text56" x="46.4289"  y="20.3656">4</text>
    <text fill="#555555" font-family="'Droid Sans'" font-size="2.52" id="text58" x="23.2767"  y="5.55412">2</text>
    <text fill="#555555" font-family="'Droid Sans'" font-size="2.52" id="text60" x="16.0912"  y="6.19229">3</text>
    <text fill="#555555" font-family="'Droid Sans'" font-size="2.52" id="text62" x="46.3434"  y="27.4905">5</text>
    <text fill="#555555" font-family="'Droid Sans'" font-size="2.52" id="text64" x="46.3659"  y="34.9905">6</text>
    <text fill="#555555" font-family="'Droid Sans'" font-size="2.52" id="text66" x="46.3293"  y="42.116">7</text>
    <text fill="#555555" font-family="'Droid Sans'" font-size="2.52" id="text68" x="46.3717"  y="49.5955">8</text>
    <text fill="#555555" font-family="'Droid Sans'" font-size="2.52" id="text70" x="46.3982"  y="56.8764">9</text>
    <text fill="#000000" font-family="'Droid Sans'" font-size="4.32" id="text103" x="12.6239"  y="37.5593">Digispark</text>
    <text fill="#555555" font-family="'Droid Sans'" font-size="3.528" id="text81" x="18.7176"  y="12.4204">Gnd</text>
    <text fill="#555555" font-family="'Droid Sans'" font-size="3.528" id="text83" x="12.3738"  y="12.3353">Vin</text>
    <text fill="#555555" font-family="'Droid Sans'" font-size="3.528" id="text85" x="26.5826"  y="12.3221">Vcc</text>
    <text fill="#555555" font-family="'Droid Sans'" font-size="3.528" id="text89" x="38.1561"  y="23.2559">P0</text>
    <text fill="#555555" font-family="'Droid Sans'" font-size="3.528" id="text91" x="38.1647"  y="30.5045">P1</text>
    <text fill="#555555" font-family="'Droid Sans'" font-size="3.528" id="text93" x="38.1561"  y="37.6886">P2</text>
    <text fill="#555555" font-family="'Droid Sans'" font-size="3.528" id="text95" x="38.1647"  y="44.9088">P3</text>
    <text fill="#555555" font-family="'Droid Sans'" font-size="3.528" id="text95-9" x="38.1052"  y="52.1428">P4</text>
    <text fill="#555555" font-family="'Droid Sans'" font-size="3.528" id="text95-5" x="38.1645"  y="59.3277">P5</text>
    <line fill="none" id="connector0pin" stroke="#555555" stroke-linecap="round" stroke-width="0.72" x1="29.1547" x2="29.1547"  y1="7.22905" y2="0.399309"/>
    <g fill="none" height="0.72" id="connector0terminal" stroke="none" width="0.72" x="28.8"  y="0.0341818"/>
    <line fill="none" id="connector1pin" stroke="#555555" stroke-linecap="round" stroke-width="0.72" x1="21.96" x2="21.96"  y1="7.22905" y2="0.365127"/>
    <g fill="none" height="0.72" id="connector1terminal" stroke="none" width="0.72" x="21.6"  y="0.0341818"/>
    <line fill="none" id="connector2pin" stroke="#555555" stroke-linecap="round" stroke-width="0.72" x1="14.7548" x2="14.7548"  y1="0.382218" y2="7.24615"/>
    <g fill="none" height="0.72" id="connector2terminal" stroke="none" width="0.72" x="14.4"  y="0.0341813"/>
    <line fill="none" id="connector3pin" stroke="#555555" stroke-linecap="round" stroke-width="0.72" x1="43.9251" x2="50.7881"  y1="21.9941" y2="21.9941"/>
    <g fill="none" height="0.72" id="connector3terminal" stroke="none" width="0.72" x="50.4"  y="21.6342"/>
    <line fill="none" id="connector4pin" stroke="#555555" stroke-linecap="round" stroke-width="0.72" x1="43.9081" x2="50.7719"  y1="29.1941" y2="29.1941"/>
    <g fill="none" height="0.72" id="connector4terminal" stroke="none" width="0.72" x="50.4"  y="28.8342"/>
    <line fill="none" id="connector5pin" stroke="#555555" stroke-linecap="round" stroke-width="0.72" x1="43.9233" x2="50.7567"  y1="36.3772" y2="36.3772"/>
    <g fill="none" height="0.72" id="connector5terminal" stroke="none" width="0.72" x="50.4"  y="36.0172"/>
    <line fill="none" id="connector6pin" stroke="#555555" stroke-linecap="round" stroke-width="0.72" x1="43.9233" x2="50.7567"  y1="43.5772" y2="43.5772"/>
    <g fill="none" height="0.72" id="connector6terminal" stroke="none" width="0.72" x="50.4"  y="43.2172"/>
    <line fill="none" id="connector7pin" stroke="#555555" stroke-linecap="round" stroke-width="0.72" x1="43.9251" x2="50.7561"  y1="50.773" y2="50.7773"/>
    <g fill="none" height="0.72" id="connector7terminal" stroke="none" width="0.72" x="50.4"  y="50.4172"/>
    <line fill="none" id="connector8pin" stroke="#555555" stroke-linecap="round" stroke-width="0.72" x1="43.9251" x2="50.7561"  y1="57.9941" y2="57.9941"/>
    <g fill="none" height="0.72" id="connector8terminal" stroke="none" width="0.72" x="50.4"  y="57.6172"/>
    <text fill="#000000" font-family="'Droid Sans'" font-size="4.32" id="text48" x="17.9056"  y="45.0648">USB</text>
   </g>
  </g>
 </g>
 <g partID="855160050">
  <g transform="translate(192.929,11.8291)">
   <g transform="matrix(-1,0,0,1,0,0)">
    <g gorn="0.1" id="schematic" >
     <rect fill="none" height="86.4" stroke="#000000" stroke-width="0.72" width="57.6" x="7.2"  y="7.2"/>
     <text fill="#000000" font-family="OCRA" font-size="8" x="16"  y="30">HM-10</text>
     <!-- Pin labels INSIDE on the right, closer to edge (top to bottom: BRK, RXD, TXD, GND, VCC, STATE) -->
     <text fill="#000000" font-family="OCRA" font-size="3.2" x="52"  y="20">BRK</text>
     <text fill="#000000" font-family="OCRA" font-size="3.2" x="51"  y="30">RXD</text>
     <text fill="#000000" font-family="OCRA" font-size="3.2" x="51"  y="40">TXD</text>
     <text fill="#000000" font-family="OCRA" font-size="3.2" x="51"  y="50">GND</text>
     <text fill="#000000" font-family="OCRA" font-size="3.2" x="51"  y="60">VCC</text>
     <text fill="#000000" font-family="OCRA" font-size="3.2" x="47"  y="70">STATE</text>
     <!-- Connector pins matching FZP file IDs -->
     <line gorn="0.1.8" id="connector17pin" stroke="#000000" stroke-width="0.72" x1="64.8" x2="79.2"  y1="18" y2="18"/>
     <line gorn="0.1.9" id="connector12pin" stroke="#000000" stroke-width="0.72" x1="64.8" x2="79.2"  y1="28" y2="28"/>
     <line gorn="0.1.10" id="connector13pin" stroke="#000000" stroke-width="0.72" x1="64.8" x2="79.2"  y1="38" y2="38"/>
     <line gorn="0.1.11" id="connector14pin" stroke="#000000" stroke-width="0.72" x1="64.8" x2="79.2"  y1="48" y2="48"/>
     <line gorn="0.1.12" id="connector15pin" stroke="#000000" stroke-width="0.72" x1="64.8" x2="79.2"  y1="58" y2="58"/>
     <line gorn="0.1.13" id="connector16pin" stroke="#000000" stroke-width="0.72" x1="64.8" x2="79.2"  y1="68" y2="68"/>
     <!-- Terminal points for schematic connections -->
     <circle cx="79.2" cy="18" fill="#000000" gorn="0.1.14" id="connector17terminal" r="0.01" />
     <g cx="79.2" cy="28" fill="#000000" gorn="0.1.15" id="connector12terminal" r="0.01" />
     <g cx="79.2" cy="38" fill="#000000" gorn="0.1.16" id="connector13terminal" r="0.01" />
     <g cx="79.2" cy="48" fill="#000000" gorn="0.1.17" id="connector14terminal" r="0.01" />
     <g cx="79.2" cy="58" fill="#000000" gorn="0.1.18" id="connector15terminal" r="0.01" />
    </g>
   </g>
  </g>
 </g>
 <g partID="855136160">
  <line stroke="#cc1414" stroke-linecap="round" stroke-width="0.699998" x1="56.4375" x2="63.6496" y1="166.647" y2="166.629"/>
 </g>
 <circle cx="56.4375" cy="166.647" fill="black" r="0.72" stroke="none" stroke-width="0"/>
 <g partID="855136170">
  <line stroke="#cc1414" stroke-linecap="round" stroke-width="0.699998" x1="56.4375" x2="56.4375" y1="152.308" y2="166.647"/>
 </g>
 <circle cx="56.4375" cy="152.308" fill="black" r="0.72" stroke="none" stroke-width="0"/>
 <circle cx="56.4375" cy="166.647" fill="black" r="0.72" stroke="none" stroke-width="0"/>
 <g partID="855136180">
  <line stroke="#cc1414" stroke-linecap="round" stroke-width="0.699998" x1="20.4492" x2="56.4375" y1="152.229" y2="152.308"/>
 </g>
 <circle cx="56.4375" cy="152.308" fill="black" r="0.72" stroke="none" stroke-width="0"/>
 <g partID="855136220">
  <line stroke="#404040" stroke-linecap="round" stroke-width="0.699998" x1="178.169" x2="156.524" y1="181.029" y2="181.095"/>
 </g>
 <circle cx="178.169" cy="181.029" fill="black" r="1.44" stroke="none" stroke-width="0"/>
 <circle cx="156.524" cy="181.095" fill="black" r="0.72" stroke="none" stroke-width="0"/>
 <g partID="855136230">
  <line stroke="#404040" stroke-linecap="round" stroke-width="0.699998" x1="156.543" x2="134.969" y1="173.855" y2="173.829"/>
 </g>
 <circle cx="156.543" cy="173.855" fill="black" r="0.72" stroke="none" stroke-width="0"/>
 <g partID="855136240">
  <line stroke="#404040" stroke-linecap="round" stroke-width="0.699998" x1="156.524" x2="156.543" y1="181.095" y2="173.855"/>
 </g>
 <circle cx="156.524" cy="181.095" fill="black" r="0.72" stroke="none" stroke-width="0"/>
 <circle cx="156.543" cy="173.855" fill="black" r="0.72" stroke="none" stroke-width="0"/>
 <g partID="855137010">
  <line stroke="#cc1414" stroke-linecap="round" stroke-width="0.699998" x1="178.157" x2="178.169" y1="144.982" y2="159.429"/>
 </g>
 <g partID="855164060">
  <line stroke="#cc1414" stroke-linecap="round" stroke-width="0.699998" x1="99.0157" x2="99.0157" y1="144.982" y2="69.8291"/>
 </g>
 <g partID="855163810">
  <line stroke="#cc1414" stroke-linecap="round" stroke-width="0.699998" x1="99.0157" x2="113.729" y1="69.8291" y2="69.8291"/>
 </g>
 <g partID="855163560">
  <line stroke="#cc1414" stroke-linecap="round" stroke-width="0.699998" x1="178.157" x2="99.0157" y1="144.982" y2="144.982"/>
 </g>
 <g partID="855168710">
  <line stroke="#ff7300" stroke-linecap="round" stroke-width="0.699998" x1="84.5065" x2="84.5065" y1="39.8291" y2="51.4961"/>
 </g>
 <circle cx="84.5065" cy="39.8291" fill="black" r="0.72" stroke="none" stroke-width="0"/>
 <circle cx="84.5065" cy="51.4961" fill="black" r="0.72" stroke="none" stroke-width="0"/>
 <g partID="855168640">
  <line stroke="#ff7300" stroke-linecap="round" stroke-width="0.699998" x1="84.5065" x2="70.1693" y1="51.4961" y2="51.4291"/>
 </g>
 <circle cx="84.5065" cy="51.4961" fill="black" r="0.72" stroke="none" stroke-width="0"/>
 <g partID="855168500">
  <line stroke="#ff7300" stroke-linecap="round" stroke-width="0.699998" x1="113.729" x2="84.5065" y1="39.8291" y2="39.8291"/>
 </g>
 <circle cx="84.5065" cy="39.8291" fill="black" r="0.72" stroke="none" stroke-width="0"/>
 <g partID="855168570">
  <line stroke="#25cc35" stroke-linecap="round" stroke-width="0.699998" x1="113.729" x2="99.0157" y1="49.8291" y2="49.8291"/>
 </g>
 <circle cx="99.0157" cy="49.8291" fill="black" r="0.72" stroke="none" stroke-width="0"/>
 <g partID="855168780">
  <line stroke="#25cc35" stroke-linecap="round" stroke-width="0.699998" x1="99.0157" x2="84.5065" y1="58.5858" y2="58.5858"/>
 </g>
 <circle cx="99.0157" cy="58.5858" fill="black" r="0.72" stroke="none" stroke-width="0"/>
 <circle cx="84.5065" cy="58.5858" fill="black" r="0.72" stroke="none" stroke-width="0"/>
 <g partID="855168850">
  <line stroke="#25cc35" stroke-linecap="round" stroke-width="0.699998" x1="99.0157" x2="99.0157" y1="49.8291" y2="58.5858"/>
 </g>
 <circle cx="99.0157" cy="49.8291" fill="black" r="0.72" stroke="none" stroke-width="0"/>
 <circle cx="99.0157" cy="58.5858" fill="black" r="0.72" stroke="none" stroke-width="0"/>
 <g partID="855168920">
  <line stroke="#25cc35" stroke-linecap="round" stroke-width="0.699998" x1="84.5065" x2="70.1693" y1="58.5858" y2="58.6291"/>
 </g>
 <circle cx="84.5065" cy="58.5858" fill="black" r="0.72" stroke="none" stroke-width="0"/>
 <g partID="855169390">
  <line stroke="#ff7300" stroke-linecap="round" stroke-width="0.699998" x1="178.169" x2="156.524" y1="159.429" y2="159.355"/>
 </g>
 <circle cx="178.169" cy="159.429" fill="black" r="0.72" stroke="none" stroke-width="0"/>
 <circle cx="156.524" cy="159.355" fill="black" r="0.72" stroke="none" stroke-width="0"/>
 <g partID="855169460">
  <line stroke="#ff7300" stroke-linecap="round" stroke-width="0.699998" x1="156.524" x2="134.969" y1="166.667" y2="166.629"/>
 </g>
 <circle cx="156.524" cy="166.667" fill="black" r="0.72" stroke="none" stroke-width="0"/>
 <g partID="855169530">
  <line stroke="#ff7300" stroke-linecap="round" stroke-width="0.699998" x1="156.524" x2="156.524" y1="159.355" y2="166.667"/>
 </g>
 <circle cx="156.524" cy="159.355" fill="black" r="0.72" stroke="none" stroke-width="0"/>
 <circle cx="156.524" cy="166.667" fill="black" r="0.72" stroke="none" stroke-width="0"/>
 <g partID="855172100">
  <line stroke="#404040" stroke-linecap="round" stroke-width="0.699998" x1="63.6496" x2="55.731" y1="173.829" y2="173.782"/>
 </g>
 <circle cx="55.731" cy="173.782" fill="black" r="0.72" stroke="none" stroke-width="0"/>
 <g partID="855172210">
  <line stroke="#404040" stroke-linecap="round" stroke-width="0.699998" x1="55.731" x2="48.5693" y1="181.095" y2="181.029"/>
 </g>
 <circle cx="55.731" cy="181.095" fill="black" r="0.72" stroke="none" stroke-width="0"/>
 <circle cx="48.5693" cy="181.029" fill="black" r="0.72" stroke="none" stroke-width="0"/>
 <g partID="855172320">
  <line stroke="#404040" stroke-linecap="round" stroke-width="0.699998" x1="55.731" x2="55.731" y1="181.095" y2="181.095"/>
 </g>
 <circle cx="55.731" cy="181.095" fill="black" r="0.72" stroke="none" stroke-width="0"/>
 <circle cx="55.731" cy="181.095" fill="black" r="0.72" stroke="none" stroke-width="0"/>
 <g partID="855172430">
  <line stroke="#404040" stroke-linecap="round" stroke-width="0.699998" x1="55.731" x2="55.731" y1="173.782" y2="181.095"/>
 </g>
 <circle cx="55.731" cy="173.782" fill="black" r="0.72" stroke="none" stroke-width="0"/>
 <circle cx="55.731" cy="181.095" fill="black" r="0.72" stroke="none" stroke-width="0"/>
 <g partID="855172540">
  <line stroke="#404040" stroke-linecap="round" stroke-width="0.699998" x1="48.5693" x2="20.4492" y1="181.029" y2="181.029"/>
 </g>
 <circle cx="48.5693" cy="181.029" fill="black" r="0.72" stroke="none" stroke-width="0"/>
 <g partID="855172640">
  <line stroke="#404040" stroke-linecap="round" stroke-width="0.699998" x1="41.3693" x2="41.3038" y1="29.8291" y2="1.05131"/>
 </g>
 <circle cx="41.3038" cy="1.05131" fill="black" r="0.72" stroke="none" stroke-width="0"/>
 <g partID="855172790">
  <line stroke="#404040" stroke-linecap="round" stroke-width="0.699998" x1="41.3038" x2="106.127" y1="1.05131" y2="1.05131"/>
 </g>
 <circle cx="41.3038" cy="1.05131" fill="black" r="0.72" stroke="none" stroke-width="0"/>
 <circle cx="106.127" cy="1.05131" fill="black" r="0.72" stroke="none" stroke-width="0"/>
 <g partID="855172940">
  <line stroke="#404040" stroke-linecap="round" stroke-width="0.699998" x1="206.92" x2="206.92" y1="1.05131" y2="195.522"/>
 </g>
 <circle cx="206.92" cy="1.05131" fill="black" r="0.72" stroke="none" stroke-width="0"/>
 <circle cx="206.92" cy="195.522" fill="black" r="0.72" stroke="none" stroke-width="0"/>
 <g partID="855173090">
  <line stroke="#404040" stroke-linecap="round" stroke-width="0.699998" x1="178.263" x2="178.169" y1="195.522" y2="181.029"/>
 </g>
 <circle cx="178.263" cy="195.522" fill="black" r="0.72" stroke="none" stroke-width="0"/>
 <circle cx="178.169" cy="181.029" fill="black" r="1.44" stroke="none" stroke-width="0"/>
 <g partID="855173240">
  <line stroke="#404040" stroke-linecap="round" stroke-width="0.699998" x1="206.92" x2="178.263" y1="195.522" y2="195.522"/>
 </g>
 <circle cx="206.92" cy="195.522" fill="black" r="0.72" stroke="none" stroke-width="0"/>
 <circle cx="178.263" cy="195.522" fill="black" r="0.72" stroke="none" stroke-width="0"/>
 <g partID="855173430">
  <line stroke="#404040" stroke-linecap="round" stroke-width="0.699998" x1="106.127" x2="206.92" y1="1.05131" y2="1.05131"/>
 </g>
 <circle cx="106.127" cy="1.05131" fill="black" r="1.44" stroke="none" stroke-width="0"/>
 <circle cx="206.92" cy="1.05131" fill="black" r="0.72" stroke="none" stroke-width="0"/>
 <g partID="855173570">
  <line stroke="#404040" stroke-linecap="round" stroke-width="0.699998" x1="106.127" x2="106.127" y1="1.05131" y2="59.8291"/>
 </g>
 <circle cx="106.127" cy="1.05131" fill="black" r="0.72" stroke="none" stroke-width="0"/>
 <circle cx="106.127" cy="59.8291" fill="black" r="0.72" stroke="none" stroke-width="0"/>
 <g partID="855173760">
  <line stroke="#404040" stroke-linecap="round" stroke-width="0.699998" x1="106.127" x2="113.729" y1="59.8291" y2="59.8291"/>
 </g>
 <circle cx="106.127" cy="59.8291" fill="black" r="0.72" stroke="none" stroke-width="0"/>
 <g id="partLabel" partID="855136140">
  <g transform="translate(0,163.164)">
   <g fill="#000000" fill-opacity="1" font-family="'DroidSans'" font-size="5.000" font-style="normal" font-weight="normal" id="schematicLabel" stroke="none">
    <text x="0" y="5.000">6V1</text>
   </g>
  </g>
 </g>
 <g id="partLabel" partID="855136150">
  <g transform="translate(189.604,162.245)">
   <g fill="#000000" fill-opacity="1" font-family="'DroidSans'" font-size="5.000" font-style="normal" font-weight="normal" id="schematicLabel" stroke="none">
    <text x="0" y="5.000">C2</text>
    <text x="0" y="10.000">100&#x3bc;F</text>
    <text x="0" y="15.000">35V</text>
   </g>
  </g>
 </g>
</svg>
