<?xml version='1.0' encoding='UTF-8' standalone='no'?>
<!-- Created with Fritzing (https://fritzing.org/) -->
<svg xmlns="http://www.w3.org/2000/svg" baseProfile="tiny" height="3.25023in" version="1.2" viewBox="0 0 239.553 234.016" width="3.32713in" x="0in"  xmlns:svg="http://www.w3.org/2000/svg" y="0in">
 <g id="watermark" >
  <g >
   <g >
    <path d="M214.821,227.816c-0.604,0,-1.131,0.325,-1.422,0.809l-2.796,0l3.96,-4.071c0.146,-0.146,0.289,-0.322,0.428,-0.521c0.149,-0.222,0.228,-0.479,0.228,-0.768c0,-0.279,-0.097,-0.518,-0.287,-0.71c-0.19,-0.188,-0.444,-0.287,-0.754,-0.287l-4.636,0c-0.305,0,-0.555,0.06,-0.742,0.17c-0.219,0.13,-0.33,0.368,-0.33,0.707c0,0.329,0.111,0.562,0.33,0.692c0.188,0.111,0.438,0.168,0.742,0.168l3.148,0l-3.974,4.086c-0.146,0.147,-0.289,0.315,-0.425,0.504c-0.153,0.212,-0.23,0.472,-0.23,0.771c0,0.28,0.096,0.521,0.288,0.711c0.188,0.188,0.442,0.285,0.754,0.285l4.315,0c0.293,0.467,0.812,0.776,1.4,0.776c0.916,0,1.66,-0.744,1.66,-1.661C216.48,228.561,215.735,227.816,214.821,227.816zM214.821,230.079c-0.334,0,-0.604,-0.271,-0.604,-0.604c0,-0.333,0.27,-0.604,0.604,-0.604c0.332,0,0.604,0.271,0.604,0.604C215.424,229.81,215.153,230.079,214.821,230.079z" fill="#8C8C8C" />
    <path d="M197.878,217.774c-0.914,0,-1.659,0.745,-1.659,1.66c0,0.916,0.745,1.66,1.659,1.66s1.658,-0.744,1.658,-1.66C199.538,218.519,198.794,217.774,197.878,217.774zM197.879,220.037c-0.333,0,-0.604,-0.27,-0.604,-0.603s0.271,-0.603,0.604,-0.603c0.331,0,0.604,0.27,0.604,0.603S198.21,220.037,197.879,220.037z" fill="#8C8C8C" />
    <path d="M206.399,222.436c-0.193,-0.111,-0.439,-0.169,-0.732,-0.169l-1.465,0L204.202,219.745c0,-0.292,-0.057,-0.538,-0.166,-0.729C203.946,218.859,203.753,218.674,203.343,218.674c-0.34,0,-0.578,0.116,-0.709,0.342c-0.109,0.193,-0.167,0.438,-0.167,0.729l0,2.521l-0.481,0c-0.295,0,-0.539,0.06,-0.731,0.169c-0.228,0.129,-0.341,0.368,-0.341,0.708c0,0.412,0.185,0.603,0.341,0.692c0.192,0.111,0.438,0.168,0.731,0.168l0.481,0l0,4.362c0,0.277,0.026,0.533,0.081,0.768c0.056,0.246,0.154,0.464,0.298,0.645c0.146,0.186,0.345,0.332,0.595,0.436c0.241,0.098,0.555,0.146,0.93,0.146l0.896,0c0.292,0,0.539,-0.054,0.731,-0.166c0.154,-0.089,0.341,-0.281,0.341,-0.693c0,-0.338,-0.114,-0.578,-0.341,-0.709c-0.192,-0.109,-0.439,-0.168,-0.731,-0.168l-0.821,0c-0.138,0,-0.19,-0.019,-0.207,-0.024c-0.014,-0.034,-0.035,-0.103,-0.035,-0.231L204.204,224.004l1.465,0c0.295,0,0.541,-0.057,0.734,-0.168c0.152,-0.09,0.34,-0.28,0.34,-0.692C206.739,222.804,206.626,222.565,206.399,222.436z" fill="#8C8C8C" />
    <path d="M197.944,222.266l-1.191,0c-0.292,0,-0.538,0.059,-0.731,0.169c-0.226,0.129,-0.341,0.368,-0.341,0.708c0,0.412,0.188,0.604,0.341,0.691c0.193,0.113,0.439,0.168,0.731,0.168l0.544,0l0,5.362c0,0.293,0.057,0.539,0.167,0.73c0.131,0.227,0.367,0.341,0.708,0.341c0.411,0,0.604,-0.187,0.692,-0.341c0.111,-0.191,0.168,-0.438,0.168,-0.73L199.032,223.354c0,-0.386,-0.084,-0.656,-0.256,-0.83C198.601,222.352,198.331,222.266,197.944,222.266z" fill="#8C8C8C" />
    <path d="M194.109,222.436c-0.193,-0.111,-0.44,-0.169,-0.732,-0.169l-0.604,0c-0.25,0,-0.498,0.063,-0.734,0.187c-0.226,0.119,-0.433,0.271,-0.616,0.453l-0.644,0.604l0,-0.247c0,-0.291,-0.055,-0.538,-0.168,-0.729c-0.128,-0.228,-0.368,-0.34,-0.707,-0.34c-0.41,0,-0.604,0.184,-0.693,0.34c-0.11,0.191,-0.167,0.438,-0.167,0.729l0,4.801c-0.475,0.293,-0.791,0.816,-0.791,1.412c0,0.917,0.745,1.661,1.658,1.661c0.916,0,1.66,-0.744,1.66,-1.661c0,-0.596,-0.317,-1.119,-0.792,-1.412l0,-2.21l1.738,-1.564c0.1,-0.09,0.199,-0.164,0.297,-0.217c0.084,-0.045,0.174,-0.067,0.274,-0.067l0.288,0c0.292,0,0.539,-0.056,0.732,-0.169c0.155,-0.088,0.339,-0.279,0.339,-0.691C194.449,222.804,194.334,222.565,194.109,222.436zM189.91,230.079c-0.332,0,-0.603,-0.271,-0.603,-0.604c0,-0.333,0.271,-0.604,0.603,-0.604c0.333,0,0.604,0.271,0.604,0.604C190.514,229.81,190.243,230.079,189.91,230.079z" fill="#8C8C8C" />
    <path d="M187.393,218.917c-0.193,-0.111,-0.44,-0.167,-0.731,-0.167l-0.59,0c-0.2,0,-0.389,0.004,-0.562,0.016c-0.176,0.009,-0.345,0.035,-0.506,0.07c-0.168,0.041,-0.336,0.109,-0.496,0.202c-0.158,0.093,-0.319,0.222,-0.48,0.382c-0.334,0.314,-0.554,0.656,-0.652,1.017c-0.094,0.348,-0.143,0.735,-0.143,1.151l0,0.678l-0.483,0c-0.292,0,-0.539,0.059,-0.73,0.169c-0.227,0.13,-0.342,0.369,-0.342,0.708c0,0.412,0.185,0.604,0.341,0.693c0.191,0.111,0.438,0.166,0.73,0.166l0.483,0l0,5.362c0,0.293,0.057,0.539,0.167,0.73c0.13,0.227,0.367,0.341,0.708,0.341c0.411,0,0.603,-0.187,0.692,-0.341c0.111,-0.191,0.168,-0.438,0.168,-0.73l0,-5.36l0.92,0c0.293,0,0.54,-0.057,0.732,-0.168c0.155,-0.09,0.34,-0.28,0.34,-0.692c0,-0.34,-0.114,-0.579,-0.34,-0.708c-0.189,-0.111,-0.436,-0.17,-0.729,-0.17l-0.92,0l0,-0.678c0,-0.218,0.019,-0.41,0.056,-0.571c0.032,-0.141,0.103,-0.261,0.218,-0.367l0.002,-0.004l0.002,-0.002c0.082,-0.082,0.176,-0.126,0.29,-0.136c0.15,-0.015,0.339,-0.022,0.564,-0.022l0.56,0c0.291,0,0.539,-0.058,0.731,-0.168c0.154,-0.088,0.339,-0.281,0.339,-0.693C187.733,219.286,187.618,219.047,187.393,218.917z" fill="#8C8C8C" />
    <path d="M239.386,222.534c-0.089,-0.156,-0.282,-0.34,-0.693,-0.34c-0.339,0,-0.578,0.113,-0.707,0.34c-0.078,0.133,-0.127,0.293,-0.152,0.477l-0.021,-0.021c-0.216,-0.236,-0.466,-0.42,-0.747,-0.539c-0.277,-0.119,-0.563,-0.183,-0.849,-0.183l-0.709,0c-0.249,0,-0.466,0.015,-0.64,0.041c-0.182,0.026,-0.352,0.074,-0.51,0.14c-0.158,0.066,-0.313,0.15,-0.459,0.254c-0.139,0.097,-0.303,0.226,-0.486,0.377c-0.188,0.156,-0.342,0.302,-0.463,0.434c-0.127,0.141,-0.23,0.293,-0.306,0.455c-0.069,0.16,-0.122,0.337,-0.147,0.523c-0.026,0.178,-0.041,0.391,-0.041,0.631l0,2.386c0,0.24,0.015,0.451,0.041,0.631c0.025,0.188,0.078,0.361,0.147,0.521c0.074,0.164,0.179,0.318,0.306,0.457c0.119,0.129,0.274,0.274,0.463,0.433c0.186,0.153,0.35,0.28,0.486,0.379c0.146,0.103,0.299,0.188,0.459,0.254c0.158,0.065,0.329,0.112,0.51,0.14c0.174,0.026,0.389,0.039,0.64,0.039l0.709,0c0.298,0,0.591,-0.066,0.87,-0.199c0.244,-0.114,0.492,-0.291,0.73,-0.523l0,1.434c0,0.18,-0.025,0.334,-0.072,0.465c-0.043,0.119,-0.159,0.258,-0.344,0.406c-0.154,0.127,-0.309,0.217,-0.457,0.264c-0.15,0.049,-0.341,0.074,-0.563,0.074l-2.203,0c-0.293,0,-0.538,0.055,-0.732,0.166c-0.152,0.088,-0.34,0.282,-0.34,0.692c0,0.341,0.115,0.579,0.34,0.71c0.194,0.109,0.439,0.167,0.732,0.167l2.326,0c0.247,0,0.463,-0.015,0.638,-0.041c0.179,-0.026,0.351,-0.073,0.513,-0.14c0.153,-0.064,0.31,-0.15,0.455,-0.254c0.143,-0.101,0.305,-0.227,0.487,-0.379c0.185,-0.153,0.343,-0.299,0.463,-0.431c0.128,-0.141,0.229,-0.294,0.304,-0.456c0.071,-0.162,0.123,-0.338,0.148,-0.523c0.025,-0.182,0.041,-0.393,0.041,-0.631l0,-7.898C239.553,222.972,239.499,222.725,239.386,222.534zM237.817,226.994c0,0.188,-0.062,0.35,-0.188,0.49c-0.15,0.172,-0.394,0.403,-0.716,0.686l-0.002,0.003l-0.002,0.004c-0.139,0.13,-0.291,0.237,-0.453,0.325c-0.148,0.082,-0.325,0.121,-0.526,0.121L235.629,228.623c-0.222,0,-0.41,-0.021,-0.563,-0.072c-0.148,-0.049,-0.301,-0.137,-0.453,-0.264c-0.231,-0.186,-0.315,-0.322,-0.346,-0.404c-0.049,-0.131,-0.072,-0.285,-0.072,-0.465l0,-2.206c0,-0.18,0.023,-0.336,0.072,-0.467c0.029,-0.082,0.113,-0.217,0.346,-0.403c0.152,-0.127,0.305,-0.216,0.453,-0.265c0.153,-0.049,0.342,-0.072,0.563,-0.072l0.301,0c0.212,0,0.388,0.037,0.526,0.113c0.152,0.082,0.308,0.191,0.457,0.324c0.322,0.293,0.564,0.529,0.716,0.7c0.128,0.146,0.188,0.304,0.188,0.492L237.817,226.994z" fill="#8C8C8C" />
    <path d="M219.407,217.774c-0.914,0,-1.66,0.745,-1.66,1.66c0,0.916,0.746,1.66,1.66,1.66s1.66,-0.744,1.66,-1.66C221.067,218.519,220.321,217.774,219.407,217.774zM219.407,220.037c-0.332,0,-0.604,-0.27,-0.604,-0.603s0.271,-0.603,0.604,-0.603s0.604,0.27,0.604,0.603C220.011,219.767,219.739,220.037,219.407,220.037z" fill="#8C8C8C" />
    <path d="M230.093,228.042l-0.107,-3.419c-0.011,-0.178,-0.021,-0.338,-0.031,-0.489c-0.01,-0.162,-0.037,-0.322,-0.082,-0.476c-0.045,-0.158,-0.11,-0.309,-0.198,-0.453c-0.093,-0.146,-0.216,-0.289,-0.37,-0.42c-0.225,-0.192,-0.443,-0.334,-0.646,-0.416c-0.207,-0.084,-0.461,-0.127,-0.754,-0.127l-1.012,0c-0.259,0,-0.501,0.058,-0.716,0.164c-0.197,0.098,-0.39,0.203,-0.572,0.315l-0.003,0.002l-0.003,0.003l-0.837,0.555l0,-0.041c0,-0.291,-0.057,-0.539,-0.168,-0.733c-0.129,-0.226,-0.367,-0.339,-0.707,-0.339c-0.411,0,-0.604,0.185,-0.693,0.339c-0.109,0.194,-0.168,0.438,-0.168,0.733l0,6.099c0,0.295,0.059,0.539,0.168,0.734c0.09,0.153,0.282,0.338,0.693,0.338c0.34,0,0.578,-0.114,0.707,-0.338c0.111,-0.195,0.168,-0.439,0.168,-0.734L224.762,225.304l1.953,-1.215c0.04,-0.024,0.082,-0.048,0.121,-0.063c0.031,-0.016,0.07,-0.025,0.115,-0.031c0.049,-0.012,0.117,-0.016,0.195,-0.016l0.362,0c0.188,0,0.334,0.021,0.435,0.059c0.082,0.029,0.143,0.076,0.18,0.143c0.05,0.078,0.08,0.18,0.098,0.303c0.02,0.139,0.034,0.309,0.045,0.504l0.096,3.097c-0.457,0.297,-0.762,0.811,-0.762,1.394c0,0.917,0.746,1.661,1.66,1.661c0.916,0,1.66,-0.744,1.66,-1.661C230.919,228.867,230.586,228.329,230.093,228.042zM229.259,230.079c-0.334,0,-0.602,-0.271,-0.602,-0.604c0,-0.333,0.268,-0.604,0.602,-0.604c0.333,0,0.604,0.271,0.604,0.604C229.864,229.81,229.592,230.079,229.259,230.079z" fill="#8C8C8C" />
    <path d="M219.47,222.266l-1.193,0c-0.293,0,-0.539,0.059,-0.731,0.169c-0.226,0.129,-0.341,0.368,-0.341,0.708c0,0.412,0.186,0.604,0.341,0.691c0.192,0.113,0.438,0.168,0.731,0.168l0.545,0l0,5.362c0,0.293,0.055,0.539,0.168,0.73c0.127,0.227,0.365,0.341,0.707,0.341c0.41,0,0.604,-0.187,0.691,-0.341c0.111,-0.191,0.17,-0.438,0.17,-0.73L220.558,223.354c0,-0.386,-0.085,-0.656,-0.259,-0.83C220.127,222.352,219.854,222.266,219.47,222.266z" fill="#8C8C8C" />
   </g>
  </g>
 </g>
 <g partID="855174080">
  <g transform="translate(80.4495,170.244)">
   <g id="schematic">
    <rect fill="none" height="13.7197" stroke="#000000" stroke-width="0.680315" width="57.6" x="7.2" y="0.340157"/>
    <g transform="matrix(1, 0, 0, 1, 0, 3.25984)">
     <g fill="#555555" stroke="none">
      <rect height="0.680315" id="connector0pin" width="7.2" x="0" y="0"/>
      <rect height="0.680315" id="connector1pin" width="7.2" x="0" y="7.2"/>
      <rect height="0.680315" id="connector2pin" width="7.2" x="64.8" y="0"/>
      <rect height="0.680315" id="connector3pin" width="7.2" x="64.8" y="7.2"/>
     </g>
    </g>
    <g font-family="DroidSans">
     <g transform="matrix(1, 0, 0, 1, 0, 2.83465)">
      <g fill="#555555" font-size="3.49994">
       <text x="3.11439" y="0">1</text>
       <text x="3.0099" y="7.2">2</text>
       <text x="67.7289" y="0">3</text>
       <text x="67.7154" y="7.2">4</text>
      </g>
     </g>
     <g transform="matrix(1, 0, 0, 1, 7.2, 4.8189)">
      <g fill="#555555" font-size="3.49994">
       <text text-anchor="start" x="1.13386" y="0">VIN+</text>
       <text text-anchor="start" x="1.13386" y="7.2">GND-</text>
       <text text-anchor="end" x="56.4661" y="0">VOUT+</text>
       <text text-anchor="end" x="56.4661" y="7.2">GND-</text>
      </g>
     </g>
     <g transform="matrix(1, 0, 0, 1, 36, 6.51969)">
      <g fill="#000000" font-size="4.25197" text-anchor="middle">
       <text x="0" y="0">AMS1117</text>
       <text x="0" y="4.25197">5V regulator</text>
      </g>
     </g>
    </g>
    <g transform="matrix(1, 0, 0, 1, 0, 3.25984)">
     <g fill="none" stroke="none">
      <g height="0.680315" id="connector0terminal" width="0.680315" x="0" y="0"/>
      <g height="0.680315" id="connector1terminal" width="0.680315" x="0" y="7.2"/>
      <g height="0.680315" id="connector2terminal" width="0.680315" x="71.3197" y="0"/>
      <g height="0.680315" id="connector3terminal" width="0.680315" x="71.3197" y="7.2"/>
     </g>
    </g>
   </g>
  </g>
 </g>
 <g partID="855174090">
  <g transform="translate(26.2131,188.594)">
   <g transform="matrix(0,-1,1,0,0,0)">
    <g id="schematic" >
     <line class="other" stroke="#000000" stroke-linecap="round" stroke-width="1.152" x1="11.15" x2="11.15"  y1="0.576" y2="22.176"/>
     <line class="other" stroke="#000000" stroke-linecap="round" stroke-width="1.152" x1="14.75" x2="14.75"  y1="7.776" y2="14.976"/>
     <line class="other" stroke="#000000" stroke-linecap="round" stroke-width="1.152" x1="18.3501" x2="18.3501"  y1="0.576" y2="22.176"/>
     <line class="other" stroke="#000000" stroke-linecap="round" stroke-width="1.152" x1="21.9501" x2="21.9501"  y1="7.776" y2="14.976"/>
     <line class="other" stroke="#000000" stroke-linecap="round" stroke-width="0.432002" x1="7.55002" x2="10.43"  y1="11.376" y2="11.376"/>
     <line class="pin" connectorname="-" id="connector0pin" stroke="#787878" stroke-linecap="round" stroke-width="0.700001" x1="29.1502" x2="21.9501"  y1="11.376" y2="11.376"/>
     <g class="terminal" fill="none" height="0.000283465" id="connector0terminal" stroke="none" stroke-width="0" width="0.000283466" x="29.1502"  y="11.376"/>
     <text class="text" fill="#8c8c8c" font-family="'Droid Sans'" font-size="2.50001" stroke="none" stroke-width="0" text-anchor="middle" x="25.5501"  y="10.326">1</text>
     <line class="pin" connectorname="+" id="connector1pin" stroke="#787878" stroke-linecap="round" stroke-width="0.700001" x1="0.350001" x2="7.55002"  y1="11.376" y2="11.376"/>
     <g class="terminal" fill="none" height="0.000283465" id="connector1terminal" stroke="none" stroke-width="0" width="0.000283466" x="0.350001"  y="11.376"/>
     <text class="text" fill="#8c8c8c" font-family="'Droid Sans'" font-size="2.50001" stroke="none" stroke-width="0" text-anchor="middle" x="3.95001"  y="10.326">2</text>
    </g>
   </g>
  </g>
 </g>
 <g partID="855174100">
  <g transform="translate(187.75,166.294)">
   <g id="schematic">
    <line class="other" stroke="#000000" stroke-linecap="round" stroke-width="0.72" x1="0.36" x2="14.76" y1="7.54999" y2="7.54999"/>
    <line class="other" stroke="#000000" stroke-linecap="round" stroke-width="0.432" x1="7.56" x2="7.56" y1="10.43" y2="14.75"/>
    <path class="other" d="M7.56,10.3846A11.4922,11.4922,0,0,1,14.616,12.806" fill="none" stroke="#000000" stroke-width="0.72"/>
    <path class="other" d="M0.567213,12.7952A11.5191,11.5191,0,0,1,7.56,10.4303" fill="none" stroke="#000000" stroke-width="0.72"/>
    <rect class="other" fill="#000000" height="0.36" stroke="none" stroke-linecap="round" stroke-width="0" width="2.52" x="1.17354" y="5.29645"/>
    <rect class="other" fill="#000000" height="2.52" stroke="none" stroke-linecap="round" stroke-width="0" width="0.36" x="2.25354" y="4.21645"/>
    <line class="pin" connectorname="+" id="connector1pin" stroke="#787878" stroke-linecap="round" stroke-width="0.699999" x1="7.56" x2="7.56" y1="0.349999" y2="7.54999"/>
    <g class="terminal" fill="none" height="0.000283465" id="connector1terminal" stroke="none" stroke-width="0" width="0.000283465" x="7.56" y="0.349999"/>
    <g transform="matrix(1, 0, 0, 1, 6.50999, 3.94999)">
     <g>
      <g transform="rotate(270)">
       <g>
        <text class="text" fill="#8c8c8c" font-family="'Droid Sans'" font-size="2.5" stroke="none" stroke-width="0" text-anchor="middle" x="0" y="0">2</text>
       </g>
      </g>
     </g>
    </g>
    <line class="pin" connectorname="-" id="connector0pin" stroke="#787878" stroke-linecap="round" stroke-width="0.699999" x1="7.56" x2="7.56" y1="21.95" y2="14.75"/>
    <g class="terminal" fill="none" height="0.000283465" id="connector0terminal" stroke="none" stroke-width="0" width="0.000283465" x="7.56" y="21.95"/>
    <g transform="matrix(1, 0, 0, 1, 6.50999, 18.35)">
     <g>
      <g transform="rotate(270)">
       <g>
        <text class="text" fill="#8c8c8c" font-family="'Droid Sans'" font-size="2.5" stroke="none" stroke-width="0" text-anchor="middle" x="0" y="0">1</text>
       </g>
      </g>
     </g>
    </g>
   </g>
  </g>
 </g>
 <g partID="855174960">
  <g transform="translate(29.3494,43.8843)">
   <g gorn="0.3" id="schematic" >
    <rect fill="none" gorn="0.3.0" height="64.8" id="symbol" stroke="#000000" stroke-linecap="round" stroke-linejoin="round" stroke-width="0.72" width="57.6" x="7.56"  y="0.36"/>
    <text fill="#000000" font-family="Droid Sans" font-size="4.32" gorn="0.3.1" id="label" text-anchor="middle" x="36.36"  y="32.76">esp32 c3</text>
    <text fill="#555555" font-family="Droid Sans" font-size="2.52" gorn="0.3.2" id="pin0num" text-anchor="end" x="5.4"  y="6.12">1</text>
    <text fill="#555555" font-family="Droid Sans" font-size="3.528" gorn="0.3.3" id="pin0label" text-anchor="start" x="9"  y="8.424">5</text>
    <text fill="#555555" font-family="Droid Sans" font-size="2.52" gorn="0.3.4" id="pin1num" text-anchor="end" x="5.4"  y="13.32">2</text>
    <text fill="#555555" font-family="Droid Sans" font-size="3.528" gorn="0.3.5" id="pin1label" text-anchor="start" x="9"  y="15.624">6</text>
    <text fill="#555555" font-family="Droid Sans" font-size="2.52" gorn="0.3.6" id="pin2num" text-anchor="end" x="5.4"  y="20.52">3</text>
    <text fill="#555555" font-family="Droid Sans" font-size="3.528" gorn="0.3.7" id="pin2label" text-anchor="start" x="9"  y="22.824">7</text>
    <text fill="#555555" font-family="Droid Sans" font-size="2.52" gorn="0.3.8" id="pin3num" text-anchor="end" x="5.4"  y="27.72">4</text>
    <text fill="#555555" font-family="Droid Sans" font-size="3.528" gorn="0.3.9" id="pin3label" text-anchor="start" x="9"  y="30.024">8</text>
    <text fill="#555555" font-family="Droid Sans" font-size="2.52" gorn="0.3.10" id="pin4num" text-anchor="end" x="5.4"  y="34.92">5</text>
    <text fill="#555555" font-family="Droid Sans" font-size="3.528" gorn="0.3.11" id="pin4label" text-anchor="start" x="9"  y="37.224">9</text>
    <text fill="#555555" font-family="Droid Sans" font-size="2.52" gorn="0.3.12" id="pin5num" text-anchor="end" x="5.4"  y="42.12">6</text>
    <text fill="#555555" font-family="Droid Sans" font-size="3.528" gorn="0.3.13" id="pin5label" text-anchor="start" x="9"  y="44.424">10</text>
    <text fill="#555555" font-family="Droid Sans" font-size="2.52" gorn="0.3.14" id="pin6num" text-anchor="end" x="5.4"  y="49.32">7</text>
    <text fill="#555555" font-family="Droid Sans" font-size="3.528" gorn="0.3.15" id="pin6label" text-anchor="start" x="9"  y="51.624">20</text>
    <text fill="#555555" font-family="Droid Sans" font-size="2.52" gorn="0.3.16" id="pin7num" text-anchor="end" x="5.4"  y="56.52">8</text>
    <text fill="#555555" font-family="Droid Sans" font-size="3.528" gorn="0.3.17" id="pin7label" text-anchor="start" x="9"  y="58.824">21</text>
    <text fill="#555555" font-family="Droid Sans" font-size="2.52" gorn="0.3.18" id="pin8num" text-anchor="start" x="67.32"  y="56.52">9</text>
    <text fill="#555555" font-family="Droid Sans" font-size="3.528" gorn="0.3.19" id="pin8label" text-anchor="end" x="63.72"  y="8.39014">5V</text>
    <text fill="#555555" font-family="Droid Sans" font-size="2.52" gorn="0.3.20" id="pin9num" text-anchor="start" x="67.32"  y="49.32">10</text>
    <text fill="#555555" font-family="Droid Sans" font-size="3.528" gorn="0.3.21" id="pin9label" text-anchor="end" x="63.72"  y="15.5867">GND</text>
    <text fill="#555555" font-family="Droid Sans" font-size="2.52" gorn="0.3.22" id="pin10num" text-anchor="start" x="67.32"  y="42.12">11</text>
    <text fill="#555555" font-family="Droid Sans" font-size="3.528" gorn="0.3.23" id="pin10label" text-anchor="end" x="63.72"  y="22.7867">3.3V</text>
    <text fill="#555555" font-family="Droid Sans" font-size="2.52" gorn="0.3.24" id="pin11num" text-anchor="start" x="67.32"  y="34.92">12</text>
    <text fill="#555555" font-family="Droid Sans" font-size="3.528" gorn="0.3.25" id="pin11label" text-anchor="end" x="63.72"  y="29.9643">4</text>
    <text fill="#555555" font-family="Droid Sans" font-size="2.52" gorn="0.3.26" id="pin12num" text-anchor="start" x="67.32"  y="27.72">13</text>
    <text fill="#555555" font-family="Droid Sans" font-size="3.528" gorn="0.3.27" id="pin12label" text-anchor="end" x="63.72"  y="37.1867">3</text>
    <text fill="#555555" font-family="Droid Sans" font-size="2.52" gorn="0.3.28" id="pin13num" text-anchor="start" x="67.32"  y="20.52">14</text>
    <text fill="#555555" font-family="Droid Sans" font-size="3.528" gorn="0.3.29" id="pin13label" text-anchor="end" x="63.72"  y="44.3867">2</text>
    <text fill="#555555" font-family="Droid Sans" font-size="2.52" gorn="0.3.30" id="pin14num" text-anchor="start" x="67.32"  y="13.32">15</text>
    <text fill="#555555" font-family="Droid Sans" font-size="3.528" gorn="0.3.31" id="pin14label" text-anchor="end" x="63.72"  y="51.6225">1</text>
    <text fill="#555555" font-family="Droid Sans" font-size="2.52" gorn="0.3.32" id="pin15num" text-anchor="start" x="67.32"  y="6.12">16</text>
    <text fill="#555555" font-family="Droid Sans" font-size="3.528" gorn="0.3.33" id="pin15label" text-anchor="end" x="63.72"  y="58.7901">0</text>
    <line fill="none" gorn="0.3.34" id="connector0pin" stroke="#555555" stroke-linecap="round" stroke-width="0.72" x1="7.56" x2="0.36"  y1="7.56" y2="7.56"/>
    <g fill="none" gorn="0.3.35" height="0.72" id="connector0terminal" stroke="none" stroke-width="0" width="0.72" x="0"  y="7.2"/>
    <line fill="none" gorn="0.3.36" id="connector1pin" stroke="#555555" stroke-linecap="round" stroke-width="0.72" x1="7.56" x2="0.36"  y1="14.76" y2="14.76"/>
    <g fill="none" gorn="0.3.37" height="0.72" id="connector1terminal" stroke="none" stroke-width="0" width="0.72" x="0"  y="14.4"/>
    <line fill="none" gorn="0.3.38" id="connector2pin" stroke="#555555" stroke-linecap="round" stroke-width="0.72" x1="7.56" x2="0.36"  y1="21.96" y2="21.96"/>
    <g fill="none" gorn="0.3.39" height="0.72" id="connector2terminal" stroke="none" stroke-width="0" width="0.72" x="0"  y="21.6"/>
    <line fill="none" gorn="0.3.40" id="connector3pin" stroke="#555555" stroke-linecap="round" stroke-width="0.72" x1="7.56" x2="0.36"  y1="29.16" y2="29.16"/>
    <g fill="none" gorn="0.3.41" height="0.72" id="connector3terminal" stroke="none" stroke-width="0" width="0.72" x="0"  y="28.8"/>
    <line fill="none" gorn="0.3.42" id="connector4pin" stroke="#555555" stroke-linecap="round" stroke-width="0.72" x1="7.56" x2="0.36"  y1="36.36" y2="36.36"/>
    <g fill="none" gorn="0.3.43" height="0.72" id="connector4terminal" stroke="none" stroke-width="0" width="0.72" x="0"  y="36"/>
    <line fill="none" gorn="0.3.44" id="connector5pin" stroke="#555555" stroke-linecap="round" stroke-width="0.72" x1="7.56" x2="0.36"  y1="43.56" y2="43.56"/>
    <g fill="none" gorn="0.3.45" height="0.72" id="connector5terminal" stroke="none" stroke-width="0" width="0.72" x="0"  y="43.2"/>
    <line fill="none" gorn="0.3.46" id="connector6pin" stroke="#555555" stroke-linecap="round" stroke-width="0.72" x1="7.56" x2="0.36"  y1="50.76" y2="50.76"/>
    <g fill="none" gorn="0.3.47" height="0.72" id="connector6terminal" stroke="none" stroke-width="0" width="0.72" x="0"  y="50.4"/>
    <line fill="none" gorn="0.3.48" id="connector7pin" stroke="#555555" stroke-linecap="round" stroke-width="0.72" x1="7.56" x2="0.36"  y1="57.96" y2="57.96"/>
    <g fill="none" gorn="0.3.49" height="0.72" id="connector7terminal" stroke="none" stroke-width="0" width="0.72" x="0"  y="57.6"/>
    <line fill="none" gorn="0.3.50" id="connector8pin" stroke="#555555" stroke-linecap="round" stroke-width="0.72" x1="65.16" x2="72.36"  y1="57.96" y2="57.96"/>
    <g fill="none" gorn="0.3.51" height="0.72" id="connector8terminal" stroke="none" stroke-width="0" width="0.72" x="72"  y="57.6"/>
    <line fill="none" gorn="0.3.52" id="connector9pin" stroke="#555555" stroke-linecap="round" stroke-width="0.72" x1="65.16" x2="72.36"  y1="50.76" y2="50.76"/>
    <g fill="none" gorn="0.3.53" height="0.72" id="connector9terminal" stroke="none" stroke-width="0" width="0.72" x="72"  y="50.4"/>
    <line fill="none" gorn="0.3.54" id="connector10pin" stroke="#555555" stroke-linecap="round" stroke-width="0.72" x1="65.16" x2="72.36"  y1="43.56" y2="43.56"/>
    <g fill="none" gorn="0.3.55" height="0.72" id="connector10terminal" stroke="none" stroke-width="0" width="0.72" x="72"  y="43.2"/>
    <line fill="none" gorn="0.3.56" id="connector11pin" stroke="#555555" stroke-linecap="round" stroke-width="0.72" x1="65.16" x2="72.36"  y1="36.36" y2="36.36"/>
    <g fill="none" gorn="0.3.57" height="0.72" id="connector11terminal" stroke="none" stroke-width="0" width="0.72" x="72"  y="36"/>
    <line fill="none" gorn="0.3.58" id="connector12pin" stroke="#555555" stroke-linecap="round" stroke-width="0.72" x1="65.16" x2="72.36"  y1="29.16" y2="29.16"/>
    <g fill="none" gorn="0.3.59" height="0.72" id="connector12terminal" stroke="none" stroke-width="0" width="0.72" x="72"  y="28.8"/>
    <line fill="none" gorn="0.3.60" id="connector13pin" stroke="#555555" stroke-linecap="round" stroke-width="0.72" x1="65.16" x2="72.36"  y1="21.96" y2="21.96"/>
    <g fill="none" gorn="0.3.61" height="0.72" id="connector13terminal" stroke="none" stroke-width="0" width="0.72" x="72"  y="21.6"/>
    <line fill="none" gorn="0.3.62" id="connector14pin" stroke="#555555" stroke-linecap="round" stroke-width="0.72" x1="65.16" x2="72.36"  y1="14.76" y2="14.76"/>
    <g fill="none" gorn="0.3.63" height="0.72" id="connector14terminal" stroke="none" stroke-width="0" width="0.72" x="72"  y="14.4"/>
    <line fill="none" gorn="0.3.64" id="connector15pin" stroke="#555555" stroke-linecap="round" stroke-width="0.72" x1="65.16" x2="72.36"  y1="7.56" y2="7.56"/>
    <g fill="none" gorn="0.3.65" height="0.72" id="connector15terminal" stroke="none" stroke-width="0" width="0.72" x="72"  y="7.2"/>
   </g>
  </g>
 </g>
 <g partID="855179560">
  <g transform="translate(149.492,41.2014)">
   <g gorn="0.1.1" id="schematic" >
    <rect fill="white" height="36" stroke="black" stroke-linecap="round" stroke-width="0.9" width="43.2" x="16.6677"  y="17.4331"/>
    <line fill="none" gorn="0.1.1.1" id="connector5pin" stroke="#787878" stroke-linecap="round" stroke-width="0.699874" x1="2.26772" x2="16.6677"  y1="31.8331" y2="31.8331"/>
    <path d="M19.8709,33.0803l-0.283465,-0.765354,-0.935433,0,-0.255118,0.765354,-0.340157,0,0.935433,-2.49449,0.283465,0,0.935433,2.49449,-0.340157,0zm-0.368504,-1.04882l-0.255118,-0.737008c0,0,-0.0283465,-0.0283465,-0.0283465,-0.0566929,0,-0.0283465,-0.0283465,-0.0566929,-0.0283465,-0.113386,0,-0.0283465,-0.0283465,-0.0566929,-0.0283465,-0.0850394,0,-0.0566929,-0.0283465,-0.0850394,-0.0283465,-0.113386,0,0.0283465,-0.0283465,0.0566929,-0.0283465,0.113386,0,0.0283465,-0.0283465,0.0566929,-0.0283465,0.0850394,-0.0283465,0.0566929,-0.0283465,0.0850394,-0.0283465,0.113386,-0.0283465,0.0283465,-0.0283465,0.0566929,-0.0283465,0.0566929l-0.255118,0.737008,0.737008,0z" fill="#555555" fill-rule="nonzero" />
    <path d="M22.3937,33.0803l-0.368504,0,-1.19055,-2.06929,-0.0283465,0c0.0283465,0.0850394,0.0283465,0.170079,0.0283465,0.283465,0,0.0566929,0,0.141732,0,0.226772,0.0283465,0.0850394,0.0283465,0.141732,0.0283465,0.198425l0,1.36063,-0.340157,0,0,-2.49449,0.39685,0,1.19055,2.06929,0,0c0,-0.0850394,0,-0.170079,0,-0.255118,0,-0.0566929,0,-0.0850394,0,-0.113386,0,-0.0566929,-0.0283465,-0.0850394,-0.0283465,-0.113386,0,-0.0566929,0,-0.0850394,0,-0.113386,0,-0.0283465,0,-0.0850394,0,-0.113386l0,-1.36063,0.311811,0,0,2.49449z" fill="#555555" fill-rule="nonzero" gorn="0.1.1.3" id="1" />
    <polygon fill="#555555" fill-rule="nonzero" gorn="0.1.1.4" id="2" points="23.811,33.0803,23.4992,33.0803,23.4992,30.8693,22.7906,30.8693,22.7906,30.5858,24.5197,30.5858,24.5197,30.8693,23.811,30.8693" />
    <g fill="none" gorn="0.1.1.5" height="0.699871" id="connector5terminal" text-anchor="start" width="0.699871" x="1.55906"  y="31.4929"/>
    <line fill="none" gorn="0.1.1.6" id="connector4pin" stroke="#787878" stroke-linecap="round" stroke-width="0.699874" x1="38.2677" x2="38.2677"  y1="3.03307" y2="17.4331"/>
    <path d="M36.9354,19.6724l0.340157,0,-0.850394,2.52283,-0.311811,0,-0.822047,-2.52283,0.340157,0,0.48189,1.5874c0.0566929,0.113386,0.0850394,0.226772,0.0850394,0.311811,0.0283465,0.0850394,0.0566929,0.198425,0.0850394,0.283465,0,-0.0850394,0.0283465,-0.198425,0.0566929,-0.283465,0.0283465,-0.0850394,0.0566929,-0.198425,0.0850394,-0.311811l0.510236,-1.5874z" fill="#555555" fill-rule="nonzero" />
    <path d="M38.5512,19.9276c-0.113386,0,-0.226772,0.0283465,-0.311811,0.0850394,-0.113386,0.0283465,-0.198425,0.113386,-0.255118,0.198425,-0.0850394,0.0850394,-0.141732,0.170079,-0.170079,0.311811,-0.0283465,0.113386,-0.0566929,0.255118,-0.0566929,0.425197,0,0.141732,0,0.283465,0.0566929,0.425197,0.0283465,0.113386,0.0850394,0.226772,0.141732,0.311811,0.0566929,0.0850394,0.141732,0.141732,0.255118,0.198425,0.0850394,0.0283465,0.198425,0.0566929,0.340157,0.0566929,0.113386,0,0.198425,0,0.283465,-0.0283465,0.113386,-0.0283465,0.198425,-0.0566929,0.283465,-0.0566929l0,0.255118c-0.0566929,0.0283465,-0.0850394,0.0283465,-0.141732,0.0566929,-0.0283465,0,-0.0850394,0.0283465,-0.141732,0.0283465,-0.0283465,0,-0.0850394,0.0283465,-0.141732,0.0283465,-0.0566929,0,-0.113386,0,-0.198425,0,-0.170079,0,-0.340157,-0.0283465,-0.48189,-0.0850394,-0.141732,-0.0850394,-0.255118,-0.170079,-0.340157,-0.283465,-0.0850394,-0.113386,-0.141732,-0.226772,-0.198425,-0.39685,-0.0283465,-0.170079,-0.0566929,-0.340157,-0.0566929,-0.538583,0,-0.170079,0.0283465,-0.340157,0.0850394,-0.510236,0.0283465,-0.141732,0.113386,-0.283465,0.198425,-0.39685,0.113386,-0.113386,0.226772,-0.198425,0.368504,-0.255118,0.141732,-0.0850394,0.311811,-0.113386,0.48189,-0.113386,0.141732,0,0.255118,0.0283465,0.368504,0.0566929,0.113386,0,0.198425,0.0566929,0.283465,0.0850394l-0.113386,0.283465c-0.0850394,-0.0283465,-0.170079,-0.0850394,-0.255118,-0.0850394,-0.0850394,-0.0283465,-0.170079,-0.0566929,-0.283465,-0.0566929z" fill="#555555" fill-rule="nonzero" gorn="0.1.1.8" id="1" />
    <path d="M40.5921,19.9276c-0.113386,0,-0.226772,0.0283465,-0.340157,0.0850394,-0.0850394,0.0283465,-0.170079,0.113386,-0.226772,0.198425,-0.0850394,0.0850394,-0.141732,0.170079,-0.170079,0.311811,-0.0566929,0.113386,-0.0566929,0.255118,-0.0566929,0.425197,0,0.141732,0,0.283465,0.0566929,0.425197,0.0283465,0.113386,0.0850394,0.226772,0.141732,0.311811,0.0566929,0.0850394,0.141732,0.141732,0.255118,0.198425,0.0850394,0.0283465,0.198425,0.0566929,0.340157,0.0566929,0.113386,0,0.198425,0,0.283465,-0.0283465,0.113386,-0.0283465,0.198425,-0.0566929,0.283465,-0.0566929l0,0.255118c-0.0566929,0.0283465,-0.0850394,0.0283465,-0.141732,0.0566929,-0.0283465,0,-0.0850394,0.0283465,-0.141732,0.0283465,-0.0283465,0,-0.0850394,0.0283465,-0.141732,0.0283465,-0.0566929,0,-0.113386,0,-0.198425,0,-0.170079,0,-0.340157,-0.0283465,-0.48189,-0.0850394,-0.141732,-0.0850394,-0.255118,-0.170079,-0.340157,-0.283465,-0.0850394,-0.113386,-0.141732,-0.226772,-0.198425,-0.39685,-0.0283465,-0.170079,-0.0566929,-0.340157,-0.0566929,-0.538583,0,-0.170079,0.0283465,-0.340157,0.0850394,-0.510236,0.0283465,-0.141732,0.113386,-0.283465,0.198425,-0.39685,0.113386,-0.113386,0.226772,-0.198425,0.368504,-0.255118,0.141732,-0.0850394,0.311811,-0.113386,0.48189,-0.113386,0.141732,0,0.255118,0.0283465,0.368504,0.0566929,0.113386,0,0.198425,0.0566929,0.283465,0.0850394l-0.113386,0.283465c-0.0850394,-0.0283465,-0.170079,-0.0850394,-0.255118,-0.0850394,-0.0850394,-0.0283465,-0.170079,-0.0566929,-0.283465,-0.0566929z" fill="#555555" fill-rule="nonzero" gorn="0.1.1.9" id="2" />
    <g fill="none" gorn="0.1.1.10" height="0.699871" id="connector4terminal" text-anchor="end" width="0.699871" x="37.9276"  y="2.32441"/>
    <line fill="none" gorn="0.1.1.11" id="connector3pin" stroke="#787878" stroke-linecap="round" stroke-width="0.699874" x1="31.0677" x2="31.0677"  y1="53.4331" y2="67.8331"/>
    <path d="M28.715,50.7118l0.822047,0,0,1.2189c-0.0566929,0.0283465,-0.113386,0.0283465,-0.170079,0.0566929,-0.0566929,0,-0.141732,0.0283465,-0.198425,0.0283465,-0.0566929,0.0283465,-0.141732,0.0283465,-0.226772,0.0283465,-0.0566929,0,-0.141732,0.0283465,-0.226772,0.0283465,-0.170079,0,-0.340157,-0.0566929,-0.48189,-0.113386,-0.141732,-0.0566929,-0.255118,-0.141732,-0.340157,-0.255118,-0.0850394,-0.113386,-0.170079,-0.226772,-0.226772,-0.39685,-0.0283465,-0.170079,-0.0566929,-0.340157,-0.0566929,-0.538583,0,-0.198425,0.0283465,-0.368504,0.0850394,-0.538583,0.0283465,-0.141732,0.113386,-0.283465,0.226772,-0.39685,0.113386,-0.113386,0.226772,-0.198425,0.368504,-0.255118,0.170079,-0.0566929,0.340157,-0.0850394,0.538583,-0.0850394,0.113386,0,0.255118,0,0.368504,0.0283465,0.113386,0.0283465,0.226772,0.0566929,0.311811,0.113386l-0.113386,0.283465c-0.0566929,-0.0283465,-0.0850394,-0.0283465,-0.141732,-0.0566929,-0.0566929,-0.0283465,-0.0850394,-0.0283465,-0.141732,-0.0566929,-0.0566929,0,-0.113386,0,-0.170079,-0.0283465,-0.0283465,0,-0.0850394,0,-0.141732,0,-0.141732,0,-0.255118,0.0283465,-0.368504,0.0566929,-0.113386,0.0566929,-0.198425,0.113386,-0.283465,0.198425,-0.0566929,0.0850394,-0.113386,0.198425,-0.141732,0.311811,-0.0566929,0.141732,-0.0566929,0.283465,-0.0566929,0.425197,0,0.141732,0,0.283465,0.0283465,0.425197,0.0283465,0.113386,0.0850394,0.226772,0.170079,0.311811,0.0566929,0.0850394,0.141732,0.141732,0.255118,0.198425,0.113386,0.0566929,0.226772,0.0850394,0.39685,0.0850394,0.0283465,0,0.0850394,0,0.113386,-0.0283465,0.0566929,0,0.0850394,0,0.141732,0,0.0283465,0,0.0566929,0,0.0850394,0,0.0283465,-0.0283465,0.0566929,-0.0283465,0.0850394,-0.0283465l0,-0.737008,-0.510236,0,0,-0.283465z" fill="#555555" fill-rule="nonzero" />
    <path d="M32.0031,52.0157l-0.368504,0,-1.19055,-2.06929,-0.0283465,0c0.0283465,0.0850394,0.0283465,0.198425,0.0283465,0.283465,0,0.0566929,0,0.141732,0,0.226772,0.0283465,0.0850394,0.0283465,0.141732,0.0283465,0.198425l0,1.36063,-0.340157,0,0,-2.49449,0.39685,0,1.19055,2.06929,0,0c0,-0.0850394,0,-0.170079,0,-0.255118,0,-0.0566929,0,-0.0850394,0,-0.113386,-0.0283465,-0.0566929,-0.0283465,-0.0850394,-0.0283465,-0.113386,0,-0.0566929,0,-0.0850394,0,-0.113386,0,-0.0283465,0,-0.0850394,0,-0.113386l0,-1.36063,0.311811,0,0,2.49449z" fill="#555555" fill-rule="nonzero" gorn="0.1.1.13" id="1" />
    <path d="M34.526,50.7402c0,0.226772,-0.0283465,0.39685,-0.0850394,0.566929,-0.0566929,0.170079,-0.113386,0.283465,-0.226772,0.39685,-0.113386,0.113386,-0.226772,0.198425,-0.368504,0.226772,-0.170079,0.0566929,-0.340157,0.0850394,-0.538583,0.0850394l-0.623622,0,0,-2.49449,0.708661,0c0.170079,0,0.340157,0.0283465,0.48189,0.0850394,0.141732,0.0566929,0.255118,0.141732,0.340157,0.226772,0.113386,0.113386,0.198425,0.226772,0.226772,0.39685,0.0566929,0.141732,0.0850394,0.311811,0.0850394,0.510236zm-0.340157,0.0283465c0,-0.170079,0,-0.311811,-0.0566929,-0.425197,-0.0283465,-0.141732,-0.0850394,-0.226772,-0.141732,-0.311811,-0.0850394,-0.0850394,-0.170079,-0.141732,-0.283465,-0.170079,-0.0850394,-0.0566929,-0.226772,-0.0566929,-0.340157,-0.0566929l-0.340157,0,0,1.95591,0.255118,0c0.311811,0,0.538583,-0.0850394,0.680315,-0.255118,0.170079,-0.170079,0.226772,-0.425197,0.226772,-0.737008z" fill="#555555" fill-rule="nonzero" gorn="0.1.1.14" id="2" />
    <g fill="none" gorn="0.1.1.15" height="0.699871" id="connector3terminal" text-anchor="start" width="0.699871" x="30.7276"  y="67.8331"/>
    <line fill="none" gorn="0.1.1.16" id="connector2pin" stroke="#787878" stroke-linecap="round" stroke-width="0.699874" x1="59.8677" x2="74.2677"  y1="39.0331" y2="39.0331"/>
    <path d="M54.9071,39.2598l0,1.02047,-0.311811,0,0,-2.49449,0.595276,0c0.311811,0,0.538583,0.0566929,0.680315,0.170079,0.141732,0.113386,0.226772,0.311811,0.226772,0.538583,0,0.0850394,-0.0283465,0.170079,-0.0566929,0.255118,-0.0283465,0.0850394,-0.0566929,0.141732,-0.113386,0.198425,-0.0283465,0.0566929,-0.0850394,0.0850394,-0.141732,0.141732,-0.0566929,0.0283465,-0.113386,0.0566929,-0.198425,0.0850394l0.680315,1.10551,-0.368504,0,-0.595276,-1.02047,-0.39685,0zm0,-0.283465l0.283465,0c0.0850394,0,0.198425,0,0.255118,-0.0283465,0.0850394,-0.0283465,0.141732,-0.0566929,0.170079,-0.0850394,0.0566929,-0.0283465,0.0850394,-0.0850394,0.113386,-0.141732,0.0283465,-0.0566929,0.0283465,-0.141732,0.0283465,-0.226772,0,-0.0566929,-0.0283465,-0.141732,-0.0283465,-0.198425,-0.0283465,-0.0566929,-0.0566929,-0.113386,-0.113386,-0.141732,-0.0566929,-0.0283465,-0.113386,-0.0566929,-0.170079,-0.0850394,-0.0850394,0,-0.170079,0,-0.255118,0l-0.283465,0,0,0.907087z" fill="#555555" fill-rule="nonzero" />
    <polygon fill="#555555" fill-rule="nonzero" gorn="0.1.1.18" id="1" points="58.2236,40.2803,57.8835,40.2803,57.2598,39.2031,56.6362,40.2803,56.3244,40.2803,57.0898,38.9764,56.3811,37.7858,56.7213,37.7858,57.2882,38.7496,57.8551,37.7858,58.1669,37.7858,57.4583,38.9764" />
    <g fill="none" gorn="0.1.1.19" height="0.699871" id="connector2terminal" text-anchor="end" width="0.699871" x="74.2677"  y="38.6929"/>
    <line fill="none" gorn="0.1.1.20" id="connector1pin" stroke="#787878" stroke-linecap="round" stroke-width="0.699874" x1="59.8677" x2="74.2677"  y1="31.8331" y2="31.8331"/>
    <polygon fill="#555555" fill-rule="nonzero" points="55.3323,33.0803,54.9921,33.0803,54.9921,30.8693,54.2835,30.8693,54.2835,30.5858,56.0409,30.5858,56.0409,30.8693,55.3323,30.8693" />
    <polygon fill="#555555" fill-rule="nonzero" gorn="0.1.1.22" id="1" points="57.9969,33.0803,57.6283,33.0803,57.0047,32.0031,56.3811,33.0803,56.0693,33.0803,56.8346,31.7764,56.126,30.5858,56.4661,30.5858,57.0331,31.5496,57.6,30.5858,57.9118,30.5858,57.2031,31.7764" />
    <g fill="none" gorn="0.1.1.23" height="0.699871" id="connector1terminal" text-anchor="end" width="0.699871" x="74.2677"  y="31.4929"/>
    <line fill="none" gorn="0.1.1.24" id="connector0pin" stroke="#787878" stroke-linecap="round" stroke-width="0.699874" x1="45.4394" x2="45.4394"  y1="53.4331" y2="67.8331"/>
    <path d="M44.3055,51.3638c0,0.113386,-0.0283465,0.198425,-0.0566929,0.283465,-0.0566929,0.0850394,-0.113386,0.170079,-0.170079,0.226772,-0.0850394,0.0566929,-0.170079,0.113386,-0.283465,0.141732,-0.0850394,0.0283465,-0.226772,0.0566929,-0.340157,0.0566929,-0.141732,0,-0.255118,-0.0283465,-0.368504,-0.0566929,-0.113386,0,-0.198425,-0.0283465,-0.255118,-0.0850394l0,-0.283465c0.0283465,0,0.0566929,0.0283465,0.113386,0.0566929,0.0566929,0,0.113386,0.0283465,0.170079,0.0283465,0.0566929,0.0283465,0.113386,0.0283465,0.170079,0.0283465,0.0566929,0.0283465,0.113386,0.0283465,0.170079,0.0283465,0.170079,0,0.311811,-0.0283465,0.39685,-0.113386,0.0850394,-0.0566929,0.113386,-0.170079,0.113386,-0.283465,0,-0.0566929,0,-0.113386,0,-0.170079,-0.0283465,-0.0283465,-0.0566929,-0.0850394,-0.0850394,-0.113386,-0.0566929,-0.0566929,-0.113386,-0.0850394,-0.170079,-0.113386,-0.0850394,-0.0283465,-0.170079,-0.0850394,-0.283465,-0.113386,-0.0850394,-0.0566929,-0.170079,-0.0850394,-0.255118,-0.141732,-0.0566929,-0.0566929,-0.141732,-0.0850394,-0.170079,-0.170079,-0.0566929,-0.0566929,-0.0850394,-0.113386,-0.113386,-0.198425,-0.0283465,-0.0566929,-0.0283465,-0.141732,-0.0283465,-0.255118,0,-0.0850394,0,-0.170079,0.0566929,-0.255118,0.0283465,-0.0850394,0.0850394,-0.141732,0.141732,-0.198425,0.0566929,-0.0566929,0.141732,-0.113386,0.226772,-0.141732,0.113386,-0.0283465,0.198425,-0.0283465,0.311811,-0.0283465,0.141732,0,0.255118,0,0.368504,0.0283465,0.113386,0.0283465,0.198425,0.0566929,0.283465,0.113386l-0.113386,0.255118c-0.0566929,-0.0283465,-0.141732,-0.0566929,-0.255118,-0.0850394,-0.0850394,-0.0283465,-0.170079,-0.0283465,-0.283465,-0.0283465,-0.141732,0,-0.226772,0.0283465,-0.311811,0.0850394,-0.0850394,0.0566929,-0.113386,0.170079,-0.113386,0.255118,0,0.0850394,0,0.141732,0.0283465,0.170079,0,0.0566929,0.0283465,0.113386,0.0850394,0.141732,0.0283465,0.0283465,0.0850394,0.0566929,0.141732,0.113386,0.0850394,0.0283465,0.141732,0.0566929,0.255118,0.0850394,0.0850394,0.0566929,0.198425,0.0850394,0.255118,0.141732,0.0850394,0.0283465,0.141732,0.0850394,0.198425,0.141732,0.0566929,0.0566929,0.0850394,0.113386,0.113386,0.198425,0.0283465,0.0566929,0.0566929,0.141732,0.0566929,0.255118z" fill="#555555" fill-rule="nonzero" />
    <polygon fill="#555555" fill-rule="nonzero" gorn="0.1.1.26" id="1" points="46.0913,52.0157,44.7874,52.0157,44.7874,49.5213,46.0913,49.5213,46.0913,49.8047,45.1276,49.8047,45.1276,50.5701,46.0346,50.5701,46.0346,50.8535,45.1276,50.8535,45.1276,51.7323,46.0913,51.7323" />
    <polygon fill="#555555" fill-rule="nonzero" gorn="0.1.1.27" id="2" points="47.3669,52.0157,47.0551,52.0157,47.0551,49.8047,46.3465,49.8047,46.3465,49.5213,48.0756,49.5213,48.0756,49.8047,47.3669,49.8047" />
    <g fill="none" gorn="0.1.1.28" height="0.699871" id="connector0terminal" text-anchor="end" width="0.699871" x="45.0992"  y="67.8331"/>
    <polygon fill="black" fill-rule="nonzero" gorn="0.1.1.29" id="label" points="34.9512,36.9638,34.5827,36.9638,34.5827,35.5465,33.1937,35.5465,33.1937,36.9638,32.7969,36.9638,32.7969,33.9024,33.1937,33.9024,33.1937,35.2063,34.5827,35.2063,34.5827,33.9024,34.9512,33.9024" />
    <path d="M37.0205,34.2142c-0.141732,0,-0.283465,0.0283465,-0.39685,0.0850394,-0.141732,0.0566929,-0.226772,0.141732,-0.311811,0.226772,-0.0850394,0.113386,-0.170079,0.255118,-0.198425,0.39685,-0.0566929,0.141732,-0.0850394,0.311811,-0.0850394,0.510236,0,0.198425,0.0283465,0.368504,0.0850394,0.510236,0.0283465,0.170079,0.0850394,0.283465,0.170079,0.39685,0.0850394,0.0850394,0.170079,0.170079,0.311811,0.226772,0.113386,0.0566929,0.255118,0.0850394,0.425197,0.0850394,0.113386,0,0.226772,0,0.340157,-0.0283465,0.113386,-0.0283465,0.226772,-0.0566929,0.340157,-0.0850394l0,0.340157c-0.0566929,0,-0.113386,0.0283465,-0.170079,0.0566929,-0.0566929,0,-0.113386,0.0283465,-0.170079,0.0283465,-0.0566929,0,-0.113386,0.0283465,-0.198425,0.0283465,-0.0566929,0,-0.141732,0,-0.198425,0,-0.226772,0,-0.425197,-0.0283465,-0.595276,-0.113386,-0.170079,-0.0850394,-0.311811,-0.170079,-0.425197,-0.311811,-0.113386,-0.141732,-0.170079,-0.311811,-0.226772,-0.510236,-0.0566929,-0.170079,-0.0850394,-0.39685,-0.0850394,-0.623622,0,-0.226772,0.0283465,-0.453543,0.0850394,-0.623622,0.0566929,-0.198425,0.141732,-0.368504,0.255118,-0.510236,0.141732,-0.141732,0.283465,-0.226772,0.453543,-0.311811,0.170079,-0.0850394,0.368504,-0.113386,0.595276,-0.113386,0.141732,0,0.283465,0.0283465,0.425197,0.0566929,0.141732,0.0283465,0.255118,0.0566929,0.368504,0.113386l-0.170079,0.340157c-0.0850394,-0.0566929,-0.170079,-0.0850394,-0.283465,-0.113386,-0.113386,-0.0283465,-0.226772,-0.0566929,-0.340157,-0.0566929z" fill="black" fill-rule="nonzero" gorn="0.1.1.30" id="1" />
    <polygon fill="black" fill-rule="nonzero" gorn="0.1.1.31" id="2" points="38.0976,35.9717,38.0976,35.6315,39.1181,35.6315,39.1181,35.9717" />
    <path d="M40.7622,36.9638l-0.340157,0,0,-1.89921c0,-0.0566929,0,-0.141732,0,-0.198425,0,-0.0566929,0,-0.141732,0,-0.198425,0,-0.0850394,0,-0.141732,0,-0.198425,0,-0.0566929,0,-0.113386,0,-0.170079,-0.0283465,0.0283465,-0.0283465,0.0566929,-0.0566929,0.0566929,-0.0283465,0.0283465,-0.0283465,0.0566929,-0.0566929,0.0566929,-0.0283465,0.0283465,-0.0283465,0.0566929,-0.0566929,0.0566929,-0.0283465,0.0283465,-0.0566929,0.0566929,-0.0850394,0.0850394l-0.311811,0.226772,-0.198425,-0.255118,0.793701,-0.623622,0.311811,0,0,3.06142z" fill="black" fill-rule="nonzero" gorn="0.1.1.32" id="3" />
    <path d="M43.7386,36.9638l-1.89921,0,0,-0.340157,0.737008,-0.793701c0.0850394,-0.113386,0.198425,-0.198425,0.255118,-0.311811,0.0850394,-0.0850394,0.170079,-0.170079,0.226772,-0.255118,0.0566929,-0.0850394,0.0850394,-0.170079,0.113386,-0.283465,0.0566929,-0.0850394,0.0566929,-0.170079,0.0566929,-0.283465,0,-0.0850394,0,-0.141732,-0.0283465,-0.198425,-0.0283465,-0.0850394,-0.0566929,-0.141732,-0.113386,-0.170079,-0.0283465,-0.0566929,-0.0850394,-0.0850394,-0.141732,-0.113386,-0.0566929,0,-0.141732,-0.0283465,-0.198425,-0.0283465,-0.141732,0,-0.255118,0.0283465,-0.368504,0.0850394,-0.113386,0.0566929,-0.198425,0.113386,-0.283465,0.198425l-0.226772,-0.226772c0.0566929,-0.0566929,0.113386,-0.113386,0.170079,-0.141732,0.0850394,-0.0566929,0.141732,-0.0850394,0.226772,-0.113386,0.0566929,-0.0283465,0.141732,-0.0566929,0.226772,-0.0850394,0.0850394,-0.0283465,0.170079,-0.0283465,0.255118,-0.0283465,0.141732,0,0.255118,0.0283465,0.368504,0.0566929,0.0850394,0.0283465,0.198425,0.0850394,0.255118,0.170079,0.0850394,0.0566929,0.141732,0.141732,0.170079,0.255118,0.0566929,0.0850394,0.0850394,0.198425,0.0850394,0.340157,0,0.113386,-0.0283465,0.226772,-0.0566929,0.311811,-0.0566929,0.113386,-0.0850394,0.226772,-0.170079,0.340157,-0.0566929,0.0850394,-0.141732,0.198425,-0.226772,0.283465,-0.0850394,0.113386,-0.170079,0.226772,-0.283465,0.340157l-0.595276,0.623622,0,0,1.44567,0,0,0.368504z" fill="black" fill-rule="nonzero" gorn="0.1.1.33" id="4" />
   </g>
  </g>
 </g>
 <g partID="855174110">
  <line stroke="#cc1414" stroke-linecap="round" stroke-width="0.699998" x1="73.5775" x2="80.7897" y1="173.863" y2="173.844"/>
 </g>
 <circle cx="73.5775" cy="173.863" fill="black" r="0.72" stroke="none" stroke-width="0"/>
 <g partID="855174120">
  <line stroke="#cc1414" stroke-linecap="round" stroke-width="0.699998" x1="73.5775" x2="73.5775" y1="159.523" y2="173.863"/>
 </g>
 <circle cx="73.5775" cy="159.523" fill="black" r="0.72" stroke="none" stroke-width="0"/>
 <circle cx="73.5775" cy="173.863" fill="black" r="0.72" stroke="none" stroke-width="0"/>
 <g partID="855174130">
  <line stroke="#cc1414" stroke-linecap="round" stroke-width="0.699998" x1="37.5893" x2="73.5775" y1="159.444" y2="159.523"/>
 </g>
 <circle cx="73.5775" cy="159.523" fill="black" r="0.72" stroke="none" stroke-width="0"/>
 <g partID="855174220">
  <line stroke="#404040" stroke-linecap="round" stroke-width="0.699998" x1="72.8711" x2="72.8711" y1="180.997" y2="188.309"/>
 </g>
 <circle cx="72.8711" cy="180.997" fill="black" r="0.72" stroke="none" stroke-width="0"/>
 <circle cx="72.8711" cy="188.309" fill="black" r="0.72" stroke="none" stroke-width="0"/>
 <g partID="855174230">
  <line stroke="#404040" stroke-linecap="round" stroke-width="0.699998" x1="80.7897" x2="72.8711" y1="181.044" y2="180.997"/>
 </g>
 <circle cx="72.8711" cy="180.997" fill="black" r="0.72" stroke="none" stroke-width="0"/>
 <g partID="855174240">
  <line stroke="#404040" stroke-linecap="round" stroke-width="0.699998" x1="72.8711" x2="72.8711" y1="188.309" y2="188.31"/>
 </g>
 <circle cx="72.8711" cy="188.309" fill="black" r="0.72" stroke="none" stroke-width="0"/>
 <circle cx="72.8711" cy="188.31" fill="black" r="0.72" stroke="none" stroke-width="0"/>
 <g partID="855174250">
  <line stroke="#404040" stroke-linecap="round" stroke-width="0.699998" x1="65.7095" x2="37.5893" y1="188.244" y2="188.244"/>
 </g>
 <circle cx="65.7095" cy="188.244" fill="black" r="0.72" stroke="none" stroke-width="0"/>
 <g partID="855174260">
  <line stroke="#404040" stroke-linecap="round" stroke-width="0.699998" x1="72.8711" x2="65.7095" y1="188.31" y2="188.244"/>
 </g>
 <circle cx="72.8711" cy="188.31" fill="black" r="0.72" stroke="none" stroke-width="0"/>
 <circle cx="65.7095" cy="188.244" fill="black" r="0.72" stroke="none" stroke-width="0"/>
 <g partID="855179620">
  <line stroke="#404040" stroke-linecap="round" stroke-width="0.699998" x1="151.401" x2="144.909" y1="73.0443" y2="73.0443"/>
 </g>
 <g partID="855179710">
  <line stroke="#cc1414" stroke-linecap="round" stroke-width="0.699998" x1="187.769" x2="188.033" y1="43.8758" y2="15.3398"/>
 </g>
 <circle cx="188.033" cy="15.3398" fill="black" r="0.72" stroke="none" stroke-width="0"/>
 <g partID="855179780">
  <line stroke="#cc1414" stroke-linecap="round" stroke-width="0.699998" x1="238.504" x2="238.504" y1="1.05" y2="159.454"/>
 </g>
 <circle cx="238.504" cy="1.05" fill="black" r="0.72" stroke="none" stroke-width="0"/>
 <circle cx="238.504" cy="159.454" fill="black" r="0.72" stroke="none" stroke-width="0"/>
 <g partID="855179850">
  <line stroke="#cc1414" stroke-linecap="round" stroke-width="0.699998" x1="195.33" x2="195.31" y1="159.454" y2="166.644"/>
 </g>
 <circle cx="195.33" cy="159.454" fill="black" r="0.72" stroke="none" stroke-width="0"/>
 <g partID="855179920">
  <line stroke="#cc1414" stroke-linecap="round" stroke-width="0.699998" x1="238.504" x2="195.33" y1="159.454" y2="159.454"/>
 </g>
 <circle cx="238.504" cy="159.454" fill="black" r="0.72" stroke="none" stroke-width="0"/>
 <circle cx="195.33" cy="159.454" fill="black" r="1.44" stroke="none" stroke-width="0"/>
 <g partID="855179990">
  <line stroke="#cc1414" stroke-linecap="round" stroke-width="0.699998" x1="130.57" x2="238.504" y1="1.05" y2="1.05"/>
 </g>
 <circle cx="130.57" cy="1.05" fill="black" r="0.72" stroke="none" stroke-width="0"/>
 <circle cx="238.504" cy="1.05" fill="black" r="0.72" stroke="none" stroke-width="0"/>
 <g partID="855180060">
  <line stroke="#cc1414" stroke-linecap="round" stroke-width="0.699998" x1="188.033" x2="130.509" y1="15.3398" y2="15.4443"/>
 </g>
 <circle cx="188.033" cy="15.3398" fill="black" r="0.72" stroke="none" stroke-width="0"/>
 <circle cx="130.509" cy="15.4443" fill="black" r="0.72" stroke="none" stroke-width="0"/>
 <g partID="855180130">
  <line stroke="#cc1414" stroke-linecap="round" stroke-width="0.699998" x1="130.57" x2="130.57" y1="15.3398" y2="1.05"/>
 </g>
 <circle cx="130.57" cy="15.3398" fill="black" r="0.72" stroke="none" stroke-width="0"/>
 <circle cx="130.57" cy="1.05" fill="black" r="0.72" stroke="none" stroke-width="0"/>
 <g partID="855180220">
  <line stroke="#cc1414" stroke-linecap="round" stroke-width="0.699998" x1="130.509" x2="130.57" y1="15.4443" y2="15.3398"/>
 </g>
 <circle cx="130.509" cy="15.4443" fill="black" r="1.44" stroke="none" stroke-width="0"/>
 <circle cx="130.57" cy="15.3398" fill="black" r="0.72" stroke="none" stroke-width="0"/>
 <g partID="855180390">
  <line stroke="#cc1414" stroke-linecap="round" stroke-width="0.699998" x1="130.57" x2="101.709" y1="65.8101" y2="65.8443"/>
 </g>
 <circle cx="130.57" cy="65.8101" fill="black" r="0.72" stroke="none" stroke-width="0"/>
 <g partID="855180280">
  <line stroke="#cc1414" stroke-linecap="round" stroke-width="0.699998" x1="130.509" x2="130.57" y1="15.4443" y2="65.8101"/>
 </g>
 <circle cx="130.509" cy="15.4443" fill="black" r="0.72" stroke="none" stroke-width="0"/>
 <circle cx="130.57" cy="65.8101" fill="black" r="0.72" stroke="none" stroke-width="0"/>
 <g partID="855180630">
  <line stroke="#404040" stroke-linecap="round" stroke-width="0.699998" x1="195.33" x2="195.31" y1="209.924" y2="188.244"/>
 </g>
 <circle cx="195.33" cy="209.924" fill="black" r="0.72" stroke="none" stroke-width="0"/>
 <g partID="855180560">
  <line stroke="#404040" stroke-linecap="round" stroke-width="0.699998" x1="180.569" x2="180.569" y1="109.384" y2="116.28"/>
 </g>
 <circle cx="180.569" cy="116.28" fill="black" r="0.72" stroke="none" stroke-width="0"/>
 <g partID="855180700">
  <line stroke="#404040" stroke-linecap="round" stroke-width="0.699998" x1="1.05" x2="195.33" y1="209.924" y2="209.924"/>
 </g>
 <circle cx="1.05" cy="209.924" fill="black" r="0.72" stroke="none" stroke-width="0"/>
 <circle cx="195.33" cy="209.924" fill="black" r="0.72" stroke="none" stroke-width="0"/>
 <g partID="855180770">
  <line stroke="#404040" stroke-linecap="round" stroke-width="0.699998" x1="1.05" x2="1.05" y1="29.9336" y2="209.924"/>
 </g>
 <circle cx="1.05" cy="29.9336" fill="black" r="0.72" stroke="none" stroke-width="0"/>
 <circle cx="1.05" cy="209.924" fill="black" r="0.72" stroke="none" stroke-width="0"/>
 <g partID="855180840">
  <line stroke="#404040" stroke-linecap="round" stroke-width="0.699998" x1="87.3968" x2="1.05" y1="29.9336" y2="29.9336"/>
 </g>
 <circle cx="87.3968" cy="29.9336" fill="black" r="0.72" stroke="none" stroke-width="0"/>
 <circle cx="1.05" cy="29.9336" fill="black" r="0.72" stroke="none" stroke-width="0"/>
 <g partID="855180910">
  <line stroke="#404040" stroke-linecap="round" stroke-width="0.699998" x1="115.976" x2="87.3968" y1="29.9336" y2="29.9336"/>
 </g>
 <circle cx="115.976" cy="29.9336" fill="black" r="0.72" stroke="none" stroke-width="0"/>
 <circle cx="87.3968" cy="29.9336" fill="black" r="0.72" stroke="none" stroke-width="0"/>
 <g partID="855180980">
  <line stroke="#404040" stroke-linecap="round" stroke-width="0.699998" x1="115.976" x2="115.976" y1="58.5132" y2="29.9336"/>
 </g>
 <circle cx="115.976" cy="58.5132" fill="black" r="0.72" stroke="none" stroke-width="0"/>
 <circle cx="115.976" cy="29.9336" fill="black" r="0.72" stroke="none" stroke-width="0"/>
 <g partID="855181160">
  <line stroke="#404040" stroke-linecap="round" stroke-width="0.699998" x1="115.976" x2="115.976" y1="116.28" y2="58.5132"/>
 </g>
 <circle cx="115.976" cy="116.28" fill="black" r="0.72" stroke="none" stroke-width="0"/>
 <circle cx="115.976" cy="58.5132" fill="black" r="1.44" stroke="none" stroke-width="0"/>
 <g partID="855183370">
  <line stroke="#404040" stroke-linecap="round" stroke-width="0.699998" x1="180.569" x2="115.976" y1="116.28" y2="116.28"/>
 </g>
 <circle cx="180.569" cy="116.28" fill="black" r="0.72" stroke="none" stroke-width="0"/>
 <circle cx="115.976" cy="116.28" fill="black" r="0.72" stroke="none" stroke-width="0"/>
 <g partID="855181050">
  <line stroke="#404040" stroke-linecap="round" stroke-width="0.699998" x1="115.976" x2="101.709" y1="58.5132" y2="58.6443"/>
 </g>
 <circle cx="115.976" cy="58.5132" fill="black" r="0.72" stroke="none" stroke-width="0"/>
 <g partID="855181290">
  <line stroke="#cc1414" stroke-linecap="round" stroke-width="0.699998" x1="195.33" x2="166.447" y1="159.454" y2="159.454"/>
 </g>
 <circle cx="195.33" cy="159.454" fill="black" r="0.72" stroke="none" stroke-width="0"/>
 <circle cx="166.447" cy="159.454" fill="black" r="0.72" stroke="none" stroke-width="0"/>
 <g partID="855182010">
  <line stroke="#cc1414" stroke-linecap="round" stroke-width="0.699998" x1="166.447" x2="152.109" y1="173.744" y2="173.844"/>
 </g>
 <circle cx="166.447" cy="173.744" fill="black" r="0.72" stroke="none" stroke-width="0"/>
 <g partID="855182160">
  <line stroke="#cc1414" stroke-linecap="round" stroke-width="0.699998" x1="166.447" x2="166.447" y1="159.454" y2="173.744"/>
 </g>
 <circle cx="166.447" cy="159.454" fill="black" r="0.72" stroke="none" stroke-width="0"/>
 <circle cx="166.447" cy="173.744" fill="black" r="0.72" stroke="none" stroke-width="0"/>
 <g partID="855181440">
  <line stroke="#cc1414" stroke-linecap="round" stroke-width="0.699998" x1="195.31" x2="166.447" y1="188.244" y2="188.337"/>
 </g>
 <circle cx="195.31" cy="188.244" fill="black" r="0.72" stroke="none" stroke-width="0"/>
 <circle cx="166.447" cy="188.337" fill="black" r="0.72" stroke="none" stroke-width="0"/>
 <g partID="855181630">
  <line stroke="#cc1414" stroke-linecap="round" stroke-width="0.699998" x1="166.447" x2="166.447" y1="188.337" y2="181.04"/>
 </g>
 <circle cx="166.447" cy="188.337" fill="black" r="0.72" stroke="none" stroke-width="0"/>
 <circle cx="166.447" cy="181.04" fill="black" r="0.72" stroke="none" stroke-width="0"/>
 <g partID="855181820">
  <line stroke="#cc1414" stroke-linecap="round" stroke-width="0.699998" x1="166.447" x2="152.109" y1="181.04" y2="181.044"/>
 </g>
 <circle cx="166.447" cy="181.04" fill="black" r="0.72" stroke="none" stroke-width="0"/>
 <g partID="855182310">
  <line stroke="#25cc35" stroke-linecap="round" stroke-width="0.699998" x1="29.7094" x2="15.3398" y1="94.6443" y2="94.6937"/>
 </g>
 <circle cx="15.3398" cy="94.6937" fill="black" r="0.72" stroke="none" stroke-width="0"/>
 <g partID="855182380">
  <line stroke="#25cc35" stroke-linecap="round" stroke-width="0.699998" x1="231.207" x2="224.109" y1="73.107" y2="73.0443"/>
 </g>
 <circle cx="231.207" cy="73.107" fill="black" r="0.72" stroke="none" stroke-width="0"/>
 <g partID="855182450">
  <line stroke="#25cc35" stroke-linecap="round" stroke-width="0.699998" x1="231.207" x2="231.207" y1="116.28" y2="73.107"/>
 </g>
 <circle cx="231.207" cy="116.28" fill="black" r="0.72" stroke="none" stroke-width="0"/>
 <circle cx="231.207" cy="73.107" fill="black" r="0.72" stroke="none" stroke-width="0"/>
 <g partID="855182520">
  <line stroke="#25cc35" stroke-linecap="round" stroke-width="0.699998" x1="15.3398" x2="15.3398" y1="94.6937" y2="130.57"/>
 </g>
 <circle cx="15.3398" cy="94.6937" fill="black" r="0.72" stroke="none" stroke-width="0"/>
 <circle cx="15.3398" cy="130.57" fill="black" r="0.72" stroke="none" stroke-width="0"/>
 <g partID="855182590">
  <line stroke="#25cc35" stroke-linecap="round" stroke-width="0.699998" x1="15.3398" x2="231.207" y1="130.57" y2="130.57"/>
 </g>
 <circle cx="15.3398" cy="130.57" fill="black" r="0.72" stroke="none" stroke-width="0"/>
 <circle cx="231.207" cy="130.57" fill="black" r="0.72" stroke="none" stroke-width="0"/>
 <g partID="855182660">
  <line stroke="#25cc35" stroke-linecap="round" stroke-width="0.699998" x1="231.207" x2="231.207" y1="130.57" y2="116.28"/>
 </g>
 <circle cx="231.207" cy="130.57" fill="black" r="0.72" stroke="none" stroke-width="0"/>
 <circle cx="231.207" cy="116.28" fill="black" r="0.72" stroke="none" stroke-width="0"/>
 <g partID="855182810">
  <line stroke="#ff7300" stroke-linecap="round" stroke-width="0.699998" x1="29.7094" x2="22.6367" y1="101.844" y2="101.991"/>
 </g>
 <circle cx="22.6367" cy="101.991" fill="black" r="0.72" stroke="none" stroke-width="0"/>
 <g partID="855182880">
  <line stroke="#ff7300" stroke-linecap="round" stroke-width="0.699998" x1="224.214" x2="224.109" y1="123.577" y2="80.2443"/>
 </g>
 <circle cx="224.214" cy="123.577" fill="black" r="0.72" stroke="none" stroke-width="0"/>
 <g partID="855182950">
  <line stroke="#ff7300" stroke-linecap="round" stroke-width="0.699998" x1="22.6367" x2="22.6367" y1="101.991" y2="123.577"/>
 </g>
 <circle cx="22.6367" cy="101.991" fill="black" r="0.72" stroke="none" stroke-width="0"/>
 <circle cx="22.6367" cy="123.577" fill="black" r="0.72" stroke="none" stroke-width="0"/>
 <g partID="855183020">
  <line stroke="#ff7300" stroke-linecap="round" stroke-width="0.699998" x1="22.6367" x2="224.214" y1="123.577" y2="123.577"/>
 </g>
 <circle cx="22.6367" cy="123.577" fill="black" r="0.72" stroke="none" stroke-width="0"/>
 <circle cx="224.214" cy="123.577" fill="black" r="0.72" stroke="none" stroke-width="0"/>
 <g partID="855183090">
  <line stroke="#418dd9" stroke-linecap="round" stroke-width="0.699998" x1="101.709" x2="144.86" y1="87.4443" y2="87.3968"/>
 </g>
 <circle cx="144.86" cy="87.3968" fill="black" r="0.72" stroke="none" stroke-width="0"/>
 <g partID="855183160">
  <line stroke="#418dd9" stroke-linecap="round" stroke-width="0.699998" x1="144.86" x2="144.86" y1="87.3968" y2="108.983"/>
 </g>
 <circle cx="144.86" cy="87.3968" fill="black" r="0.72" stroke="none" stroke-width="0"/>
 <circle cx="144.86" cy="108.983" fill="black" r="0.72" stroke="none" stroke-width="0"/>
 <g partID="855183230">
  <line stroke="#418dd9" stroke-linecap="round" stroke-width="0.699998" x1="144.86" x2="173.744" y1="108.983" y2="108.983"/>
 </g>
 <circle cx="144.86" cy="108.983" fill="black" r="0.72" stroke="none" stroke-width="0"/>
 <circle cx="173.744" cy="108.983" fill="black" r="0.72" stroke="none" stroke-width="0"/>
 <g partID="855183300">
  <line stroke="#418dd9" stroke-linecap="round" stroke-width="0.699998" x1="173.744" x2="194.941" y1="108.983" y2="109.384"/>
 </g>
 <circle cx="173.744" cy="108.983" fill="black" r="0.72" stroke="none" stroke-width="0"/>
 <g id="partLabel" partID="855174090">
  <g transform="translate(17.1401,170.379)">
   <g fill="#000000" fill-opacity="1" font-family="'DroidSans'" font-size="5.000" font-style="normal" font-weight="normal" id="schematicLabel" stroke="none">
    <text x="0" y="5.000">6V2</text>
   </g>
  </g>
 </g>
 <g id="partLabel" partID="855174100">
  <g transform="translate(206.744,169.461)">
   <g fill="#000000" fill-opacity="1" font-family="'DroidSans'" font-size="5.000" font-style="normal" font-weight="normal" id="schematicLabel" stroke="none">
    <text x="0" y="5.000">C3</text>
    <text x="0" y="10.000">100&#x3bc;F</text>
    <text x="0" y="15.000">35V</text>
   </g>
  </g>
 </g>
</svg>
