<?xml version='1.0' encoding='UTF-8' standalone='no'?>
<!-- Created with Fritzing (https://fritzing.org/) -->
<svg xmlns="http://www.w3.org/2000/svg" baseProfile="tiny" height="2.98589in" version="1.2" viewBox="0 0 308.129 214.984" width="4.27957in" x="0in"  xmlns:svg="http://www.w3.org/2000/svg" y="0in">
 <g id="watermark" >
  <g >
   <g >
    <path d="M283.397,208.784c-0.604,0,-1.131,0.325,-1.422,0.809l-2.796,0l3.96,-4.071c0.146,-0.146,0.289,-0.322,0.428,-0.521c0.149,-0.222,0.228,-0.479,0.228,-0.768c0,-0.279,-0.097,-0.518,-0.287,-0.71c-0.19,-0.188,-0.444,-0.287,-0.754,-0.287l-4.636,0c-0.305,0,-0.555,0.06,-0.742,0.17c-0.219,0.13,-0.33,0.368,-0.33,0.707c0,0.329,0.111,0.562,0.33,0.692c0.188,0.111,0.438,0.168,0.742,0.168l3.148,0l-3.974,4.086c-0.146,0.147,-0.289,0.315,-0.425,0.504c-0.153,0.212,-0.23,0.472,-0.23,0.771c0,0.28,0.096,0.521,0.288,0.711c0.188,0.188,0.442,0.285,0.754,0.285l4.315,0c0.293,0.467,0.812,0.776,1.4,0.776c0.916,0,1.66,-0.744,1.66,-1.661C285.056,209.529,284.311,208.784,283.397,208.784zM283.397,211.047c-0.334,0,-0.604,-0.271,-0.604,-0.604c0,-0.333,0.27,-0.604,0.604,-0.604c0.332,0,0.604,0.271,0.604,0.604C284,210.778,283.729,211.047,283.397,211.047z" fill="#8C8C8C" />
    <path d="M266.454,198.742c-0.914,0,-1.659,0.745,-1.659,1.66c0,0.916,0.745,1.66,1.659,1.66s1.658,-0.744,1.658,-1.66C268.114,199.487,267.37,198.742,266.454,198.742zM266.455,201.005c-0.333,0,-0.604,-0.27,-0.604,-0.603s0.271,-0.603,0.604,-0.603c0.331,0,0.604,0.27,0.604,0.603S266.786,201.005,266.455,201.005z" fill="#8C8C8C" />
    <path d="M274.975,203.404c-0.193,-0.111,-0.439,-0.169,-0.732,-0.169l-1.465,0L272.778,200.713c0,-0.292,-0.057,-0.538,-0.166,-0.729C272.522,199.827,272.329,199.642,271.919,199.642c-0.34,0,-0.578,0.116,-0.709,0.342c-0.109,0.193,-0.167,0.438,-0.167,0.729l0,2.521l-0.481,0c-0.295,0,-0.539,0.06,-0.731,0.169c-0.228,0.129,-0.341,0.368,-0.341,0.708c0,0.412,0.185,0.603,0.341,0.692c0.192,0.111,0.438,0.168,0.731,0.168l0.481,0l0,4.362c0,0.277,0.026,0.533,0.081,0.768c0.056,0.246,0.154,0.464,0.298,0.645c0.146,0.186,0.345,0.332,0.595,0.436c0.241,0.098,0.555,0.146,0.93,0.146l0.896,0c0.292,0,0.539,-0.054,0.731,-0.166c0.154,-0.089,0.341,-0.281,0.341,-0.693c0,-0.338,-0.114,-0.578,-0.341,-0.709c-0.192,-0.109,-0.439,-0.168,-0.731,-0.168l-0.821,0c-0.138,0,-0.19,-0.019,-0.207,-0.024c-0.014,-0.034,-0.035,-0.103,-0.035,-0.231L272.78,204.972l1.465,0c0.295,0,0.541,-0.057,0.734,-0.168c0.152,-0.09,0.34,-0.28,0.34,-0.692C275.315,203.772,275.202,203.533,274.975,203.404z" fill="#8C8C8C" />
    <path d="M266.52,203.234l-1.191,0c-0.292,0,-0.538,0.059,-0.731,0.169c-0.226,0.129,-0.341,0.368,-0.341,0.708c0,0.412,0.188,0.604,0.341,0.691c0.193,0.113,0.439,0.168,0.731,0.168l0.544,0l0,5.362c0,0.293,0.057,0.539,0.167,0.73c0.131,0.227,0.367,0.341,0.708,0.341c0.411,0,0.604,-0.187,0.692,-0.341c0.111,-0.191,0.168,-0.438,0.168,-0.73L267.608,204.322c0,-0.386,-0.084,-0.656,-0.256,-0.83C267.177,203.32,266.907,203.234,266.52,203.234z" fill="#8C8C8C" />
    <path d="M262.685,203.404c-0.193,-0.111,-0.44,-0.169,-0.732,-0.169l-0.604,0c-0.25,0,-0.498,0.063,-0.734,0.187c-0.226,0.119,-0.433,0.271,-0.616,0.453l-0.644,0.604l0,-0.247c0,-0.291,-0.055,-0.538,-0.168,-0.729c-0.128,-0.228,-0.368,-0.34,-0.707,-0.34c-0.41,0,-0.604,0.184,-0.693,0.34c-0.11,0.191,-0.167,0.438,-0.167,0.729l0,4.801c-0.475,0.293,-0.791,0.816,-0.791,1.412c0,0.917,0.745,1.661,1.658,1.661c0.916,0,1.66,-0.744,1.66,-1.661c0,-0.596,-0.317,-1.119,-0.792,-1.412l0,-2.21l1.738,-1.564c0.1,-0.09,0.199,-0.164,0.297,-0.217c0.084,-0.045,0.174,-0.067,0.274,-0.067l0.288,0c0.292,0,0.539,-0.056,0.732,-0.169c0.155,-0.088,0.339,-0.279,0.339,-0.691C263.025,203.772,262.91,203.533,262.685,203.404zM258.486,211.047c-0.332,0,-0.603,-0.271,-0.603,-0.604c0,-0.333,0.271,-0.604,0.603,-0.604c0.333,0,0.604,0.271,0.604,0.604C259.09,210.778,258.819,211.047,258.486,211.047z" fill="#8C8C8C" />
    <path d="M255.969,199.885c-0.193,-0.111,-0.44,-0.167,-0.731,-0.167l-0.59,0c-0.2,0,-0.389,0.004,-0.562,0.016c-0.176,0.009,-0.345,0.035,-0.506,0.07c-0.168,0.041,-0.336,0.109,-0.496,0.202c-0.158,0.093,-0.319,0.222,-0.48,0.382c-0.334,0.314,-0.554,0.656,-0.652,1.017c-0.094,0.348,-0.143,0.735,-0.143,1.151l0,0.678l-0.483,0c-0.292,0,-0.539,0.059,-0.73,0.169c-0.227,0.13,-0.342,0.369,-0.342,0.708c0,0.412,0.185,0.604,0.341,0.693c0.191,0.111,0.438,0.166,0.73,0.166l0.483,0l0,5.362c0,0.293,0.057,0.539,0.167,0.73c0.13,0.227,0.367,0.341,0.708,0.341c0.411,0,0.603,-0.187,0.692,-0.341c0.111,-0.191,0.168,-0.438,0.168,-0.73l0,-5.36l0.92,0c0.293,0,0.54,-0.057,0.732,-0.168c0.155,-0.09,0.34,-0.28,0.34,-0.692c0,-0.34,-0.114,-0.579,-0.34,-0.708c-0.189,-0.111,-0.436,-0.17,-0.729,-0.17l-0.92,0l0,-0.678c0,-0.218,0.019,-0.41,0.056,-0.571c0.032,-0.141,0.103,-0.261,0.218,-0.367l0.002,-0.004l0.002,-0.002c0.082,-0.082,0.176,-0.126,0.29,-0.136c0.15,-0.015,0.339,-0.022,0.564,-0.022l0.56,0c0.291,0,0.539,-0.058,0.731,-0.168c0.154,-0.088,0.339,-0.281,0.339,-0.693C256.309,200.254,256.194,200.015,255.969,199.885z" fill="#8C8C8C" />
    <path d="M307.962,203.502c-0.089,-0.156,-0.282,-0.34,-0.693,-0.34c-0.339,0,-0.578,0.113,-0.707,0.34c-0.078,0.133,-0.127,0.293,-0.152,0.477l-0.021,-0.021c-0.216,-0.236,-0.466,-0.42,-0.747,-0.539c-0.277,-0.119,-0.563,-0.183,-0.849,-0.183l-0.709,0c-0.249,0,-0.466,0.015,-0.64,0.041c-0.182,0.026,-0.352,0.074,-0.51,0.14c-0.158,0.066,-0.313,0.15,-0.459,0.254c-0.139,0.097,-0.303,0.226,-0.486,0.377c-0.188,0.156,-0.342,0.302,-0.463,0.434c-0.127,0.141,-0.23,0.293,-0.306,0.455c-0.069,0.16,-0.122,0.337,-0.147,0.523c-0.026,0.178,-0.041,0.391,-0.041,0.631l0,2.386c0,0.24,0.015,0.451,0.041,0.631c0.025,0.188,0.078,0.361,0.147,0.521c0.074,0.164,0.179,0.318,0.306,0.457c0.119,0.129,0.274,0.274,0.463,0.433c0.186,0.153,0.35,0.28,0.486,0.379c0.146,0.103,0.299,0.188,0.459,0.254c0.158,0.065,0.329,0.112,0.51,0.14c0.174,0.026,0.389,0.039,0.64,0.039l0.709,0c0.298,0,0.591,-0.066,0.87,-0.199c0.244,-0.114,0.492,-0.291,0.73,-0.523l0,1.434c0,0.18,-0.025,0.334,-0.072,0.465c-0.043,0.119,-0.159,0.258,-0.344,0.406c-0.154,0.127,-0.309,0.217,-0.457,0.264c-0.15,0.049,-0.341,0.074,-0.563,0.074l-2.203,0c-0.293,0,-0.538,0.055,-0.732,0.166c-0.152,0.088,-0.34,0.282,-0.34,0.692c0,0.341,0.115,0.579,0.34,0.71c0.194,0.109,0.439,0.167,0.732,0.167l2.326,0c0.247,0,0.463,-0.015,0.638,-0.041c0.179,-0.026,0.351,-0.073,0.513,-0.14c0.153,-0.064,0.31,-0.15,0.455,-0.254c0.143,-0.101,0.305,-0.227,0.487,-0.379c0.185,-0.153,0.343,-0.299,0.463,-0.431c0.128,-0.141,0.229,-0.294,0.304,-0.456c0.071,-0.162,0.123,-0.338,0.148,-0.523c0.025,-0.182,0.041,-0.393,0.041,-0.631l0,-7.898C308.129,203.94,308.075,203.693,307.962,203.502zM306.393,207.962c0,0.188,-0.062,0.35,-0.188,0.49c-0.15,0.172,-0.394,0.403,-0.716,0.686l-0.002,0.003l-0.002,0.004c-0.139,0.13,-0.291,0.237,-0.453,0.325c-0.148,0.082,-0.325,0.121,-0.526,0.121L304.205,209.591c-0.222,0,-0.41,-0.021,-0.563,-0.072c-0.148,-0.049,-0.301,-0.137,-0.453,-0.264c-0.231,-0.186,-0.315,-0.322,-0.346,-0.404c-0.049,-0.131,-0.072,-0.285,-0.072,-0.465l0,-2.206c0,-0.18,0.023,-0.336,0.072,-0.467c0.029,-0.082,0.113,-0.217,0.346,-0.403c0.152,-0.127,0.305,-0.216,0.453,-0.265c0.153,-0.049,0.342,-0.072,0.563,-0.072l0.301,0c0.212,0,0.388,0.037,0.526,0.113c0.152,0.082,0.308,0.191,0.457,0.324c0.322,0.293,0.564,0.529,0.716,0.7c0.128,0.146,0.188,0.304,0.188,0.492L306.393,207.962z" fill="#8C8C8C" />
    <path d="M287.983,198.742c-0.914,0,-1.66,0.745,-1.66,1.66c0,0.916,0.746,1.66,1.66,1.66s1.66,-0.744,1.66,-1.66C289.643,199.487,288.897,198.742,287.983,198.742zM287.983,201.005c-0.332,0,-0.604,-0.27,-0.604,-0.603s0.271,-0.603,0.604,-0.603s0.604,0.27,0.604,0.603C288.587,200.735,288.315,201.005,287.983,201.005z" fill="#8C8C8C" />
    <path d="M298.669,209.01l-0.107,-3.419c-0.011,-0.178,-0.021,-0.338,-0.031,-0.489c-0.01,-0.162,-0.037,-0.322,-0.082,-0.476c-0.045,-0.158,-0.11,-0.309,-0.198,-0.453c-0.093,-0.146,-0.216,-0.289,-0.37,-0.42c-0.225,-0.192,-0.443,-0.334,-0.646,-0.416c-0.207,-0.084,-0.461,-0.127,-0.754,-0.127l-1.012,0c-0.259,0,-0.501,0.058,-0.716,0.164c-0.197,0.098,-0.39,0.203,-0.572,0.315l-0.003,0.002l-0.003,0.003l-0.837,0.555l0,-0.041c0,-0.291,-0.057,-0.539,-0.168,-0.733c-0.129,-0.226,-0.367,-0.339,-0.707,-0.339c-0.411,0,-0.604,0.185,-0.693,0.339c-0.109,0.194,-0.168,0.438,-0.168,0.733l0,6.099c0,0.295,0.059,0.539,0.168,0.734c0.09,0.153,0.282,0.338,0.693,0.338c0.34,0,0.578,-0.114,0.707,-0.338c0.111,-0.195,0.168,-0.439,0.168,-0.734L293.338,206.272l1.953,-1.215c0.04,-0.024,0.082,-0.048,0.121,-0.063c0.031,-0.016,0.07,-0.025,0.115,-0.031c0.049,-0.012,0.117,-0.016,0.195,-0.016l0.362,0c0.188,0,0.334,0.021,0.435,0.059c0.082,0.029,0.143,0.076,0.18,0.143c0.05,0.078,0.08,0.18,0.098,0.303c0.02,0.139,0.034,0.309,0.045,0.504l0.096,3.097c-0.457,0.297,-0.762,0.811,-0.762,1.394c0,0.917,0.746,1.661,1.66,1.661c0.916,0,1.66,-0.744,1.66,-1.661C299.495,209.835,299.162,209.297,298.669,209.01zM297.835,211.047c-0.334,0,-0.602,-0.271,-0.602,-0.604c0,-0.333,0.268,-0.604,0.602,-0.604c0.333,0,0.604,0.271,0.604,0.604C298.44,210.778,298.168,211.047,297.835,211.047z" fill="#8C8C8C" />
    <path d="M288.046,203.234l-1.193,0c-0.293,0,-0.539,0.059,-0.731,0.169c-0.226,0.129,-0.341,0.368,-0.341,0.708c0,0.412,0.186,0.604,0.341,0.691c0.192,0.113,0.438,0.168,0.731,0.168l0.545,0l0,5.362c0,0.293,0.055,0.539,0.168,0.73c0.127,0.227,0.365,0.341,0.707,0.341c0.41,0,0.604,-0.187,0.691,-0.341c0.111,-0.191,0.17,-0.438,0.17,-0.73L289.134,204.322c0,-0.386,-0.085,-0.656,-0.259,-0.83C288.703,203.32,288.43,203.234,288.046,203.234z" fill="#8C8C8C" />
   </g>
  </g>
 </g>
 <g partID="854167020">
  <g transform="translate(63.3095,151.2)">
   <g id="schematic">
    <rect fill="none" height="13.7197" stroke="#000000" stroke-width="0.680315" width="57.6" x="7.2" y="0.340157"/>
    <g transform="matrix(1, 0, 0, 1, 0, 3.25984)">
     <g fill="#555555" stroke="none">
      <rect height="0.680315" id="connector0pin" width="7.2" x="0" y="0"/>
      <rect height="0.680315" id="connector1pin" width="7.2" x="0" y="7.2"/>
      <rect height="0.680315" id="connector2pin" width="7.2" x="64.8" y="0"/>
      <rect height="0.680315" id="connector3pin" width="7.2" x="64.8" y="7.2"/>
     </g>
    </g>
    <g font-family="DroidSans">
     <g transform="matrix(1, 0, 0, 1, 0, 2.83465)">
      <g fill="#555555" font-size="3.49994">
       <text x="3.11439" y="0">1</text>
       <text x="3.0099" y="7.2">2</text>
       <text x="67.7289" y="0">3</text>
       <text x="67.7154" y="7.2">4</text>
      </g>
     </g>
     <g transform="matrix(1, 0, 0, 1, 7.2, 4.8189)">
      <g fill="#555555" font-size="3.49994">
       <text text-anchor="start" x="1.13386" y="0">VIN+</text>
       <text text-anchor="start" x="1.13386" y="7.2">GND-</text>
       <text text-anchor="end" x="56.4661" y="0">VOUT+</text>
       <text text-anchor="end" x="56.4661" y="7.2">GND-</text>
      </g>
     </g>
     <g transform="matrix(1, 0, 0, 1, 36, 6.51969)">
      <g fill="#000000" font-size="4.25197" text-anchor="middle">
       <text x="0" y="0">AMS1117</text>
       <text x="0" y="4.25197">5V regulator</text>
      </g>
     </g>
    </g>
    <g transform="matrix(1, 0, 0, 1, 0, 3.25984)">
     <g fill="none" stroke="none">
      <g height="0.680315" id="connector0terminal" width="0.680315" x="0" y="0"/>
      <g height="0.680315" id="connector1terminal" width="0.680315" x="0" y="7.2"/>
      <g height="0.680315" id="connector2terminal" width="0.680315" x="71.3197" y="0"/>
      <g height="0.680315" id="connector3terminal" width="0.680315" x="71.3197" y="7.2"/>
     </g>
    </g>
   </g>
  </g>
 </g>
 <g partID="854165550">
  <g transform="translate(308.129,0)">
   <g transform="matrix(-1,0,0,1,0,0)">
    <g gorn="0.1" id="schematic" >
     <rect fill="none" height="86.4" stroke="#000000" stroke-width="0.72" width="57.6" x="7.2"  y="7.2"/>
     <text fill="#000000" font-family="OCRA" font-size="8" x="16"  y="30">HM-10</text>
     <!-- Pin labels INSIDE on the right, closer to edge (top to bottom: BRK, RXD, TXD, GND, VCC, STATE) -->
     <text fill="#000000" font-family="OCRA" font-size="3.2" x="52"  y="20">BRK</text>
     <text fill="#000000" font-family="OCRA" font-size="3.2" x="51"  y="30">RXD</text>
     <text fill="#000000" font-family="OCRA" font-size="3.2" x="51"  y="40">TXD</text>
     <text fill="#000000" font-family="OCRA" font-size="3.2" x="51"  y="50">GND</text>
     <text fill="#000000" font-family="OCRA" font-size="3.2" x="51"  y="60">VCC</text>
     <text fill="#000000" font-family="OCRA" font-size="3.2" x="47"  y="70">STATE</text>
     <!-- Connector pins matching FZP file IDs -->
     <line gorn="0.1.8" id="connector17pin" stroke="#000000" stroke-width="0.72" x1="64.8" x2="79.2"  y1="18" y2="18"/>
     <line gorn="0.1.9" id="connector12pin" stroke="#000000" stroke-width="0.72" x1="64.8" x2="79.2"  y1="28" y2="28"/>
     <line gorn="0.1.10" id="connector13pin" stroke="#000000" stroke-width="0.72" x1="64.8" x2="79.2"  y1="38" y2="38"/>
     <line gorn="0.1.11" id="connector14pin" stroke="#000000" stroke-width="0.72" x1="64.8" x2="79.2"  y1="48" y2="48"/>
     <line gorn="0.1.12" id="connector15pin" stroke="#000000" stroke-width="0.72" x1="64.8" x2="79.2"  y1="58" y2="58"/>
     <line gorn="0.1.13" id="connector16pin" stroke="#000000" stroke-width="0.72" x1="64.8" x2="79.2"  y1="68" y2="68"/>
     <!-- Terminal points for schematic connections -->
     <circle cx="79.2" cy="18" fill="#000000" gorn="0.1.14" id="connector17terminal" r="0.01" />
     <g cx="79.2" cy="28" fill="#000000" gorn="0.1.15" id="connector12terminal" r="0.01" />
     <g cx="79.2" cy="38" fill="#000000" gorn="0.1.16" id="connector13terminal" r="0.01" />
     <g cx="79.2" cy="48" fill="#000000" gorn="0.1.17" id="connector14terminal" r="0.01" />
     <g cx="79.2" cy="58" fill="#000000" gorn="0.1.18" id="connector15terminal" r="0.01" />
    </g>
   </g>
  </g>
 </g>
 <g partID="854165730">
  <g transform="translate(34.1693,10.8001)">
   <g id="schematic" >
    <rect class="interior rect" fill="#FFFFFF" height="78.3" stroke="#000000" stroke-linecap="round" stroke-width="0.9" width="63.9" x="14.85"  y="0.45"/>
    <g font-family="'Droid Sans'" stroke="none" stroke-linecap="round" stroke-width="0" >
     <g class="pins" fill="none" font-size="3.49999" >
      <g class="pins-left" text-anchor="start" >
       <line id="connector0pin" stroke="#787878" stroke-width="0.699999" x1="0.349999" x2="14.75"  y1="14.4" y2="14.4"/>
       <text fill="#8c8c8c" x="16.15"  y="15.0999">RST</text>
       <g height="0.699999" id="connector0terminal" width="0.699999" x="-0.349999"  y="14.0499"/>
       <line id="connector1pin" stroke="#787878" stroke-width="0.699999" x1="0.349999" x2="14.75"  y1="21.6" y2="21.6"/>
       <text fill="#8c8c8c" x="16.15"  y="22.2999">A0</text>
       <g height="0.699999" id="connector1terminal" width="0.699999" x="-0.349999"  y="21.2499"/>
       <line id="connector2pin" stroke="#787878" stroke-width="0.699999" x1="0.349999" x2="14.75"  y1="28.8" y2="28.8"/>
       <text fill="#8c8c8c" x="16.15"  y="29.4999">D0</text>
       <g height="0.699999" id="connector2terminal" width="0.699999" x="-0.349999"  y="28.4499"/>
       <line id="connector3pin" stroke="#787878" stroke-width="0.699999" x1="0.349999" x2="14.75"  y1="36" y2="36"/>
       <text fill="#8c8c8c" x="16.15"  y="36.6999">D5</text>
       <g height="0.699999" id="connector3terminal" width="0.699999" x="-0.349999"  y="35.6499"/>
       <line id="connector4pin" stroke="#787878" stroke-width="0.699999" x1="0.349999" x2="14.75"  y1="43.2" y2="43.2"/>
       <text fill="#8c8c8c" x="16.15"  y="43.8999">D6</text>
       <g height="0.699999" id="connector4terminal" width="0.699999" x="-0.349999"  y="42.8499"/>
       <line id="connector5pin" stroke="#787878" stroke-width="0.699999" x1="0.349999" x2="14.75"  y1="50.4" y2="50.4"/>
       <text fill="#8c8c8c" x="16.15"  y="51.0999">D7</text>
       <g height="0.699999" id="connector5terminal" width="0.699999" x="-0.349999"  y="50.0499"/>
       <line id="connector6pin" stroke="#787878" stroke-width="0.699999" x1="0.349999" x2="14.75"  y1="57.6" y2="57.6"/>
       <text fill="#8c8c8c" x="16.15"  y="58.2999">D8</text>
       <g height="0.699999" id="connector6terminal" width="0.699999" x="-0.349999"  y="57.2499"/>
       <line id="connector7pin" stroke="#787878" stroke-width="0.699999" x1="0.349999" x2="14.75"  y1="64.8" y2="64.8"/>
       <text fill="#8c8c8c" x="16.15"  y="65.4999">3V3</text>
       <g height="0.699999" id="connector7terminal" width="0.699999" x="-0.349999"  y="64.4499"/>
      </g>
      <g class="pins-right" text-anchor="end" >
       <line id="connector8pin" stroke="#787878" stroke-width="0.699999" x1="78.8499" x2="93.2499"  y1="64.8" y2="64.8"/>
       <text fill="#8c8c8c" x="77.4499"  y="65.4999">5V</text>
       <g height="0.699999" id="connector8terminal" width="0.699999" x="93.2499"  y="64.4499"/>
       <line id="connector9pin" stroke="#787878" stroke-width="0.699999" x1="78.8499" x2="93.2499"  y1="57.6" y2="57.6"/>
       <text fill="#8c8c8c" x="77.4499"  y="58.2999">G</text>
       <g height="0.699999" id="connector9terminal" width="0.699999" x="93.2499"  y="57.2499"/>
       <line id="connector10pin" stroke="#787878" stroke-width="0.699999" x1="78.8499" x2="93.2499"  y1="50.4" y2="50.4"/>
       <text fill="#8c8c8c" x="77.4499"  y="51.0999">D4</text>
       <g height="0.699999" id="connector10terminal" width="0.699999" x="93.2499"  y="50.0499"/>
       <line id="connector11pin" stroke="#787878" stroke-width="0.699999" x1="78.8499" x2="93.2499"  y1="43.2" y2="43.2"/>
       <text fill="#8c8c8c" x="77.4499"  y="43.8999">D3</text>
       <g height="0.699999" id="connector11terminal" width="0.699999" x="93.2499"  y="42.8499"/>
       <line id="connector12pin" stroke="#787878" stroke-width="0.699999" x1="78.8499" x2="93.2499"  y1="36" y2="36"/>
       <text fill="#8c8c8c" x="77.4499"  y="36.6999">D2</text>
       <g height="0.699999" id="connector12terminal" width="0.699999" x="93.2499"  y="35.6499"/>
       <line id="connector13pin" stroke="#787878" stroke-width="0.699999" x1="78.8499" x2="93.2499"  y1="28.8" y2="28.8"/>
       <text fill="#8c8c8c" x="77.4499"  y="29.4999">D1</text>
       <g height="0.699999" id="connector13terminal" width="0.699999" x="93.2499"  y="28.4499"/>
       <line id="connector14pin" stroke="#787878" stroke-width="0.699999" x1="78.8499" x2="93.2499"  y1="21.6" y2="21.6"/>
       <text fill="#8c8c8c" x="77.4499"  y="22.2999">RX</text>
       <g height="0.699999" id="connector14terminal" width="0.699999" x="93.2499"  y="21.2499"/>
       <line id="connector15pin" stroke="#787878" stroke-width="0.699999" x1="78.8499" x2="93.2499"  y1="14.4" y2="14.4"/>
       <text fill="#8c8c8c" x="77.4499"  y="15.0999">TX</text>
       <g height="0.699999" id="connector15terminal" width="0.699999" x="93.2499"  y="14.0499"/>
      </g>
     </g>
     <g fill="#000000" font-size="4.25001" text-anchor="middle" >
      <text x="46.8283"  y="39.685">WeMos D1 mini</text>
     </g>
    </g>
   </g>
  </g>
 </g>
 <g partID="854167030">
  <g transform="translate(9.07306,169.55)">
   <g transform="matrix(0,-1,1,0,0,0)">
    <g id="schematic" >
     <line class="other" stroke="#000000" stroke-linecap="round" stroke-width="1.152" x1="11.15" x2="11.15"  y1="0.576" y2="22.176"/>
     <line class="other" stroke="#000000" stroke-linecap="round" stroke-width="1.152" x1="14.75" x2="14.75"  y1="7.776" y2="14.976"/>
     <line class="other" stroke="#000000" stroke-linecap="round" stroke-width="1.152" x1="18.3501" x2="18.3501"  y1="0.576" y2="22.176"/>
     <line class="other" stroke="#000000" stroke-linecap="round" stroke-width="1.152" x1="21.9501" x2="21.9501"  y1="7.776" y2="14.976"/>
     <line class="other" stroke="#000000" stroke-linecap="round" stroke-width="0.432002" x1="7.55002" x2="10.43"  y1="11.376" y2="11.376"/>
     <line class="pin" connectorname="-" id="connector0pin" stroke="#787878" stroke-linecap="round" stroke-width="0.700001" x1="29.1502" x2="21.9501"  y1="11.376" y2="11.376"/>
     <g class="terminal" fill="none" height="0.000283465" id="connector0terminal" stroke="none" stroke-width="0" width="0.000283466" x="29.1502"  y="11.376"/>
     <text class="text" fill="#8c8c8c" font-family="'Droid Sans'" font-size="2.50001" stroke="none" stroke-width="0" text-anchor="middle" x="25.5501"  y="10.326">1</text>
     <line class="pin" connectorname="+" id="connector1pin" stroke="#787878" stroke-linecap="round" stroke-width="0.700001" x1="0.350001" x2="7.55002"  y1="11.376" y2="11.376"/>
     <g class="terminal" fill="none" height="0.000283465" id="connector1terminal" stroke="none" stroke-width="0" width="0.000283466" x="0.350001"  y="11.376"/>
     <text class="text" fill="#8c8c8c" font-family="'Droid Sans'" font-size="2.50001" stroke="none" stroke-width="0" text-anchor="middle" x="3.95001"  y="10.326">2</text>
    </g>
   </g>
  </g>
 </g>
 <g partID="854167040">
  <g transform="translate(170.609,147.25)">
   <g id="schematic">
    <line class="other" stroke="#000000" stroke-linecap="round" stroke-width="0.72" x1="0.36" x2="14.76" y1="7.54999" y2="7.54999"/>
    <line class="other" stroke="#000000" stroke-linecap="round" stroke-width="0.432" x1="7.56" x2="7.56" y1="10.43" y2="14.75"/>
    <path class="other" d="M7.56,10.3846A11.4922,11.4922,0,0,1,14.616,12.806" fill="none" stroke="#000000" stroke-width="0.72"/>
    <path class="other" d="M0.567213,12.7952A11.5191,11.5191,0,0,1,7.56,10.4303" fill="none" stroke="#000000" stroke-width="0.72"/>
    <rect class="other" fill="#000000" height="0.36" stroke="none" stroke-linecap="round" stroke-width="0" width="2.52" x="1.17354" y="5.29645"/>
    <rect class="other" fill="#000000" height="2.52" stroke="none" stroke-linecap="round" stroke-width="0" width="0.36" x="2.25354" y="4.21645"/>
    <line class="pin" connectorname="+" id="connector1pin" stroke="#787878" stroke-linecap="round" stroke-width="0.699999" x1="7.56" x2="7.56" y1="0.349999" y2="7.54999"/>
    <g class="terminal" fill="none" height="0.000283465" id="connector1terminal" stroke="none" stroke-width="0" width="0.000283465" x="7.56" y="0.349999"/>
    <g transform="matrix(1, 0, 0, 1, 6.50999, 3.94999)">
     <g>
      <g transform="rotate(270)">
       <g>
        <text class="text" fill="#8c8c8c" font-family="'Droid Sans'" font-size="2.5" stroke="none" stroke-width="0" text-anchor="middle" x="0" y="0">2</text>
       </g>
      </g>
     </g>
    </g>
    <line class="pin" connectorname="-" id="connector0pin" stroke="#787878" stroke-linecap="round" stroke-width="0.699999" x1="7.56" x2="7.56" y1="21.95" y2="14.75"/>
    <g class="terminal" fill="none" height="0.000283465" id="connector0terminal" stroke="none" stroke-width="0" width="0.000283465" x="7.56" y="21.95"/>
    <g transform="matrix(1, 0, 0, 1, 6.50999, 18.35)">
     <g>
      <g transform="rotate(270)">
       <g>
        <text class="text" fill="#8c8c8c" font-family="'Droid Sans'" font-size="2.5" stroke="none" stroke-width="0" text-anchor="middle" x="0" y="0">1</text>
       </g>
      </g>
     </g>
    </g>
   </g>
  </g>
 </g>
 <g partID="855135850">
  <g transform="translate(16.6732,39.9503)">
   <g transform="matrix(0,-1,1,0,0,0)">
    <g gorn="0.0" id="schematic" >
     <line class="other" stroke="#000000" stroke-linecap="round" stroke-width="0.432002" x1="7.55002" x2="8.63003"  y1="3.096" y2="0.216"/>
     <line class="other" stroke="#000000" stroke-linecap="round" stroke-width="0.432002" x1="8.63003" x2="10.43"  y1="0.216" y2="5.976"/>
     <line class="other" stroke="#000000" stroke-linecap="round" stroke-width="0.432002" x1="10.43" x2="12.23"  y1="5.976" y2="0.216"/>
     <line class="other" stroke="#000000" stroke-linecap="round" stroke-width="0.432002" x1="12.23" x2="14.03"  y1="0.216" y2="5.976"/>
     <line class="other" stroke="#000000" stroke-linecap="round" stroke-width="0.432002" x1="14.03" x2="15.8301"  y1="5.976" y2="0.216"/>
     <line class="other" stroke="#000000" stroke-linecap="round" stroke-width="0.432002" x1="15.8301" x2="17.6301"  y1="0.216" y2="5.976"/>
     <line class="other" stroke="#000000" stroke-linecap="round" stroke-width="0.432002" x1="17.6301" x2="19.4301"  y1="5.976" y2="0.216"/>
     <line class="other" stroke="#000000" stroke-linecap="round" stroke-width="0.432002" x1="19.4301" x2="21.2301"  y1="0.216" y2="5.976"/>
     <line class="other" stroke="#000000" stroke-linecap="round" stroke-width="0.432002" x1="21.2301" x2="21.9501"  y1="5.976" y2="3.096"/>
     <line class="pin" connectorname="2" gorn="0.0.9" id="connector1pin" stroke="#787878" stroke-linecap="round" stroke-width="0.700001" x1="29.1502" x2="21.9501"  y1="3.096" y2="3.096"/>
     <g class="terminal" fill="none" gorn="0.0.10" height="0.000283465" id="connector1terminal" stroke="none" stroke-width="0" width="0.000283466" x="29.1502"  y="3.096"/>
     <text class="text" fill="#8c8c8c" font-family="'Droid Sans'" font-size="2.50001" stroke="none" stroke-width="0" text-anchor="middle" x="25.5501"  y="2.046">2</text>
     <line class="pin" connectorname="1" gorn="0.0.12" id="connector0pin" stroke="#787878" stroke-linecap="round" stroke-width="0.700001" x1="0.350001" x2="7.55002"  y1="3.096" y2="3.096"/>
     <g class="terminal" fill="none" gorn="0.0.13" height="0.000283465" id="connector0terminal" stroke="none" stroke-width="0" width="0.000283466" x="0.350001"  y="3.096"/>
     <text class="text" fill="#8c8c8c" font-family="'Droid Sans'" font-size="2.50001" stroke="none" stroke-width="0" text-anchor="middle" x="3.95001"  y="2.046">1</text>
    </g>
   </g>
  </g>
 </g>
 <g partID="854167050">
  <line stroke="#cc1414" stroke-linecap="round" stroke-width="0.699998" x1="56.4375" x2="63.6496" y1="154.818" y2="154.8"/>
 </g>
 <circle cx="56.4375" cy="154.818" fill="black" r="0.72" stroke="none" stroke-width="0"/>
 <g partID="854167060">
  <line stroke="#cc1414" stroke-linecap="round" stroke-width="0.699998" x1="56.4375" x2="56.4375" y1="140.479" y2="154.818"/>
 </g>
 <circle cx="56.4375" cy="140.479" fill="black" r="0.72" stroke="none" stroke-width="0"/>
 <circle cx="56.4375" cy="154.818" fill="black" r="0.72" stroke="none" stroke-width="0"/>
 <g partID="854167070">
  <line stroke="#cc1414" stroke-linecap="round" stroke-width="0.699998" x1="20.4492" x2="56.4375" y1="140.4" y2="140.479"/>
 </g>
 <circle cx="56.4375" cy="140.479" fill="black" r="0.72" stroke="none" stroke-width="0"/>
 <g partID="854167080">
  <line stroke="#404040" stroke-linecap="round" stroke-width="0.699998" x1="56.4375" x2="56.4375" y1="169.158" y2="161.988"/>
 </g>
 <circle cx="56.4375" cy="169.158" fill="black" r="0.72" stroke="none" stroke-width="0"/>
 <circle cx="56.4375" cy="161.988" fill="black" r="0.72" stroke="none" stroke-width="0"/>
 <g partID="854167090">
  <line stroke="#404040" stroke-linecap="round" stroke-width="0.699998" x1="56.4375" x2="63.6496" y1="161.988" y2="162"/>
 </g>
 <circle cx="56.4375" cy="161.988" fill="black" r="0.72" stroke="none" stroke-width="0"/>
 <g partID="854167100">
  <line stroke="#404040" stroke-linecap="round" stroke-width="0.699998" x1="20.4492" x2="56.4375" y1="169.2" y2="169.158"/>
 </g>
 <circle cx="56.4375" cy="169.158" fill="black" r="0.72" stroke="none" stroke-width="0"/>
 <g partID="854167800">
  <line stroke="#ff7300" stroke-linecap="round" stroke-width="0.699998" x1="228.929" x2="185.435" y1="28" y2="28"/>
 </g>
 <circle cx="185.435" cy="28" fill="black" r="0.72" stroke="none" stroke-width="0"/>
 <g partID="854167940">
  <line stroke="#ff7300" stroke-linecap="round" stroke-width="0.699998" x1="185.435" x2="185.435" y1="28" y2="39.6328"/>
 </g>
 <circle cx="185.435" cy="28" fill="black" r="0.72" stroke="none" stroke-width="0"/>
 <circle cx="185.435" cy="39.6328" fill="black" r="0.72" stroke="none" stroke-width="0"/>
 <g partID="854168220">
  <line stroke="#ff7300" stroke-linecap="round" stroke-width="0.699998" x1="185.435" x2="127.769" y1="39.6328" y2="39.6"/>
 </g>
 <circle cx="185.435" cy="39.6328" fill="black" r="0.72" stroke="none" stroke-width="0"/>
 <g partID="854167870">
  <line stroke="#25cc35" stroke-linecap="round" stroke-width="0.699998" x1="228.929" x2="192.649" y1="38" y2="38"/>
 </g>
 <circle cx="192.649" cy="38" fill="black" r="0.72" stroke="none" stroke-width="0"/>
 <g partID="854168080">
  <line stroke="#25cc35" stroke-linecap="round" stroke-width="0.699998" x1="192.649" x2="192.649" y1="38" y2="46.8471"/>
 </g>
 <circle cx="192.649" cy="38" fill="black" r="0.72" stroke="none" stroke-width="0"/>
 <circle cx="192.649" cy="46.8471" fill="black" r="0.72" stroke="none" stroke-width="0"/>
 <g partID="854168010">
  <line stroke="#25cc35" stroke-linecap="round" stroke-width="0.699998" x1="192.649" x2="127.769" y1="46.8471" y2="46.8"/>
 </g>
 <circle cx="192.649" cy="46.8471" fill="black" r="0.72" stroke="none" stroke-width="0"/>
 <g partID="854168350">
  <line stroke="#404040" stroke-linecap="round" stroke-width="0.699998" x1="228.929" x2="206.914" y1="48" y2="48"/>
 </g>
 <circle cx="206.914" cy="48" fill="black" r="0.72" stroke="none" stroke-width="0"/>
 <g partID="854168420">
  <line stroke="#404040" stroke-linecap="round" stroke-width="0.699998" x1="206.914" x2="127.769" y1="68.3262" y2="68.4"/>
 </g>
 <circle cx="206.914" cy="68.3262" fill="black" r="0.72" stroke="none" stroke-width="0"/>
 <g partID="854168490">
  <line stroke="#404040" stroke-linecap="round" stroke-width="0.699998" x1="206.914" x2="206.914" y1="48" y2="68.3262"/>
 </g>
 <circle cx="206.914" cy="48" fill="black" r="0.72" stroke="none" stroke-width="0"/>
 <circle cx="206.914" cy="68.3262" fill="black" r="1.44" stroke="none" stroke-width="0"/>
 <g partID="854168560">
  <line stroke="#cc1414" stroke-linecap="round" stroke-width="0.699998" x1="228.929" x2="221.343" y1="58" y2="58"/>
 </g>
 <circle cx="221.343" cy="58" fill="black" r="0.72" stroke="none" stroke-width="0"/>
 <g partID="854168630">
  <line stroke="#cc1414" stroke-linecap="round" stroke-width="0.699998" x1="19.8328" x2="34.1693" y1="75.5406" y2="75.6"/>
 </g>
 <circle cx="19.8328" cy="75.5406" fill="black" r="0.72" stroke="none" stroke-width="0"/>
 <g partID="854168700">
  <line stroke="#cc1414" stroke-linecap="round" stroke-width="0.699998" x1="19.8328" x2="19.8328" y1="104.398" y2="75.5406"/>
 </g>
 <circle cx="19.8328" cy="104.398" fill="black" r="0.72" stroke="none" stroke-width="0"/>
 <circle cx="19.8328" cy="75.5406" fill="black" r="0.72" stroke="none" stroke-width="0"/>
 <g partID="854168770">
  <line stroke="#cc1414" stroke-linecap="round" stroke-width="0.699998" x1="221.343" x2="178.143" y1="104.398" y2="104.298"/>
 </g>
 <circle cx="221.343" cy="104.398" fill="black" r="0.72" stroke="none" stroke-width="0"/>
 <circle cx="178.143" cy="104.298" fill="black" r="0.72" stroke="none" stroke-width="0"/>
 <g partID="854168840">
  <line stroke="#cc1414" stroke-linecap="round" stroke-width="0.699998" x1="221.343" x2="221.343" y1="58" y2="104.398"/>
 </g>
 <circle cx="221.343" cy="58" fill="black" r="0.72" stroke="none" stroke-width="0"/>
 <circle cx="221.343" cy="104.398" fill="black" r="0.72" stroke="none" stroke-width="0"/>
 <g partID="855134230">
  <line stroke="#cc1414" stroke-linecap="round" stroke-width="0.699998" x1="178.143" x2="19.8328" y1="104.298" y2="104.398"/>
 </g>
 <circle cx="178.143" cy="104.298" fill="black" r="1.44" stroke="none" stroke-width="0"/>
 <circle cx="19.8328" cy="104.398" fill="black" r="0.72" stroke="none" stroke-width="0"/>
 <g partID="854169080">
  <line stroke="#cc1414" stroke-linecap="round" stroke-width="0.699998" x1="178.169" x2="156.548" y1="147.6" y2="147.702"/>
 </g>
 <circle cx="156.548" cy="147.702" fill="black" r="0.72" stroke="none" stroke-width="0"/>
 <g partID="854169220">
  <line stroke="#cc1414" stroke-linecap="round" stroke-width="0.699998" x1="156.548" x2="156.548" y1="147.702" y2="154.757"/>
 </g>
 <circle cx="156.548" cy="147.702" fill="black" r="0.72" stroke="none" stroke-width="0"/>
 <circle cx="156.548" cy="154.757" fill="black" r="0.72" stroke="none" stroke-width="0"/>
 <g partID="855134390">
  <line stroke="#cc1414" stroke-linecap="round" stroke-width="0.699998" x1="156.548" x2="134.969" y1="154.757" y2="154.8"/>
 </g>
 <circle cx="156.548" cy="154.757" fill="black" r="0.72" stroke="none" stroke-width="0"/>
 <g partID="854169290">
  <line stroke="#404040" stroke-linecap="round" stroke-width="0.699998" x1="178.169" x2="156.548" y1="169.2" y2="169.296"/>
 </g>
 <circle cx="178.169" cy="169.2" fill="black" r="1.44" stroke="none" stroke-width="0"/>
 <circle cx="156.548" cy="169.296" fill="black" r="0.72" stroke="none" stroke-width="0"/>
 <g partID="854169400">
  <line stroke="#404040" stroke-linecap="round" stroke-width="0.699998" x1="156.543" x2="134.969" y1="162.027" y2="162"/>
 </g>
 <circle cx="156.543" cy="162.027" fill="black" r="0.72" stroke="none" stroke-width="0"/>
 <g partID="854169510">
  <line stroke="#404040" stroke-linecap="round" stroke-width="0.699998" x1="156.548" x2="156.543" y1="169.296" y2="162.027"/>
 </g>
 <circle cx="156.548" cy="169.296" fill="black" r="0.72" stroke="none" stroke-width="0"/>
 <circle cx="156.543" cy="162.027" fill="black" r="0.72" stroke="none" stroke-width="0"/>
 <g partID="855134630">
  <line stroke="#cc1414" stroke-linecap="round" stroke-width="0.699998" x1="178.143" x2="178.143" y1="147.702" y2="125.893"/>
 </g>
 <circle cx="178.143" cy="147.702" fill="black" r="0.72" stroke="none" stroke-width="0"/>
 <circle cx="178.143" cy="125.893" fill="black" r="0.72" stroke="none" stroke-width="0"/>
 <g partID="855135130">
  <line stroke="#cc1414" stroke-linecap="round" stroke-width="0.699998" x1="178.143" x2="178.143" y1="125.893" y2="104.298"/>
 </g>
 <circle cx="178.143" cy="125.893" fill="black" r="0.72" stroke="none" stroke-width="0"/>
 <circle cx="178.143" cy="104.298" fill="black" r="0.72" stroke="none" stroke-width="0"/>
 <g partID="855135280">
  <line stroke="#404040" stroke-linecap="round" stroke-width="0.699998" x1="206.914" x2="207.007" y1="68.3262" y2="190.891"/>
 </g>
 <circle cx="206.914" cy="68.3262" fill="black" r="0.72" stroke="none" stroke-width="0"/>
 <circle cx="207.007" cy="190.891" fill="black" r="0.72" stroke="none" stroke-width="0"/>
 <g partID="855135470">
  <line stroke="#404040" stroke-linecap="round" stroke-width="0.699998" x1="178.143" x2="178.169" y1="190.891" y2="169.2"/>
 </g>
 <circle cx="178.143" cy="190.891" fill="black" r="0.72" stroke="none" stroke-width="0"/>
 <circle cx="178.169" cy="169.2" fill="black" r="1.44" stroke="none" stroke-width="0"/>
 <g partID="855135660">
  <line stroke="#404040" stroke-linecap="round" stroke-width="0.699998" x1="207.007" x2="178.143" y1="190.891" y2="190.891"/>
 </g>
 <circle cx="207.007" cy="190.891" fill="black" r="0.72" stroke="none" stroke-width="0"/>
 <circle cx="178.143" cy="190.891" fill="black" r="0.72" stroke="none" stroke-width="0"/>
 <g partID="855135870">
  <line stroke="#404040" stroke-linecap="round" stroke-width="0.699998" x1="34.1693" x2="19.7693" y1="39.6" y2="39.6002"/>
 </g>
 <g partID="855135940">
  <line stroke="#404040" stroke-linecap="round" stroke-width="0.699998" x1="19.7693" x2="34.2495" y1="10.8" y2="10.8641"/>
 </g>
 <circle cx="34.2495" cy="10.8641" fill="black" r="0.72" stroke="none" stroke-width="0"/>
 <g partID="855136010">
  <line stroke="#404040" stroke-linecap="round" stroke-width="0.699998" x1="34.2495" x2="34.1693" y1="10.8641" y2="25.2"/>
 </g>
 <circle cx="34.2495" cy="10.8641" fill="black" r="0.72" stroke="none" stroke-width="0"/>
 <g id="partLabel" partID="854167030">
  <g transform="translate(0,151.335)">
   <g fill="#000000" fill-opacity="1" font-family="'DroidSans'" font-size="5.000" font-style="normal" font-weight="normal" id="schematicLabel" stroke="none">
    <text x="0" y="5.000">6V</text>
   </g>
  </g>
 </g>
 <g id="partLabel" partID="854167040">
  <g transform="translate(158.916,134.939)">
   <g fill="#000000" fill-opacity="1" font-family="'DroidSans'" font-size="5.000" font-style="normal" font-weight="normal" id="schematicLabel" stroke="none">
    <text x="0" y="5.000">100&#x3bc;F</text>
    <text x="0" y="10.000">35V</text>
   </g>
  </g>
 </g>
 <g id="partLabel" partID="855135850">
  <g transform="translate(18.9309,3.1704)">
   <g fill="#000000" fill-opacity="1" font-family="'DroidSans'" font-size="5.000" font-style="normal" font-weight="normal" id="schematicLabel" stroke="none">
    <text x="0" y="5.000">1k</text>
   </g>
  </g>
 </g>
</svg>
